<?xml version="1.0" encoding="utf-8"?>
<!-- Generator: Adobe Illustrator 21.1.0, SVG Export Plug-In . SVG Version: 6.00 Build 0)  -->
<svg version="1.1" id="Слой_1" xmlns="http://www.w3.org/2000/svg" xmlns:xlink="http://www.w3.org/1999/xlink" x="0px" y="0px"
	 viewBox="0 0 413.8 176" style="enable-background:new 0 0 413.8 176;" xml:space="preserve">
<style type="text/css">
	.st0{fill:none;stroke:#1D1E1C;stroke-miterlimit:10;}
	.st1{fill:#1D1E1C;}
	.st2{fill:#ED7042;}
	.st3{fill:#FFFFFF;}
	.st4{fill:#1D1D1B;}
	.st5{fill-rule:evenodd;clip-rule:evenodd;fill:#ED7042;}
	.st6{fill:none;stroke:#1D1D1B;stroke-width:4;}
	.st7{fill:none;stroke:#1D1D1B;stroke-width:6;stroke-linecap:round;stroke-linejoin:round;stroke-miterlimit:10;}
	.st8{fill:none;stroke:#1D1D1B;stroke-width:4;stroke-linecap:square;stroke-linejoin:round;stroke-miterlimit:10;}
	.st9{fill:#FFFFFF;stroke:#884711;stroke-width:3.8736;stroke-linecap:round;stroke-linejoin:round;stroke-miterlimit:10;}
	.st10{fill:none;stroke:#884711;stroke-width:3.8736;stroke-linecap:round;stroke-linejoin:round;stroke-miterlimit:10;}
	.st11{fill:#FFFFFF;stroke:#884711;stroke-width:3.1339;stroke-linecap:round;stroke-linejoin:round;stroke-miterlimit:10;}
	.st12{fill:#FFFFFF;stroke:#884711;stroke-width:3;stroke-linecap:round;stroke-linejoin:round;stroke-miterlimit:10;}
	.st13{fill:#070707;}
</style>
<g>
	<path class="st3" d="M93.1,69.4c0,5.2-3.1,10-7.9,10c-1.8,0-4.7-1.2-5.8-3.9c5.9-2.4,6.4-11.9-1.3-11.9c-8.5,0-17.4,18.8-17.4,39.3
		c0,11.6,3.9,21.2,13.8,21.2c5.2,0,11.1-1.5,17.5-5.1c1.1,0.5,1.7,1.4,1.7,2.4c0,0.7-0.2,1.5-0.9,2.2c-7,7-15.6,9.7-23.8,9.7
		c-15.4,0-22.1-13.5-22.1-28.6c0-25,14.7-47.6,32.6-47.6C89,57,93.1,63.5,93.1,69.4z"/>
	<path class="st3" d="M115.9,82.6c4.9,0,8.8,1.4,11.8,5.8c-0.2,2.3-1.9,3.3-3.3,2.7c-1.9-0.7-3.9-1.1-6.3-1.1
		c-8.9,0-14.7,13.1-14.7,22.7c0,8.6,2.9,12,6.4,12c5.8,0,13.1-9.5,10.8-20.1c-1.8-0.1-3.4-0.5-4.5-1.2c-2.1-5.4,0.1-10.3,5.7-10.3
		c3.8,0,7,2.2,8.3,5.8c6.6-1.5,12.2-5,16.8-8c1.2,0.8,1.2,3.6-0.5,4.9c-2.4,1.9-9.1,6.6-15.5,7.8c-0.6,14.8-13.9,29.6-25.6,29.6
		c-10.1,0-14.4-8.1-14.4-17.3C90.9,101.1,101.2,82.6,115.9,82.6z"/>
	<path class="st3" d="M186.6,93c-2.5,2.2-6.4,6.8-10.4,9.3c0.1,0.4,0.1,0.8,0.1,1.1c0,15-13.8,29.8-25.6,29.8
		c-10.1,0-14.4-8.1-14.4-17.3c0-14.8,10.3-33.3,25.1-33.3c4.9,0,8.8,1.4,11.8,5.8c-0.2,2.3-1.9,3.3-3.3,2.7
		c-1.9-0.7-3.9-1.1-6.3-1.1c-8.9,0-14.7,13.1-14.7,22.7c0,8.6,2.9,12,6.4,12c5,0,11.3-7.2,11.3-16.1c0-1.3-0.2-2.6-0.5-4
		c-1.8-0.1-3.4-0.5-4.5-1.2c-2.1-5.4,0.1-10.3,5.7-10.3c3.3,0,6.2,1.7,7.7,4.5c3.9-2.4,7.5-6.7,11.7-10
		C188.4,89.2,187.9,91.9,186.6,93z"/>
	<path class="st3" d="M194,105.4l2-0.5c6.3-1.9,9.5-5.5,9.5-11.4c0-2.7-0.4-4.6-1.4-6.1c1.3-2.6,4.2-4.5,7.6-4.5
		c3.7,0,5.5,2.1,5.5,7.3c0.1,7.8-6.1,13.7-12.2,16.7c1.4,5.7,4.2,16.2,11,16.2c2,0,4.1-1.8,6.7-4.1c1.1,0.5,1.7,1.4,1.7,2.4
		c0,0.7-0.3,1.5-0.9,2.2c-3.5,4.3-10.3,9.7-14.4,9.7c-9.8,0-12.3-15.7-13.8-23.3l-2.3,0.6l-3.5,16.6c-0.9,4.5-4.4,6.2-7.7,6.2
		c-1.8,0-3.4-0.5-4.6-1.3l12.2-58.1c0.4-1.6-0.1-2.4-1-2.4c-0.5,0-1.1,0.4-2,1.2c-1.3-0.8-2-3.8,0-5.4c3.3-2.6,6.9-4.7,11-4.7
		c3.5,0,5.4,1.7,4.7,5.4L194,105.4z"/>
	<path class="st3" d="M239.5,89.1l-9.3,43.3c-5.7,26.4-10.8,37.7-24.5,37.7c-5.9,0-10.8-3.2-10.8-11.5c0-1.7,1.3-2.6,3.2-2.6
		c0.8,3.5,3,5.4,6.8,5.4c6.7,0,9.5-9,13.8-29l9.3-43.3h-4.9c-0.5-3.1,1.1-5.7,4.1-5.7h2l0.8-3.5c2.7-12.6,11.1-20.3,20.4-20.3
		c8.3,0,12.3,3.1,12.3,9.5c0,5.5-3.2,8.2-6.9,8c-1.3-0.1-2.6-0.5-3.9-1.4c1.1-2.4,1.6-5,1.6-6.4c0-1.9-1.2-2.8-3.6-2.8
		c-4.5,0-7,6.6-8.5,13.9l-0.7,2.9h7.5c0.5,3.1-1.1,5.7-4.1,5.7H239.5z"/>
	<path class="st3" d="M296.2,93c-2.5,2.2-6.4,6.8-10.4,9.3c0.1,0.4,0.1,0.8,0.1,1.1c0,15-13.8,29.8-25.6,29.8
		c-10.1,0-14.4-8.1-14.4-17.3c0-14.8,10.3-33.3,25.1-33.3c4.9,0,8.8,1.4,11.8,5.8c-0.2,2.3-1.9,3.3-3.3,2.7
		c-1.9-0.7-3.9-1.1-6.3-1.1c-8.9,0-14.7,13.1-14.7,22.7c0,8.6,2.9,12,6.4,12c5,0,11.3-7.2,11.3-16.1c0-1.3-0.2-2.6-0.5-4
		c-1.8-0.1-3.4-0.5-4.5-1.2c-2.1-5.4,0.1-10.3,5.7-10.3c3.3,0,6.2,1.7,7.7,4.5c3.9-2.4,7.5-6.7,11.7-10
		C298,89.2,297.6,91.9,296.2,93z"/>
	<path class="st3" d="M310.8,93.6c3.9-7.9,8.1-10.7,12.6-10.7c4.7,0,7.2,3.7,7.2,7.7c0,4.4-2.7,9.2-7.8,9.2c-0.9,0-2-0.1-2.8-0.4
		c0.7-0.6,1.1-1.9,1.1-3c0-1.4-1-2.4-3-2.4c-3.2,0-7.8,4.4-12.8,27l-1.2,6c-1,4.5-4.7,6.2-8.2,6.2c-1.8,0-3.4-0.5-4.6-1.3l8-37.6
		c0.3-1.6-0.1-2.4-1-2.4c-0.5,0-1.1,0.4-2,1.2c-1.3-0.8-2-3.8,0-5.4c3.3-2.6,6.9-4.7,11-4.7c3.5,0,5.5,1.7,4.7,5.4L310.8,93.6z"/>
	<path class="st3" d="M335.5,94.3c0.3-1.6-0.1-2.4-1-2.4c-0.5,0-1.1,0.4-2,1.2c-1.3-0.8-2-3.8,0-5.4c3.3-2.6,6.9-4.7,11-4.7
		c3.5,0,5.5,1.7,4.7,5.4l-6,28.3c-1.2,5.5,0.4,7.2,2.9,7.2c3.6,0,7.8-2.4,10.3-4.9c1.1,0.5,1.7,1.4,1.7,2.4c0,0.7-0.3,1.5-0.9,2.2
		c-4.6,5.2-11.2,9.7-17.7,9.7c-4.9,0-10.6-2.7-8.7-11.7L335.5,94.3z"/>
	<path class="st3" d="M393.5,116.6c-1.1,5,0.2,7.2,2.2,7.2c1.8,0,4-1.2,5.5-4.7c1.9,0,2.9,1,2.9,2.6c0,6.9-8,11.5-13.5,11.5
		c-4.6,0-9.2-2.2-9.1-9.9c-4.1,5.8-9.3,9.9-14.9,9.9c-10.2,0-12.2-10.2-12.2-16.5c0-17.1,11.1-34.2,24.7-34.2
		c4.4,0,7.6,1.1,10.1,3.2c1.7-2,4.2-2.8,6.7-2.8c1.8,0,3.4,0.5,4.6,1.3L393.5,116.6z M381.7,116.9l5.5-26.3
		c-1.7-0.6-3.1-0.8-4.6-0.8c-11.9,0-16.1,15.5-16.1,26.2c0,4.9,2.3,7.1,5.3,7.1C374.9,123.1,379,120.6,381.7,116.9z"/>
</g>
<path class="st3" d="M348,11.8c-3.5,0-6.9,0.6-10.1,1.7c5.8,7.2,12.4,15.3,12.5,15.4c0,0,1.1,1.5,2.6,2c3.8-1.8,8.9-0.2,12.4,3.8
	c1.9,2.3,3.1,5,3.2,7.7c0.1,2.7-0.8,5-2.6,6.6c-1.4,1.2-3.1,1.7-4.9,1.7c-3.1,0-6.5-1.6-9-4.5c-3.5-4.1-4.2-9.5-1.8-12.9
	c-0.2-1-1-2.3-2.3-3.6c-0.4-0.4-2.6-2.8-5.3-5.8c-2.4-2.7-5.4-5.9-8.1-8.9c-10.5,5-17.7,15.7-17.7,28.1c0,17.2,15.5,32.5,32.8,32.5
	c0,0-5.7-7.3,1.8-7.8c1.4-0.1,2.7-0.3,4-0.5c-4.2-5.7-8.1-10.5-8.2-10.5c0,0-1.7-2.6-4.3-2.6c-0.1,0-0.2,0.1-0.4,0.1
	c-1,0.4-4.6,1.6-7.5-2.1c0,0,0-0.1-0.1-0.1c-0.1-0.1-0.2-0.3-0.3-0.4c-2.1-2.7-8.5-12.1-8.6-12.2l-0.1-0.2l1.5-1.2l7.7,10.1l0,0l0,0
	c0.3,0.4,0.9,0.4,1.3,0.1c0.4-0.3,0.5-0.9,0.2-1.3l0,0c-6.9-9.3-7.4-10-7.5-10.1l-0.1-0.2l1.7-1.3l7.6,9.6c0.3,0.3,0.8,0.4,1.2,0.1
	c0.2-0.2,0.3-0.5,0.3-0.8c0,0,0-0.1,0-0.1c0-0.1,0-0.1-0.1-0.2l0,0c0,0,0-0.1-0.1-0.1l-7.5-9.8l1.5-1.2l0.1,0.2l7.2,8.5
	c0.3,0.4,0.8,0.4,1.2,0.1c0.4-0.3,0.4-0.8,0.2-1.1l0-0.1c-4.5-5.5-6.9-8.7-6.9-8.7l-0.1-0.2l1.4-1.1l0.1,0.2c0,0.1,5,5.2,8.3,8.9
	c0.2,0.3,0.4,0.5,0.6,0.7l0.2,0.2c0.4,0.4,0.7,0.8,1,1.1c0.1,0.1,0.2,0.3,0.3,0.4v0l0.1,0.1c3,3.6,1.1,6.9,0.4,7.8
	c-0.1,0.1-0.1,0.2-0.2,0.4c-0.5,2.4,1.6,4.7,1.6,4.7l6.9,7.9h0c0.5,0.6,1.7,1.8,2.8,3.1c0.1,0.1,0.2,0.2,0.3,0.3
	c12.3-3.3,20.1-12.4,20.1-23.5C379.2,25.8,365.3,11.8,348,11.8z"/>
<path class="st3" d="M67.9,53.2c-0.9,0.9-1.9,1.8-2.8,2.7l17.2-7.6c-0.9-0.9-1.8-1.9-2.7-2.8c-0.9-1-1.8-1.9-2.6-2.9l-2.6-2.9
	l-1.8-2c-3.6,2.1-7.1,4.2-10.6,6.4c-3.7,2.4-7.4,4.9-10.9,7.6c-3.5,2.7-6.9,5.5-10.1,8.6c-2.8,2.7-5.5,5.6-7.9,8.8L33,69.9
	c-0.3,1.9-0.8,3.7-1.6,5.5c-0.4,0.9-0.9,1.7-1.4,2.5c-0.6,0.8-1.2,1.5-2.1,1.9c1.2-1.4,1.7-3.2,2.1-4.9c0.4-1.7,0.6-3.5,0.7-5.3
	c0.1-1.8,0.1-3.6,0-5.4c0-1.8-0.2-3.5-0.2-5.5c0-1.9,0.3-3.9,0.9-5.8c0.7-1.9,1.5-3.7,2.9-5.2c2.6-3,6.3-4.9,10.1-5
	c-3.5,1.4-6.4,3.6-8.2,6.4c-1,1.4-1.5,3-2,4.6l-0.3,1.2l-0.1,0.6l-0.1,0.6c-0.1,0.9-0.2,1.7-0.1,2.6c0,1.7,0.1,3.6,0.1,5.5
	c0,0.9,0,1.9-0.2,2.8c1.4-3.1,3.3-6,5.3-8.8c2.8-3.7,6.1-7,9.7-9.9c3.6-3,7.4-5.5,11.4-7.8c4-2.3,8.2-4.2,12.5-5.8l0.2-0.1
	c-0.1-0.6-0.2-1.1-0.2-1.7c-0.1-1-0.1-2-0.1-3.1c0-1,0-2,0.1-3.1c0-0.5,0.1-1,0.2-1.6c0.1-0.5,0.2-1,0.3-1.5c0.3-1.9,0.4-3.9,0-5.6
	c-0.4-1.8-1.3-3.2-2.6-4.4c-1.3-1.2-2.9-2.1-4.6-2.8c-1.7-0.7-3.5-1.2-5.3-1.4c-3.6-0.5-7.4-0.1-11.1,0.9C41.9,12.6,35.2,17,30.2,23
	c-1.1,1.4-1.9,3.2-2.6,5c-0.7,1.8-1.1,3.7-1.4,5.7c-0.2,1.9-0.2,3.9,0.1,5.9c0.4,1.9,1.1,3.8,2.2,5.6c-1.3-1.5-2.4-3.4-3-5.3
	c-0.6-2-0.9-4.1-0.9-6.2c0-0.1,0-0.1,0-0.2c-0.4,0.6-0.8,1.1-1.3,1.7c-1.3,1.5-2.7,2.8-4,4.1c-2.7,2.7-5.1,5.5-7,8.6
	c-1.9,3.1-3.1,6.5-3.6,10C8.4,61.3,8.5,65,9.1,68.5c0.7,3.5,1.7,6.9,3.6,9.9c1.8,3,4.3,5.5,7.4,6.9c3.1,1.5,6.7,1.5,9.9,0
	c3-1.4,5.5-4,7.6-6.9c-0.2-0.3-0.4-0.6-0.6-0.9c-1-1.5-1.9-3.1-2.8-4.6c1.3,1.3,2.5,2.6,3.7,4c0.9,1,1.7,1.9,2.6,2.9
	c1.8-3.6,3.9-7,6.3-10.3c2.6-3.6,5.5-7,8.7-10.2c3.2-3.2,6.6-6.1,10.4-8.6c1.9-1.2,3.8-2.4,5.9-3.4c2-1,4.1-1.8,6.3-2.4
	c-1.8,1.3-3.5,2.7-5.2,4C71.1,50.4,69.5,51.8,67.9,53.2z"/>
</svg>
