<?xml version="1.0" encoding="UTF-8"?> <!-- Generator: Adobe Illustrator 21.1.0, SVG Export Plug-In . SVG Version: 6.00 Build 0) --> <svg xmlns="http://www.w3.org/2000/svg" xmlns:xlink="http://www.w3.org/1999/xlink" id="Слой_1" x="0px" y="0px" viewBox="0 0 163.668 101.564" style="enable-background:new 0 0 163.668 101.564;" xml:space="preserve"> <g> <path style="fill:#FFFFFF;" d="M34.445,13.856c-2.303,0-4.508,0.402-6.571,1.11c3.742,4.654,8.036,9.903,8.094,9.974 c0.013,0.017,0.69,0.953,1.712,1.286c2.444-1.14,5.807-0.1,8.028,2.491c1.262,1.471,2.004,3.237,2.09,4.974 c0.086,1.751-0.504,3.263-1.662,4.257c-0.885,0.759-2.003,1.122-3.192,1.122c-2.009,0-4.223-1.036-5.865-2.95 c-2.256-2.63-2.752-6.142-1.192-8.381c-0.146-0.68-0.67-1.492-1.517-2.353c-0.28-0.286-1.662-1.809-3.411-3.736 c-1.577-1.737-3.488-3.842-5.266-5.785c-6.807,3.269-11.519,10.207-11.519,18.263c0,11.196,10.089,21.111,21.285,21.111 c0,0-3.678-4.717,1.176-5.036c0.899-0.059,1.762-0.174,2.608-0.313c-2.753-3.708-5.279-6.785-5.307-6.819 c-0.021-0.03-1.132-1.691-2.779-1.715c-0.076,0.018-0.161,0.042-0.237,0.075c-0.665,0.287-2.979,1.038-4.844-1.382 c-0.012-0.015-0.029-0.038-0.045-0.059c-0.064-0.078-0.135-0.165-0.205-0.258c-1.359-1.774-5.541-7.865-5.583-7.927l-0.079-0.115 l0.986-0.784l5.01,6.562l-0.001,0.001l0.023,0.021c0.223,0.237,0.58,0.267,0.834,0.064c0.25-0.198,0.306-0.562,0.127-0.827 L27.129,36.7c-4.508-6.051-4.824-6.508-4.836-6.524l-0.078-0.115l1.085-0.863l4.963,6.244c0.18,0.226,0.522,0.264,0.757,0.08 c0.15-0.121,0.225-0.315,0.193-0.509c-0.002-0.022-0.005-0.036-0.008-0.049c-0.016-0.05-0.025-0.075-0.035-0.099l-0.015-0.026 c-0.016-0.028-0.031-0.052-0.043-0.067l-4.854-6.336l0.955-0.76l0.095,0.111l4.663,5.542c0.2,0.246,0.55,0.284,0.786,0.097 c0.229-0.182,0.277-0.502,0.113-0.745l-0.026-0.042c-2.953-3.585-4.495-5.647-4.511-5.668l-0.087-0.117l0.884-0.702l0.095,0.099 c0.032,0.033,3.253,3.394,5.418,5.801c0.149,0.167,0.285,0.319,0.416,0.466l0.104,0.116c0.261,0.288,0.486,0.539,0.656,0.744 c0.074,0.09,0.144,0.18,0.212,0.267v0.001l0.04,0.047c1.937,2.362,0.685,4.448,0.255,5.031c-0.049,0.065-0.092,0.143-0.136,0.243 c-0.339,1.581,1.029,3.039,1.043,3.054l4.448,5.113H39.68c0.353,0.396,1.077,1.197,1.825,2.023 c0.061,0.068,0.123,0.136,0.184,0.204c7.994-2.166,13.028-8.048,13.028-15.233C54.717,22.932,45.641,13.856,34.445,13.856z"></path> <g> <g> <path style="fill:#FFFFFF;" d="M36.626,69.135V56.614c1.073,0,2.146,0,3.256,0v4.74h0.232c3.202,0,3.041-2.397,3.041-4.74 c1.091,0,2.182,0,3.291,0c0,2.558,0.071,4.919-2.415,6.511l3.399,5.509v0.501h-3.56l-2.755-4.848 c-0.429,0.072-0.823,0.072-1.234,0.072v4.776C38.773,69.135,37.7,69.135,36.626,69.135z"></path> <path style="fill:#FFFFFF;" d="M50.04,68.795l1.968-4.043l-4.222-7.656v-0.483h3.578l2.361,4.615h0.09l2.146-4.615h3.47v0.483 l-5.939,12.038H50.04V68.795z"></path> <path style="fill:#FFFFFF;" d="M65.529,65.2l-2.29,3.935h-3.452v-0.483l4.043-6.153l-3.613-5.402v-0.483h3.327l1.985,3.256h0.09 l2.003-3.256h3.309v0.483l-3.613,5.402l4.061,6.153v0.483h-3.452l-2.29-3.935H65.529z"></path> <path style="fill:#FFFFFF;" d="M83.629,69.135c-1.091,0-2.182,0-3.273,0v-5.026h-3.863v5.026c-1.091,0-2.2,0-3.273,0V56.614 c1.073,0,2.182,0,3.273,0v4.543h3.863v-4.543c1.091,0,2.182,0,3.273,0V69.135z"></path> <path style="fill:#FFFFFF;" d="M88.046,64.699c-3.166-2.146-2.271-8.067,2.648-8.085c1.824,0,3.685,0,5.491,0 c0,4.186,0,8.354,0,12.521c-1.037,0-2.129,0-3.202,0V65.45h-1.664l-2.146,3.685h-3.578V68.67L88.046,64.699z M92.983,62.571 c0-1.002,0-2.075,0-3.095c-0.751,0-1.539-0.018-2.29,0c-1.825,0.018-1.735,3.095,0,3.095H92.983z"></path> <path style="fill:#FFFFFF;" d="M42.118,79.275c5.992,0,5.992,8.121,0,8.139h-5.509V74.893h8.998v2.862H39.81v1.52H42.118z M39.81,82.102v2.451c0.734,0,1.538,0,2.29,0c1.771,0,1.753-2.451,0-2.451H39.81z"></path> <path style="fill:#FFFFFF;" d="M56.837,77.755c-1.86,0-2.79,0-4.633,0v1.771h4.257c0,0.948,0,1.896,0,2.844h-4.257 c0,0.734,0,1.449,0,2.2c1.842,0,2.916,0,4.794,0c0,0.93,0,1.896,0,2.844c-2.934,0-5.08,0-7.978,0c0-4.186,0-8.371,0-12.521 c2.898,0,4.883,0,7.817,0C56.837,75.823,56.837,76.789,56.837,77.755z"></path> <path style="fill:#FFFFFF;" d="M59.286,78.041c-0.107-2.307,1.771-3.381,3.953-3.381c2.737,0,4.114,1.807,4.114,3.631 c0,0.823-0.358,1.771-1.091,2.325c1.27,0.68,1.807,1.682,1.807,3.095c0,2.218-1.61,3.935-4.83,3.935 c-2.719,0-4.382-1.502-4.382-4.311h2.808c0,0.984,0.644,1.61,1.574,1.61c2.146,0,2.146-2.844,0-2.844h-0.876V79.49h0.841 c1.574,0,1.539-2.182,0.036-2.182c-0.698,0-1.109,0.268-1.109,0.734H59.286z"></path> <path style="fill:#FFFFFF;" d="M79.577,87.078c-1.073,0-2.164,0-3.256,0V74.556c2.558,0,5.241,0,7.799,0c0,1.056,0,1.789,0,2.862 h-4.543V87.078z"></path> <path style="fill:#FFFFFF;" d="M86.355,87.078c0-4.168,0-8.336,0-12.521c1.807,0,3.667,0,5.509,0 c5.992,0.018,5.992,9.319,0,9.319h-2.307v3.202C88.483,87.078,87.41,87.078,86.355,87.078z M91.846,77.418 c-0.751-0.018-1.556,0-2.29,0c0,1.02,0,2.558,0,3.578h2.29C93.599,80.996,93.707,77.436,91.846,77.418z"></path> <path style="fill:#FFFFFF;" d="M105.242,85.503h-4.937l-0.733,1.574h-3.131v-0.465l5.635-12.217h1.377l5.653,12.217v0.465h-3.13 L105.242,85.503z M102.756,79.476l-1.413,3.291h2.862L102.756,79.476z"></path> <path style="fill:#FFFFFF;" d="M121.178,87.078c-1.091,0-2.182,0-3.273,0v-5.026h-3.864v5.026c-1.091,0-2.2,0-3.273,0V74.556 c1.073,0,2.182,0,3.273,0V79.1h3.864v-4.543c1.091,0,2.182,0,3.273,0V87.078z"></path> <path style="fill:#FFFFFF;" d="M125.541,87.095h-1.145V74.556c1.091,0,2.182,0,3.273,0v6.136l6.332-6.189h1.163v12.575 c-1.091,0-2.2,0-3.309,0v-6.153L125.541,87.095z"></path> <path style="fill:#FFFFFF;" d="M138.364,74.556h3.273v9.57h3.631v-9.57h3.273v9.749h1.27v4.186h-2.629v-1.413h-8.819V74.556z"></path> </g> </g> </g> </svg> 