<?xml version="1.0" encoding="utf-8"?>
<!-- Generator: Adobe Illustrator 21.1.0, SVG Export Plug-In . SVG Version: 6.00 Build 0)  -->
<svg version="1.1" id="Capa_1" xmlns="http://www.w3.org/2000/svg" xmlns:xlink="http://www.w3.org/1999/xlink" x="0px" y="0px"
	 viewBox="0 0 512 512" style="enable-background:new 0 0 512 512;" xml:space="preserve">
<style type="text/css">
	.st0{fill:#FFB914;}
</style>
<g>
	<g>
		<g>
			<path class="st0" d="M497.9,406.3h-6.2c13-12.9,19.8-26.4,19.8-39.4c0-14.3-8.4-29.4-24.2-43.5c-12.7-11.4-32-11.4-44.7,0
				c-9.8,8.7-16.7,17.8-20.6,26.8h-25.5c10.7-19.4,16.3-41.2,16.3-63.6v-28.8c9-2.2,15.6-10.3,15.6-19.9v-3
				c0-11.3-9.2-20.5-20.5-20.5h-11.4l1.4-6.7c3.1-15.4-5.1-30.5-18.8-36.6l17.1-84.8c2.3-11.6-5.2-23-16.8-25.3l-3.2-0.6
				c-5.6-1.1-11.4,0-16.1,3.2c-4.8,3.2-8,8-9.2,13.7l-17.1,84.8c-6.2,0.1-12.2,2-17.4,5.5c-7.3,4.9-12.4,12.3-14.1,21l-5.2,26H185
				v-24.5c0-11.1-9-20.1-20.1-20.1h-83c-11.1,0-20.1,9-20.1,20.1v111c-12.8-3-26.8,1.4-35.4,12.2l-14.5,18.5H9
				c-4.1,0-7.5,3.4-7.5,7.5v60.7c0,3.8,1,7.5,2.8,10.6c-2.6,2.6-4.3,6.1-4.3,10.1v17.8c0,7.8,6.3,14.1,14.1,14.1h483.8
				c7.8,0,14.1-6.3,14.1-14.1v-17.8C512,412.6,505.7,406.3,497.9,406.3z M433.4,365.2H470c4.1,0,7.5-3.4,7.5-7.5s-3.4-7.5-7.5-7.5
				h-31.1c3.8-6,9-11.4,13.7-15.6c3.5-3.1,8-4.7,12.4-4.7s8.8,1.6,12.4,4.7c8.8,7.8,19.2,19.8,19.2,32.3c0,12.5-10.4,24.5-19.2,32.3
				c-7.1,6.3-17.7,6.3-24.8,0c-8.8-7.8-19.2-19.8-19.2-32.3C433.4,366.3,433.4,365.7,433.4,365.2z M418.4,365.2L418.4,365.2
				c0,0.6,0,1.1,0,1.7c0,12.9,6.8,26.5,19.8,39.4h-54.4c5.5-6.4,8.9-14.8,8.9-23.9v-17.1L418.4,365.2L418.4,365.2z M377.7,362.1
				v20.2c0,12-9.7,21.7-21.7,21.7h-30.9c-12,0-21.7-9.7-21.7-21.7v-20.2H377.7z M318.5,347.1L318.5,347.1l11.4-9.8
				c5.9-4.8,14.4-4.5,19.9,0.7l9.7,9.1H318.5z M360.2,327c-11-10.3-28.1-10.9-39.8-1.3c0,0-0.1,0.1-0.1,0.1l-24.8,21.3
				c-4,0.2-7.1,3.5-7.1,7.5v27.7c0,7.7,2.4,14.9,6.5,20.8c-4.8,0.6-9.7,0.9-14.6,0.9h-29c-53.5,0-98.7-35.9-112.9-84.9H161
				c4.1,0,7.5-3.4,7.5-7.5s-3.4-7.5-7.5-7.5h-26c-0.9-5.8-1.3-11.6-1.3-17.6v-28.2h155.1c-0.2,9.9,2.6,19.6,8.2,28
				c3.4,5.1,7.7,9.5,12.6,13c-7.1,2.9-15,2.4-21.8-1.2c-10-5.4-22-6.4-32.7-2.6l-25.2,8.8H201c-4.1,0-7.5,3.4-7.5,7.5
				s3.4,7.5,7.5,7.5h30.1c0.8,0,1.7-0.1,2.5-0.4l26.4-9.2c6.8-2.4,14.3-1.8,20.6,1.7c10.9,5.9,23.6,6.5,35,1.8l1.3-0.6
				c5.4-2.3,11.5-2.6,17.1-0.9l26.7,7.8c0.7,0.2,1.4,0.3,2.1,0.3H393c-2.8,9.5-6.7,18.5-11.9,27.1L360.2,327z M194.4,406.3h-14
				c1.2-1.8,2.2-3.8,3-5.9C187,402.5,190.6,404.4,194.4,406.3z M303.8,258.3h26.3l-6.4,31.9c-5.8-2.6-10.7-6.7-14.3-12.1
				C305.5,272.1,303.5,265.3,303.8,258.3z M338.4,293.1l7-34.8h26.8l-1.6,7.7c-1.8,8.9-6.9,16.5-14.4,21.5
				C350.9,291.1,344.7,293,338.4,293.1z M397.7,286.5L397.7,286.5c0,6.1-0.5,12.2-1.4,18.2h-32.4l-5-1.5c1.9-0.9,3.8-2,5.7-3.2
				c10.9-7.2,18.3-18.2,20.8-31l2.2-10.7h10.2L397.7,286.5L397.7,286.5z M380.4,191.1c2.7,4,3.6,8.8,2.7,13.5l-2,9.7h-26.8l6.6-32.6
				l8.1,1.6C373.7,184.3,377.8,187.1,380.4,191.1z M365.4,80c0.3-1.7,1.3-3.2,2.8-4.1c1.4-1,3.2-1.3,4.9-1l3.2,0.6
				c3.5,0.7,5.8,4.1,5.1,7.7l-16.9,84l-15.9-3.2L365.4,80z M316.8,191.2c1-4.7,3.7-8.8,7.7-11.5s8.8-3.6,13.5-2.7l0.1,0h0l0.5,0.1
				l7.5,1.5l-7.2,35.5h-26.8L316.8,191.2z M407.9,229.3c3,0,5.5,2.5,5.5,5.5v3c0,3-2.5,5.5-5.5,5.5H125.8c-3,0-5.5-2.5-5.5-5.5v-3
				c0-3,2.5-5.5,5.5-5.5H407.9z M81.9,184.6h83c2.8,0,5.1,2.3,5.1,5.1v24.5h-44.2c-11.3,0-20.5,9.2-20.5,20.5v3
				c0,8.8,5.6,16.3,13.4,19.2v26.7l-14-5c-8.4-3-17.4-3.4-26-1.1l-2,0.5v-88.5h0C76.8,186.9,79.1,184.6,81.9,184.6z M76.8,312.3
				c0-0.1,0-0.1,0-0.2v-18.4c0,0,0,0,0,0l5.9-1.6c5.7-1.5,11.6-1.3,17.1,0.7l19.7,7c3.7,37,22.8,69.6,50.7,91.3
				c-0.2,7.1-6.1,12.8-13.3,12.8H90c-7.3,0-13.3-6-13.3-13.3L76.8,312.3z M38.1,322.3c5.7-7.2,15.5-9.4,23.6-5.7v15H30.9L38.1,322.3
				z M16.5,346.5h45.3v44.3c0,5.7,1.7,11,4.6,15.5H22.6c-3.4-0.3-6.1-3.1-6.1-6.6V346.5z M497,437.3H15v-16h482V437.3z"/>
			<path class="st0" d="M407.9,243.3C408,243.3,407.7,243.3,407.9,243.3L407.9,243.3z"/>
		</g>
	</g>
</g>
</svg>
