<?xml version="1.0" encoding="utf-8"?>
<!-- Generator: Adobe Illustrator 21.1.0, SVG Export Plug-In . SVG Version: 6.00 Build 0)  -->
<svg version="1.1" id="Capa_1" xmlns="http://www.w3.org/2000/svg" xmlns:xlink="http://www.w3.org/1999/xlink" x="0px" y="0px"
	 viewBox="0 0 512 512" style="enable-background:new 0 0 512 512;" xml:space="preserve">
<style type="text/css">
	.st0{fill:#FFB914;}
</style>
<g>
	<g>
		<g>
			<g>
				<g>
					<path class="st0" d="M490.3,228.2c0-42.4-11.7-83.1-33-118.2c5.2-7.8,12.7-15.3,23.4-19.3c3.8-1.4,6.3-5,6.3-9.1
						s-2.5-7.6-6.3-9.1c-20-7.5-28.8-27.1-32.2-38.1c-1.3-4.1-5-6.8-9.3-6.8c-4.3,0-8,2.7-9.3,6.8c-2.1,6.8-6.3,16.8-13.8,25.3
						c-8.4-7.7-17.4-14.8-27.1-21.3c-3.4-2.3-8.1-1.4-10.4,2c-2.3,3.4-1.4,8.1,2,10.4c8.4,5.6,16.3,11.8,23.7,18.5
						c-2.1,1.2-4.3,2.3-6.7,3.2c-3.8,1.4-6.3,5-6.3,9.1s2.5,7.6,6.3,9.1c20,7.5,28.8,27.1,32.2,38.1c1.3,4.1,5,6.8,9.3,6.8
						c4.3,0,8-2.7,9.3-6.8c0.3-0.8,0.6-1.7,0.9-2.6c16.8,30.8,26,65.7,26,102c0,68.4-32.3,129.3-82.5,168.3l-6.9-64.9
						c23.5-28,37.6-64.1,37.6-103.4c0-51.7-24.4-97.7-62.3-127.2c0,0-3.3-31.1-3.3-31.1c-1.8-16.7-19.5-27-34.8-21.1
						c-3.1,1.2-5.9,3-8.3,5.3c-5.4,5.1-7.6,11.9-7.9,19.1c-14.2-4.1-29.2-6.3-44.7-6.3c-25.1,0-48.9,5.8-70.1,16.1l-28.6-3.8
						c-6.9-0.9-13.3,4-14.2,10.9l-3.5,26.7c-27.8,29-44.8,68.3-44.8,111.5c0,41.1,15.5,78.7,40.9,107.2l-8.3,62.6
						c-51.3-39-84.5-100.6-84.5-169.8c0-56.9,22.2-110.5,62.4-150.8C151.7,37.2,205.2,15,262.1,15c31.1,0,61.1,6.6,89.2,19.5
						c3.8,1.7,8.2,0.1,9.9-3.7c1.7-3.8,0.1-8.2-3.7-9.9C327.6,7,295.5,0,262.1,0c-60.9,0-118.3,23.7-161.3,66.8S34,167.2,34,228.2
						s23.7,118.3,66.8,161.3c9.5,9.5,19.6,18,30.4,25.5l-1.7,13c-0.5,4.1,2.3,7.9,6.4,8.4c4.1,0.5,7.9-2.3,8.4-6.4L166,266l23.5,3.1
						l-28.9,218.6c-1.9,14.2-25.4,10.9-23.5-3.1c0.1-0.7,2.6-20,2.6-20c0.5-4.1-2.3-7.9-6.4-8.4c-4.1-0.5-7.9,2.3-8.4,6.4l-2.6,20
						c-0.9,6.8,0.9,13.6,5.1,19c13.9,18.1,45.1,11.2,48.1-12l6.3-47.9c25.3,9.5,52.5,14.5,80.3,14.5c28.3,0,55.8-5.1,81.5-14.9
						c0,0,5.1,47.6,5.1,47.7c2.5,23,33.7,30.7,47.8,13.2c4.3-5.3,6.3-12,5.6-18.9l-7.4-69.4c10.2-7.3,19.8-15.4,28.8-24.4
						C466.6,346.4,490.3,289.1,490.3,228.2L490.3,228.2z M439.2,111.6c-5-10.3-13.1-22-26-29.9c12.9-7.9,21-19.6,26-29.9
						c5,10.3,13.1,22,26,29.9C452.4,89.6,444.2,101.3,439.2,111.6z M408.5,228.2c0,30.2-9.2,58.3-25,81.6l-5.7-53.2l-14.3-133.9
						C391.2,149.4,408.5,186.8,408.5,228.2L408.5,228.2z M321.9,72c0.1-3,1.5-5.8,3.8-7.7c6.4-5.2,16.4-1,17.2,7.1
						c0,0,19.2,179.4,19.2,179.4l-23.6,2.5l-2.2-20.4c-0.7-6.5-3.8-12.5-8.9-16.8l-8.1-6.9c-2.5-2.1-3.9-5.3-3.7-8.6
						C315.7,200.8,321.9,72,321.9,72L321.9,72z M262.1,81.8c15.3,0,30.1,2.4,44,6.8l-5.3,111.5c-0.4,7.9,3,15.6,9,20.7
						c4.6,3.9,10.8,7.4,11.7,13.8l3,27.8l10,93c-21.3,12.2-46,19.2-72.3,19.2c-25,0-48.5-6.3-69.2-17.4l12.3-93.4l4.6-34.9
						c0.2-1.8,1.4-3.3,3-3.8c14.3-5,24.9-18.3,27-33.8l11.6-87.6c0.4-3.4-0.4-6.7-2.5-9.4c-2.1-2.7-5-4.4-8.4-4.9L223.4,87
						C235.7,83.6,248.7,81.8,262.1,81.8L262.1,81.8z M156.7,221.7l-4.6,34.9l-7.7,58.4c-18-24.3-28.6-54.3-28.6-86.8
						c0-31,9.7-59.7,26.2-83.4l-4.3,32.9c-2,15.5,4.7,31.1,17.3,39.6C156.2,218.2,156.9,220,156.7,221.7z M167.9,251.2l3.6-27.5
						c1-7.4-2.2-14.6-8.3-18.8c-7.9-5.4-12.2-15.3-10.9-25.3l11.3-85.3l14,1.8l-9.4,71.3c-0.5,4.1,2.3,7.9,6.4,8.4
						c0.3,0,0.7,0.1,1,0.1c3.7,0,6.9-2.7,7.4-6.5l9.4-71.3l14.8,2l-9.4,71.3c-0.5,4.1,2.3,7.9,6.4,8.4c0.3,0,0.7,0.1,1,0.1
						c3.7,0,6.9-2.7,7.4-6.5l9.4-71.3l14,1.8L225,189.2c-1.3,10-8,18.4-17,21.6c-7,2.4-11.9,8.6-12.9,16l-3.6,27.5L167.9,251.2z
						 M262.1,441.4c-27.6,0-54.1-5.3-78.3-14.9l7.1-53.6c21.5,10.6,45.7,16.6,71.2,16.6c26.7,0,51.8-6.5,74-18l5.8,54.3
						C317.3,435.8,290.4,441.4,262.1,441.4z M384.9,492.9c-2.5,3.1-5.9,3.8-9.5,4.2c-5.9,0.6-11.2-3.6-11.8-9.5l-23.5-219.3
						l23.6-2.5L387.2,485C387.5,487.8,386.7,490.6,384.9,492.9z"/>
					<path class="st0" d="M94.6,418.4c-15.3-5.7-22-20.8-24.6-29.2c-1.2-3.9-4.8-6.5-8.8-6.5c-4.1,0-7.6,2.6-8.8,6.5v0
						c-2.7,8.5-9.4,23.5-24.6,29.2c-3.6,1.4-6,4.8-6,8.7c0,3.9,2.4,7.3,6,8.7c15.3,5.7,22,20.8,24.6,29.2c1.2,3.9,4.8,6.5,8.8,6.5
						c4.1,0,7.6-2.6,8.8-6.5c2.7-8.5,9.4-23.5,24.6-29.2c3.6-1.4,6-4.8,6-8.7C100.6,423.2,98.2,419.8,94.6,418.4L94.6,418.4z
						 M61.1,447.4c-3.8-7.1-9.5-14.7-17.8-20.3c8.3-5.6,14-13.2,17.8-20.3c3.8,7.1,9.5,14.7,17.8,20.3
						C70.6,432.7,65,440.3,61.1,447.4z"/>
				</g>
			</g>
		</g>
	</g>
</g>
</svg>
