<?xml version="1.0" encoding="utf-8"?>
<!-- Generator: Adobe Illustrator 21.1.0, SVG Export Plug-In . SVG Version: 6.00 Build 0)  -->
<svg version="1.1" id="Capa_1" xmlns="http://www.w3.org/2000/svg" xmlns:xlink="http://www.w3.org/1999/xlink" x="0px" y="0px"
	 viewBox="0 0 512 512" style="enable-background:new 0 0 512 512;" xml:space="preserve">
<style type="text/css">
	.st0{fill:#FFB914;}
</style>
<g>
	<g>
		<g>
			<path class="st0" d="M157.9,183.8c-3.2-2.7-7.9-2.2-10.5,1.1c-3,3.9-7,6-11.3,6s-8.3-2.1-11.3-6c-2.6-3.3-7.3-3.8-10.5-1.1
				c-3.2,2.7-3.7,7.6-1.1,10.9c5.8,7.4,14.2,11.7,23,11.7s17.1-4.3,23-11.7C161.6,191.3,161.1,186.4,157.9,183.8z"/>
		</g>
	</g>
	<g>
		<g>
			<path class="st0" d="M101.8,137.9c-4.1,0-7.5,3.5-7.5,7.7v8.8c0,4.3,3.4,7.7,7.5,7.7s7.5-3.5,7.5-7.7v-8.8
				C109.3,141.3,105.9,137.9,101.8,137.9z"/>
		</g>
	</g>
	<g>
		<g>
			<path class="st0" d="M170.3,137.9c-4.1,0-7.5,3.5-7.5,7.7v8.8c0,4.3,3.4,7.7,7.5,7.7c4.1,0,7.5-3.5,7.5-7.7v-8.8
				C177.8,141.3,174.5,137.9,170.3,137.9z"/>
		</g>
	</g>
	<g>
		<g>
			<path class="st0" d="M406.4,227.9c-3.2-2.7-7.9-2.2-10.5,1.1c-3,3.8-7,6-11.3,6c-4.3,0-8.3-2.1-11.3-6c-2.6-3.3-7.3-3.8-10.5-1.1
				c-3.2,2.7-3.7,7.6-1.1,10.9c5.8,7.4,14.2,11.7,23,11.7s17.1-4.3,23-11.7C410.1,235.5,409.6,230.6,406.4,227.9z"/>
		</g>
	</g>
	<g>
		<g>
			<path class="st0" d="M350.3,182c-4.1,0-7.5,3.5-7.5,7.7v8.8c0,4.3,3.4,7.7,7.5,7.7c4.1,0,7.5-3.5,7.5-7.7v-8.8
				C357.8,185.5,354.4,182,350.3,182z"/>
		</g>
	</g>
	<g>
		<g>
			<path class="st0" d="M418.8,182c-4.1,0-7.5,3.5-7.5,7.7v8.8c0,4.3,3.4,7.7,7.5,7.7c4.1,0,7.5-3.5,7.5-7.7v-8.8
				C426.3,185.5,423,182,418.8,182z"/>
		</g>
	</g>
	<g>
		<g>
			<path class="st0" d="M491.1,334.9l-58.8-24.2c-0.3-0.1-0.6-0.3-0.9-0.5c40.6-9.5,59.8-25.4,60.7-26.2c2-1.7,3-4.4,2.7-7.1
				c-0.1-0.6-8.5-62-8.5-122.6c0-57.8-45.6-104.9-101.8-104.9c-56.1,0-101.8,47.1-101.8,104.9c0,15.8-0.7,35.2-1.8,53.6l-16.4,8.4
				l-48.1-24.8c-0.1-0.1-0.3-0.1-0.4-0.2c2.3-6.9,3.8-14.1,4.3-21.6c10.1-3.2,17.4-12.9,17.4-24.3c0-7.7-3.3-14.6-8.6-19.2V74.9
				c0-14.2-7-27.5-18.4-35.5c-3.9-14.8-16.8-25.2-32-25.2h-68.6c-37.2,0-67.5,31.2-67.5,69.6v42.6c-5.2,4.7-8.6,11.5-8.6,19.2
				c0,11.4,7.3,21.1,17.4,24.3c1.9,26,14.9,48.8,34,63.4v21.4l-62,19.2C9.5,278.2,0,291.4,0,306.6v86.3c0,4.3,3.4,7.7,7.5,7.7h1.1
				v89.4c0,4.3,3.4,7.7,7.5,7.7s7.5-3.5,7.5-7.7v-89.4h27.8v89.4c0,4.3,3.4,7.7,7.5,7.7s7.5-3.5,7.5-7.7V356.8
				c0-6.8-1.9-13.3-5.6-19L48,318c-2.3-3.6-7-4.5-10.4-2.1c-3.4,2.4-4.4,7.2-2.1,10.7l12.8,19.8c2,3.1,3.1,6.7,3.1,10.4v28.4H16.1
				H15v-78.5c0-8.4,5.2-15.6,13-18l25.7-8c9,38.7,43,66.9,82.3,66.9c14.1,0,27.8-3.6,40.1-10.4c4.5,6.3,11.7,10.4,19.9,10.4h1.1v1.1
				c0,25.9,13.8,48.6,34.3,60.5v12.6c0,0.5-0.3,0.9-0.7,1l-28,9.6c-13.6,4.7-22.7,17.7-22.7,32.5v25.1c0,4.3,3.4,7.7,7.5,7.7
				c4.1,0,7.5-3.5,7.5-7.7V465c0-8.1,5-15.2,12.4-17.8l8.2-2.8c10.9,16.7,29.2,26.9,48.9,26.9c19.8,0,38.1-10.2,48.9-26.9l8.2,2.8
				c7.4,2.6,12.4,9.7,12.4,17.8v25.1c0,4.3,3.4,7.7,7.5,7.7s7.5-3.5,7.5-7.7V465c0-14.8-9.1-27.8-22.7-32.5l-28-9.6
				c-0.4-0.2-0.7-0.6-0.7-1v-12.6c15.3-9,26.9-23.9,31.8-41.7c14.2,15.3,34,24.3,55,24.3c33.2,0,62.4-22.1,72.4-54.4l28.6,11.8
				c7,2.9,11.4,9.7,11.4,17.4v36.2h-1.1h-26.8v-9.9c0-4.3-3.4-7.7-7.5-7.7c-4.1,0-7.5,3.5-7.5,7.7v97.2c0,4.3,3.4,7.7,7.5,7.7
				c4.1,0,7.5-3.5,7.5-7.7v-71.8h19.3v71.8c0,4.3,3.4,7.7,7.5,7.7s7.5-3.5,7.5-7.7v-71.8h1.1c2,0,3.9-0.8,5.3-2.3
				c1.4-1.5,2.2-3.4,2.2-5.5v-43.9C512,352.6,503.8,340.1,491.1,334.9z M297.8,154.4c0-49.3,38.9-89.4,86.8-89.4
				s86.8,40.1,86.8,89.4c0,51.9,6.1,104.4,8,120.1c-6.7,4.5-23.9,14.5-53,21.1v-12.3c4-2.3,7.8-5,11.4-8
				c14.8-12.3,25.2-29.5,29.4-48.5c1.4-6.3,2.1-12.8,2.1-19.4c0-43.7-30.7-50-60.3-56c-18.9-3.9-38.4-7.9-53.9-20.7
				c-2.3-1.9-5.3-2.2-7.9-0.9c-2.6,1.3-4.3,4-4.3,7c0,0.2-0.3,20.5-28.6,27.8c-4,1-6.5,5.2-5.5,9.4c1,4.1,5.1,6.7,9.1,5.6
				c23.7-6.1,33.3-19.8,37.2-30.1c16.3,9.9,34.5,13.7,50.9,17c31.7,6.5,48.2,11.2,48.2,40.9c0,5.4-0.6,10.8-1.7,16
				c-3.4,15.6-12,29.8-24.2,39.9c-12.5,10.4-27.6,15.9-43.7,15.9c-14.7,0-28.7-4.6-40.5-13.4c-4.3-12.2-11.3-23.4-20.5-32.6v-34.6
				c0-2.7-1.3-5.2-3.6-6.6s-5-1.5-7.3-0.3l-16.2,8.3C297.3,183.9,297.8,168.6,297.8,154.4z M308.5,211.1v28l-27.1-14L308.5,211.1z
				 M220.7,211.1l27.1,14l-27.1,14V211.1z M179.9,295.7v7.3c-5.4,4.8-8.6,11.8-8.6,19.2c-10.7,6.5-22.8,9.9-35.3,9.9
				c-32.6,0-60.8-23.7-67.9-55.9l18.5-5.7c4.6,23.8,25,41.8,49.4,41.8c19.4,0,36.2-11.4,44.6-27.9
				C180.2,288.1,179.9,291.9,179.9,295.7z M100.7,260.4v-17.9c10.8,5.1,22.7,8,35.3,8c12.6,0,24.6-2.9,35.3-8v17.9
				c0,20.1-15.9,36.4-35.3,36.4c-19.5,0-35.3-16.3-35.3-36.3C100.7,260.5,100.7,260.4,100.7,260.4z M136,235
				c-38.4,0-69.6-32.2-69.6-71.8c0-4.3-3.4-7.7-7.5-7.7c-5.3,0-9.6-4.5-9.6-9.9c0-5.5,4.3-9.9,9.6-9.9h17.1c3.2,0,6.1-2.1,7.1-5.3
				l6.9-21.3c17.2-0.4,70.7-2.9,100.8-18.4c3.7-1.9,5.2-6.6,3.4-10.4c-1.9-3.8-6.4-5.4-10.1-3.5c-32.3,16.6-98.8,16.8-99.5,16.8
				c-3.2,0-6.1,2.1-7.1,5.3l-6.9,21.2H58.9c-0.4,0-0.7,0-1.1,0V83.8c0-29.8,23.5-54.1,52.5-54.1h68.6c9,0,16.5,6.7,17.9,15.8
				c0.4,2.3,1.7,4.4,3.7,5.5c8.5,4.9,13.7,14.1,13.7,23.9v45.3c-0.4,0-0.7,0-1.1,0h-8.6c-4.1,0-7.5,3.5-7.5,7.7s3.4,7.7,7.5,7.7h8.6
				c5.3,0,9.6,4.5,9.6,9.9c0,5.5-4.3,9.9-9.6,9.9c-4.1,0-7.5,3.5-7.5,7.7C205.7,202.8,174.4,235,136,235z M186.4,260.4v-27.1
				c7.5-5.7,14-12.7,19.3-20.5v20.4c-8.4,8.4-14.9,18.4-19.3,29.4C186.4,261.9,186.4,261.1,186.4,260.4z M298.5,439.2
				c-8.3,10.4-20.7,16.6-34,16.6c-13.3,0-25.7-6.2-34-16.6l4.8-1.6c6.6-2.3,11-8.6,11-15.7v-6.2c5.8,1.7,11.9,2.6,18.2,2.6
				c6.3,0,12.4-0.9,18.2-2.6v6.2c0,7.1,4.4,13.5,11,15.7L298.5,439.2z M324.6,332.2c-4.1,0-7.5,3.5-7.5,7.7v7.7c0,0.1,0,0.1,0,0.2
				v0.9c0,29.8-23.5,54.1-52.5,54.1c-28.9,0-52.5-24.3-52.5-54.1v-8.8c0-4.3-3.4-7.7-7.5-7.7H196c-5.3,0-9.6-4.5-9.6-9.9
				c0-3.5,1.8-6.7,4.8-8.5c0.7-0.4,1.3-0.9,1.8-1.5c18.5-0.6,78.6-4.1,118.1-27.4c3.6-2.1,4.8-6.8,2.8-10.5c-2.1-3.7-6.6-5-10.2-2.9
				c-34.6,20.4-89,24.5-108.7,25.3v-0.9c0-14.4,4.2-28.3,11.9-40c0.6,1,1.4,1.8,2.4,2.5c1.2,0.8,2.6,1.2,3.9,1.2
				c1.1,0,2.3-0.3,3.4-0.8l48.1-24.8l48.1,24.8c1.1,0.5,2.2,0.8,3.4,0.8c1.4,0,2.7-0.4,3.9-1.2c1-0.6,1.8-1.5,2.4-2.5
				c7.7,11.7,11.9,25.7,11.9,40V307c0,2.8,1.4,5.3,3.7,6.7c3,1.8,4.8,5,4.8,8.5c0,5.5-4.3,9.9-9.6,9.9H324.6z M384.5,376.3
				c-20.8,0-40-10.9-51.2-28.7c13.5-0.1,24.5-11.4,24.5-25.4c0-7.4-3.2-14.4-8.6-19.2v-7.3c0-3.1-0.2-6.2-0.5-9.3
				c11.1,5.4,23.3,8.2,35.8,8.2c9.1,0,18.2-1.6,26.8-4.5v11.3c0,10.4,6.1,19.7,15.5,23.6l16.2,6.7
				C435.2,358.1,411.6,376.3,384.5,376.3z"/>
		</g>
	</g>
	<g>
		<g>
			<path class="st0" d="M286.4,360.4c-3.2-2.7-7.9-2.2-10.5,1.1c-3,3.9-7,6-11.3,6c-4.3,0-8.3-2.1-11.3-6c-2.6-3.3-7.3-3.8-10.5-1.1
				c-3.2,2.7-3.7,7.6-1.1,10.9c5.8,7.4,14.2,11.7,23,11.7c8.7,0,17.1-4.3,23-11.7C290.1,368,289.6,363.1,286.4,360.4z"/>
		</g>
	</g>
	<g>
		<g>
			<ellipse class="st0" cx="239" cy="331.1" rx="7.5" ry="7.7"/>
		</g>
	</g>
	<g>
		<g>
			<ellipse class="st0" cx="290" cy="331.1" rx="7.5" ry="7.7"/>
		</g>
	</g>
</g>
</svg>
