<svg width="25" height="25" viewBox="0 0 25 25" fill="none" xmlns="http://www.w3.org/2000/svg">
<path d="M12.5 0C5.59126 0 0 5.59067 0 12.5C0 14.9785 0.723926 17.3739 2.0936 19.4274C2.20586 19.5957 2.4332 19.6412 2.60146 19.5289C2.76968 19.4166 2.81514 19.1893 2.70288 19.021C1.41382 17.0883 0.732422 14.8333 0.732422 12.5C0.732422 6.01133 6.01133 0.732422 12.5 0.732422C15.1303 0.732422 17.6175 1.58081 19.6928 3.18584C19.6929 3.18589 19.693 3.18599 19.6931 3.18608C22.6002 5.43467 24.2676 8.82944 24.2676 12.5C24.2676 18.9887 18.9887 24.2676 12.5 24.2676C9.14956 24.2676 5.94785 22.8325 3.71577 20.3304C3.58115 20.1796 3.34976 20.1664 3.19868 20.3009C3.04775 20.4356 3.03457 20.667 3.16919 20.818C5.54009 23.4757 8.94102 25 12.5 25C19.4087 25 25 19.4093 25 12.5C25 5.62231 19.433 0 12.5 0Z" fill="#323232"/>
<path d="M16.5477 2.86655C15.264 2.32524 13.9021 2.05078 12.5 2.05078C6.73828 2.05078 2.05078 6.73828 2.05078 12.5C2.05078 18.2617 6.73828 22.9492 12.5 22.9492C18.2617 22.9492 22.9492 18.2617 22.9492 12.5C22.9492 8.91924 21.1415 5.62578 18.1135 3.68984C17.9431 3.58096 17.7167 3.63076 17.6077 3.80112C17.4988 3.97153 17.5486 4.198 17.719 4.30693C18.2177 4.62578 18.6801 4.98491 19.1046 5.37744L18.2486 6.2334C18.1056 6.37647 18.1056 6.6083 18.2486 6.75132C18.3917 6.89434 18.6235 6.89429 18.7666 6.75132L19.6239 5.89399C21.1948 7.58193 22.1218 9.78115 22.2092 12.1338H20.9961C20.7938 12.1338 20.6299 12.2977 20.6299 12.5C20.6299 12.7023 20.7938 12.8662 20.9961 12.8662H22.2092C22.1196 15.2695 21.1534 17.4521 19.6212 19.1033L18.7666 18.2487C18.6235 18.1057 18.3917 18.1057 18.2487 18.2487C18.1057 18.3917 18.1057 18.6236 18.2487 18.7666L19.1033 19.6212C17.4522 21.1534 15.2695 22.1197 12.8662 22.2092V20.9961C12.8662 20.7938 12.7023 20.6299 12.5 20.6299C12.2977 20.6299 12.1338 20.7938 12.1338 20.9961V22.2092C9.73052 22.1196 7.54785 21.1534 5.89668 19.6212L6.75132 18.7666C6.89434 18.6235 6.89434 18.3917 6.75132 18.2487C6.60825 18.1057 6.37642 18.1057 6.2334 18.2487L5.37876 19.1033C3.84663 17.4521 2.88032 15.2695 2.79082 12.8662H4.00391C4.2062 12.8662 4.37012 12.7023 4.37012 12.5C4.37012 12.2977 4.2062 12.1338 4.00391 12.1338H2.79082C2.88037 9.73052 3.84663 7.54785 5.37876 5.89668L6.2334 6.75132C6.37651 6.89434 6.6083 6.89429 6.75132 6.75132C6.89434 6.60825 6.89434 6.37642 6.75132 6.2334L5.89668 5.37876C7.54785 3.84663 9.73052 2.88032 12.1338 2.79082V4.00391C12.1338 4.2062 12.2977 4.37012 12.5 4.37012C12.7023 4.37012 12.8662 4.2062 12.8662 4.00391V2.79067C14.0409 2.83403 15.182 3.08555 16.2631 3.54146C16.4494 3.61987 16.6642 3.53267 16.7428 3.34629C16.8214 3.15996 16.734 2.94517 16.5477 2.86655V2.86655Z" fill="#323232"/>
<path d="M7.45586 17.5441C7.52739 17.6156 7.62114 17.6513 7.71484 17.6513C7.80854 17.6513 7.90229 17.6156 7.97383 17.5441L11.7607 13.7572C11.9792 13.8885 12.2326 13.9648 12.5 13.9648C12.8618 13.9648 13.1977 13.8253 13.4565 13.5986H16.504C17.1097 13.5986 17.6026 13.1058 17.6026 12.5C17.6026 11.8942 17.1097 11.4014 16.504 11.4014H13.5987V7.03125C13.5987 6.42549 13.1058 5.93262 12.5 5.93262C11.8943 5.93262 11.4014 6.42549 11.4014 7.03125V11.5436C11.1748 11.8024 11.0352 12.1383 11.0352 12.5C11.0352 12.7674 11.1115 13.0207 11.2428 13.2392L7.45586 17.0261C7.31289 17.1692 7.31289 17.401 7.45586 17.5441ZM12.0577 13.0738C12.0249 13.0176 11.9822 12.975 11.9262 12.9423C11.828 12.8175 11.7676 12.6631 11.7676 12.5C11.7676 12.0866 12.1521 11.7272 12.5705 11.7714C12.5749 11.7718 12.5792 11.7728 12.5836 11.7733C12.9102 11.8143 13.1856 12.0886 13.2268 12.4165C13.2273 12.4209 13.2283 12.4252 13.2287 12.4296C13.2727 12.8466 12.9148 13.2324 12.5 13.2324C12.3369 13.2324 12.1826 13.172 12.0577 13.0738ZM16.504 12.1338C16.7059 12.1338 16.8702 12.298 16.8702 12.5C16.8702 12.702 16.7059 12.8662 16.504 12.8662H13.917C13.9776 12.6378 13.9829 12.3821 13.917 12.1338H16.504ZM12.1338 7.03125C12.1338 6.8293 12.2981 6.66504 12.5 6.66504C12.702 6.66504 12.8663 6.8293 12.8663 7.03125V11.083C12.6365 11.0221 12.3788 11.0181 12.1338 11.083V7.03125Z" fill="#323232"/>
</svg>
