<svg width="65" height="65" viewBox="0 0 65 65" fill="none" xmlns="http://www.w3.org/2000/svg">
<path d="M52.8125 8.125H46.7188V6.09375C46.7188 5.55503 46.5047 5.03837 46.1238 4.65744C45.7429 4.27651 45.2262 4.0625 44.6875 4.0625C44.1488 4.0625 43.6321 4.27651 43.2512 4.65744C42.8703 5.03837 42.6562 5.55503 42.6562 6.09375V8.125H22.3438V6.09375C22.3438 5.55503 22.1297 5.03837 21.7488 4.65744C21.3679 4.27651 20.8512 4.0625 20.3125 4.0625C19.7738 4.0625 19.2571 4.27651 18.8762 4.65744C18.4953 5.03837 18.2812 5.55503 18.2812 6.09375V8.125H12.1875C11.1101 8.125 10.0767 8.55301 9.31488 9.31488C8.55301 10.0767 8.125 11.1101 8.125 12.1875V52.8125C8.125 53.8899 8.55301 54.9233 9.31488 55.6851C10.0767 56.447 11.1101 56.875 12.1875 56.875H52.8125C53.8899 56.875 54.9233 56.447 55.6851 55.6851C56.447 54.9233 56.875 53.8899 56.875 52.8125V12.1875C56.875 11.1101 56.447 10.0767 55.6851 9.31488C54.9233 8.55301 53.8899 8.125 52.8125 8.125ZM18.2812 12.1875V14.2188C18.2812 14.7575 18.4953 15.2741 18.8762 15.6551C19.2571 16.036 19.7738 16.25 20.3125 16.25C20.8512 16.25 21.3679 16.036 21.7488 15.6551C22.1297 15.2741 22.3438 14.7575 22.3438 14.2188V12.1875H42.6562V14.2188C42.6562 14.7575 42.8703 15.2741 43.2512 15.6551C43.6321 16.036 44.1488 16.25 44.6875 16.25C45.2262 16.25 45.7429 16.036 46.1238 15.6551C46.5047 15.2741 46.7188 14.7575 46.7188 14.2188V12.1875H52.8125V20.3125H12.1875V12.1875H18.2812ZM52.8125 52.8125H12.1875V24.375H52.8125V52.8125ZM28.4375 30.4688V46.7188C28.4375 47.2575 28.2235 47.7741 27.8426 48.1551C27.4616 48.536 26.945 48.75 26.4062 48.75C25.8675 48.75 25.3509 48.536 24.9699 48.1551C24.589 47.7741 24.375 47.2575 24.375 46.7188V33.7543L23.2527 34.318C22.7706 34.559 22.2124 34.5987 21.701 34.4282C21.1896 34.2578 20.7669 33.8911 20.5258 33.409C20.2847 32.9268 20.245 32.3687 20.4155 31.8573C20.586 31.3458 20.9526 30.9231 21.4348 30.682L25.4973 28.6508C25.8071 28.4958 26.1514 28.4225 26.4974 28.4381C26.8435 28.4536 27.1798 28.5574 27.4745 28.7396C27.7691 28.9218 28.0123 29.1763 28.1808 29.479C28.3494 29.7816 28.4377 30.1223 28.4375 30.4688ZM43.4586 38.2002L38.5938 44.6875H42.6562C43.195 44.6875 43.7116 44.9015 44.0926 45.2824C44.4735 45.6634 44.6875 46.18 44.6875 46.7188C44.6875 47.2575 44.4735 47.7741 44.0926 48.1551C43.7116 48.536 43.195 48.75 42.6562 48.75H34.5312C34.154 48.75 33.7842 48.645 33.4634 48.4466C33.1425 48.2483 32.8831 47.9646 32.7144 47.6272C32.5457 47.2898 32.4743 46.912 32.5082 46.5363C32.5421 46.1606 32.6799 45.8018 32.9063 45.5L40.2137 35.7576C40.3799 35.5363 40.4991 35.2834 40.5641 35.0144C40.629 34.7454 40.6383 34.4659 40.5914 34.1932C40.5445 33.9205 40.4423 33.6602 40.2912 33.4284C40.14 33.1965 39.9431 32.998 39.7125 32.845C39.4819 32.692 39.2224 32.5878 38.9501 32.5387C38.6777 32.4895 38.3982 32.4966 38.1287 32.5594C37.8591 32.6222 37.6053 32.7394 37.3827 32.9038C37.1601 33.0683 36.9734 33.2765 36.8342 33.5156C36.7047 33.754 36.5289 33.964 36.3169 34.1333C36.105 34.3026 35.8613 34.4278 35.6003 34.5014C35.3392 34.575 35.066 34.5955 34.7969 34.5618C34.5277 34.5282 34.268 34.4409 34.0331 34.3052C33.7983 34.1696 33.5929 33.9882 33.4293 33.7719C33.2656 33.5556 33.1469 33.3087 33.0802 33.0458C33.0135 32.7828 33.0002 32.5092 33.0409 32.2411C33.0817 31.9729 33.1758 31.7156 33.3176 31.4844C33.9886 30.3232 35.0238 29.4159 36.2629 28.9029C37.502 28.39 38.8757 28.3001 40.1711 28.6472C41.4664 28.9943 42.6111 29.7591 43.4277 30.8229C44.2442 31.8867 44.6871 33.1902 44.6875 34.5312C44.6918 35.856 44.26 37.1453 43.4586 38.2002Z" fill="#FFB914"/>
</svg>
