<svg width="66" height="65" viewBox="0 0 66 65" fill="none" xmlns="http://www.w3.org/2000/svg">
<path d="M49.25 34.5312L53.1338 42.053L61.4375 43.2595L55.3438 48.75L56.9098 56.875L49.25 52.3047L41.5902 56.875L43.1562 48.75L37.0625 43.2595L45.5938 42.053L49.25 34.5312ZM12.6875 32.5H24.875V36.5625H12.6875V32.5ZM12.6875 24.375H33V28.4375H12.6875V24.375ZM12.6875 16.25H33V20.3125H12.6875V16.25Z" fill="#FFB914"/>
<path d="M33 52.8125H8.625V12.1875H57.375V32.5H61.4375V12.1875C61.4375 11.1101 61.0095 10.0767 60.2476 9.31488C59.4858 8.55301 58.4524 8.125 57.375 8.125H8.625C7.54756 8.125 6.51425 8.55301 5.75238 9.31488C4.99051 10.0767 4.5625 11.1101 4.5625 12.1875V52.8125C4.5625 53.8899 4.99051 54.9233 5.75238 55.6851C6.51425 56.447 7.54756 56.875 8.625 56.875H33V52.8125Z" fill="#FFB914"/>
</svg>
