<svg width="40" height="40" viewBox="0 0 40 40" fill="none" xmlns="http://www.w3.org/2000/svg">
<rect width="40" height="40" rx="20" fill="#FFB914"/>
<path d="M30.872 13.994L17.0238 27.8422C16.9032 27.9632 16.7599 28.0592 16.6021 28.1248C16.4443 28.1903 16.2751 28.224 16.1042 28.224C15.9334 28.224 15.7642 28.1903 15.6064 28.1248C15.4486 28.0592 15.3052 27.9632 15.1846 27.8422L9.12603 21.7836C9.00527 21.6628 8.90947 21.5194 8.84411 21.3617C8.77876 21.2039 8.74512 21.0348 8.74512 20.864C8.74512 20.6932 8.77876 20.5241 8.84411 20.3663C8.90947 20.2085 9.00527 20.0651 9.12603 19.9444C9.2468 19.8236 9.39016 19.7278 9.54795 19.6624C9.70574 19.5971 9.87485 19.5635 10.0456 19.5635C10.2164 19.5635 10.3855 19.5971 10.5433 19.6624C10.7011 19.7278 10.8445 19.8236 10.9652 19.9444L16.1053 25.0844L29.035 12.1569C29.2789 11.913 29.6097 11.776 29.9546 11.776C30.2995 11.776 30.6303 11.913 30.8742 12.1569C31.1181 12.4008 31.2551 12.7316 31.2551 13.0765C31.2551 13.4214 31.1181 13.7522 30.8742 13.9961L30.872 13.994Z" fill="white"/>
</svg>
