<?xml version="1.0" encoding="utf-8"?>
<!-- Generator: Adobe Illustrator 21.1.0, SVG Export Plug-In . SVG Version: 6.00 Build 0)  -->
<svg version="1.1" id="Слой_1" xmlns="http://www.w3.org/2000/svg" xmlns:xlink="http://www.w3.org/1999/xlink" x="0px" y="0px"
     viewBox="0 0 511 511" style="enable-background:new 0 0 511 511;" xml:space="preserve">
<style type="text/css">
	.st0{fill:#FFB914;}
</style>
    <g>
	<g>
		<g>
			<path class="st0" d="M255.5,5C117.4,5,5,117.4,5,255.5S117.4,506,255.5,506S506,393.6,506,255.5S393.6,5,255.5,5z M265.9,484.6
				v-30.8c0-5.8-4.7-10.4-10.4-10.4s-10.4,4.7-10.4,10.4v30.8C126.8,479.2,31.8,384.2,26.4,265.9h30.8c5.8,0,10.4-4.7,10.4-10.4
				s-4.7-10.4-10.4-10.4H26.4C31.8,126.8,126.8,31.8,245.1,26.4v30.8c0,5.8,4.7,10.4,10.4,10.4s10.4-4.7,10.4-10.4V26.4
				c118.3,5.4,213.3,100.4,218.7,218.7h-30.8c-5.8,0-10.4,4.7-10.4,10.4s4.7,10.4,10.4,10.4h30.8
				C479.2,384.2,384.2,479.2,265.9,484.6z"/>
            <path class="st0" d="M275.3,260.6c0.4-1.7,1-3.3,1-5.1c0-4.4-1.7-8.2-4-11.6L338,103.4c2.4-5.2,0.2-11.4-5-13.9
				c-5.2-2.4-11.4-0.2-13.9,5L253.5,235c-10.5,1-18.9,9.7-18.9,20.5c0,11.5,9.4,20.9,20.9,20.9c1.8,0,3.4-0.6,5.1-1l81.5,81.5
				c2,2,4.7,3.1,7.4,3.1s5.3-1,7.4-3.1c4.1-4.1,4.1-10.7,0-14.8L275.3,260.6z"/>
		</g>
	</g>
</g>
</svg>
