<?xml version="1.0" encoding="utf-8"?>
<!-- Generator: Adobe Illustrator 21.1.0, SVG Export Plug-In . SVG Version: 6.00 Build 0)  -->
<svg version="1.1" id="Layer_1" xmlns="http://www.w3.org/2000/svg" xmlns:xlink="http://www.w3.org/1999/xlink" x="0px" y="0px"
	 viewBox="0 0 512 512" style="enable-background:new 0 0 512 512;" xml:space="preserve">
<style type="text/css">
	.st0{fill:#2D2D2D;}
</style>
<g>
	<g>
		<g>
			<path class="st0" d="M256,0C114.8,0,0,114.8,0,256s114.8,256,256,256s256-114.8,256-256S397.2,0,256,0z M266.7,490.1v-31.5
				c0-5.9-4.8-10.7-10.7-10.7s-10.7,4.8-10.7,10.7v31.5c-120.9-5.5-218-102.6-223.5-223.5h31.5c5.9,0,10.7-4.8,10.7-10.7
				s-4.8-10.7-10.7-10.7H21.9c5.5-120.9,102.6-218,223.5-223.5v31.5c0,5.9,4.8,10.7,10.7,10.7s10.7-4.8,10.7-10.7V21.9
				c120.9,5.5,218,102.6,223.5,223.5h-31.5c-5.9,0-10.7,4.8-10.7,10.7s4.8,10.7,10.7,10.7h31.5C484.7,387.5,387.5,484.7,266.7,490.1
				z"/>
			<path class="st0" d="M276.3,261.2c0.4-1.7,1.1-3.4,1.1-5.2c0-4.5-1.7-8.4-4.1-11.8l67.1-143.7c2.5-5.3,0.2-11.7-5.2-14.2
				c-5.3-2.4-11.7-0.2-14.2,5.2l-67,143.6c-10.8,1.1-19.3,9.9-19.3,20.9c0,11.8,9.6,21.3,21.3,21.3c1.8,0,3.5-0.6,5.2-1.1l83.3,83.3
				c2.1,2.1,4.8,3.1,7.5,3.1s5.5-1,7.5-3.1c4.2-4.2,4.2-10.9,0-15.1L276.3,261.2z"/>
		</g>
	</g>
</g>
</svg>
