<?xml version="1.0" encoding="utf-8"?>
<!-- Generator: Adobe Illustrator 21.1.0, SVG Export Plug-In . SVG Version: 6.00 Build 0)  -->
<svg version="1.1" id="Слой_1" xmlns="http://www.w3.org/2000/svg" xmlns:xlink="http://www.w3.org/1999/xlink" x="0px" y="0px"
	 viewBox="0 0 496 496" style="enable-background:new 0 0 496 496;" xml:space="preserve">
<style type="text/css">
	.st0{fill:#2D2D2D;}
</style>
<g>
	<path class="st0" d="M475.6,328c2.8-4.7,4.4-10.1,4.4-16c0-15-10.4-27.5-24.3-31c-2.6-29.5-21.3-55.1-49.3-66.3L360,196.2v18.5
		c0,6-2,11.6-5.4,16.2l-47.9-54.7c-4.5-5.2-11.1-8.1-18-8.1c-8.2,0-15.7,4.2-20.1,11.1l-24.9-19.9l26-15.8c4.9-3,8.4-7.8,9.7-13.3
		c1.3-5.5,0.3-11.2-2.8-16.1c-2.1-3.4-5.2-6.1-8.8-7.8l-99.4-47.9c-7-3.4-15.2-3-21.8,1.1c-6.7,4.1-10.7,11.2-10.7,19v38.6l-59.3-20
		c-2.2-0.7-4.5-1.1-6.8-1.1c-12,0-21.8,9.8-21.8,21.8v1.6c0,0.6,0,1.3,0.1,2l7.8,86.2l-44.7,71.8c-2.1,3.4-3.2,7.3-3.2,11.3
		c0,1.9,0.3,3.6,0.8,5.4H0V322l40,80v38h408v-36.2c27.9-9.9,48-36.5,48-67.8v-8H475.6z M375.7,219.7l24.8,9.9
		c21.5,8.6,36.1,27.9,38.9,50.4H400v16h48c8.8,0,16,7.2,16,16s-7.2,16-16,16H320c-8.8,0-16-7.2-16-16s7.2-16,16-16h48v-16h-39.9
		c0.5-11.1,7.8-20.9,18.4-24.4C362.5,250.3,373.8,236.2,375.7,219.7z M294.7,186.7l46.9,53.6c-0.1,0-0.1,0.1-0.2,0.1
		c-17.5,5.8-29.4,22.2-29.4,40.7l0,0c-8.4,2.2-15.3,7.6-19.6,14.9h-25.1l5.4-5.4c4.7-4.7,7.3-10.9,7.3-17.6
		c0-8.3-4.1-16.1-11.1-20.7l-19.2-12.8l32.4-51.8C284.8,183.5,291.4,182.9,294.7,186.7z M164.8,279.4l-37.4-60l52.3-17.4
		c2.4-0.8,4.9-0.6,7.1,0.5c3.2,1.6,5.2,4.8,5.2,8.4v3.7c0,0.6,0,1.1-0.2,1.7L177.3,296h-10.1c0.5-1.7,0.8-3.5,0.8-5.4
		C168,286.7,166.9,282.8,164.8,279.4z M205.7,229.4l54.4,36.2c2.5,1.6,3.9,4.4,3.9,7.4c0,2.4-0.9,4.6-2.6,6.3L244.7,296h-51.1
		L205.7,229.4z M260.1,192.7l-23.7,37.9L208,211.7v-1c0-9.2-4.9-17.4-12.8-21.9l34-20.7L260.1,192.7z M152,78.3c0-2.2,1.1-4.1,3-5.3
		c1.1-0.7,2.3-1,3.6-1c1,0,2,0.2,3,0.7l99.4,47.9c0.9,0.5,1.7,1.1,2.2,2c0.7,1.2,1,2.5,0.7,3.8c-0.3,1.4-1.2,2.5-2.4,3.3
		l-100.9,61.5c-2.6,1.6-6.1,0.8-7.8-1.7c-0.5-0.8-0.8-1.8-0.8-2.7L152,78.3z M64,117.8c0-3.8,4-6.6,7.6-5.5l64.4,21.5v53
		c0,4,1.1,7.9,3.3,11.3c0.1,0.1,0.2,0.2,0.3,0.3l-20.9,7L107,186.6C102.9,180,95.8,176,88,176c-7.2,0-13.8,3.5-18,9.3l-6-66V117.8z
		 M24,290.7c0-1,0.3-2,0.8-2.8L82.6,195c1.2-1.9,3.2-3,5.4-3s4.3,1.1,5.4,3l57.8,92.8c0.5,0.9,0.8,1.8,0.8,2.8c0,3-2.4,5.4-5.4,5.4
		H29.4C26.4,296,24,293.6,24,290.7z M16,312h272c0,5.9,1.7,11.3,4.4,16H272v8c0,22.6,10.5,42.8,26.8,56H52.9L16,318.1V312z M56,408
		h264v16H56V408z M432,424h-96v-16.5c2.6,0.3,5.3,0.5,8,0.5h80c2.7,0,5.4-0.2,8-0.5V424z M424,392h-80c-28.2,0-51.5-20.9-55.4-48
		h190.9C475.5,371.1,452.2,392,424,392z"/>
	<circle class="st0" cx="120" cy="169.7" r="8.9"/>
	<circle class="st0" cx="88" cy="144" r="8.9"/>
	<circle class="st0" cx="88" cy="235.7" r="8.9"/>
	<circle class="st0" cx="114" cy="272" r="8.9"/>
	<circle class="st0" cx="61.3" cy="272" r="8.9"/>
	<circle class="st0" cx="165.3" cy="232" r="8.9"/>
	<circle class="st0" cx="224" cy="272" r="8.9"/>
	<circle class="st0" cx="232.9" cy="199.1" r="8.9"/>
	<circle class="st0" cx="293.6" cy="263.1" r="8.9"/>
	<circle class="st0" cx="284.6" cy="232" r="8.9"/>
</g>
<circle class="st0" cx="213.6" cy="135.1" r="8.9"/>
<circle class="st0" cx="174.2" cy="113.1" r="8.9"/>
</svg>
