<?xml version="1.0" encoding="utf-8"?>
<!-- Generator: Adobe Illustrator 21.1.0, SVG Export Plug-In . SVG Version: 6.00 Build 0)  -->
<svg version="1.1" id="Capa_1" xmlns="http://www.w3.org/2000/svg" xmlns:xlink="http://www.w3.org/1999/xlink" x="0px" y="0px"
	 viewBox="0 0 512 512" style="enable-background:new 0 0 512 512;" xml:space="preserve">
<style type="text/css">
	.st0{fill:#2D2D2D;}
</style>
<path class="st0" d="M423.4,207.8c-30.8-37.8-73.9-64.3-121.4-74.6c-3.7-0.8-6.5-4.3-6.5-8.2V95.2h0.5c13,0,23.5-10.6,23.5-23.5
	c0-12.7-10.1-23.1-22.7-23.5l5-30.1c0.8-4.5-0.5-9.1-3.5-12.6c-3-3.5-7.3-5.5-11.8-5.5h-61.2c-4.6,0-8.9,2-11.8,5.5
	s-4.2,8.1-3.5,12.6l5,30.1c-12.6,0.4-22.7,10.8-22.7,23.5c0,13,10.6,23.5,23.5,23.5h0.5v29.8c0,4-2.7,7.4-6.5,8.2
	c-47.4,10.3-90.5,36.8-121.4,74.6c-31.3,38.4-48.5,86.8-48.5,136.4c0,57.4,22.3,111.5,62.8,152.2c9.9,9.9,23.9,15.6,38.6,15.6h229
	c14.7,0,28.8-5.7,38.6-15.6c40.5-40.7,62.8-94.8,62.8-152.2C471.9,294.6,454.7,246.2,423.4,207.8L423.4,207.8z M225,15.2
	c0.2-0.2,0.3-0.2,0.4-0.2h61.2c0.1,0,0.2,0,0.4,0.2c0.2,0.2,0.1,0.4,0.1,0.4l-5.4,32.5h-51.4l-5.4-32.5
	C224.9,15.5,224.8,15.4,225,15.2L225,15.2z M207.4,71.6c0-4.7,3.8-8.5,8.5-8.5h72.1c0,0,0,0,0,0c0,0,0,0,0,0h8
	c4.7,0,8.5,3.8,8.5,8.5s-3.8,8.5-8.5,8.5h-80.2C211.2,80.2,207.4,76.3,207.4,71.6L207.4,71.6z M398.5,485.8
	c-7.1,7.1-17.3,11.2-28,11.2h-229c-10.7,0-20.9-4.1-28-11.2c-37.7-37.9-58.4-88.2-58.4-141.6c0-46.1,16-91.2,45.1-126.9
	c28.7-35.2,68.8-59.9,112.9-69.4c10.6-2.3,18.3-11.9,18.3-22.9V95.2h49.1v29.8c0,11,7.7,20.6,18.3,22.9
	c44.1,9.6,84.2,34.2,112.9,69.4c29.1,35.7,45.1,80.8,45.1,126.9C456.9,397.6,436.2,447.9,398.5,485.8z"/>
<path class="st0" d="M426.9,276.8L426.9,276.8c-1.1-2.8-3.8-4.7-7-4.7c-45.6,0-74.7,14-105.5,28.8c-36.5,17.6-74.3,35.8-146.6,35.8
	c-39.4,0-72.7-18.6-72.7-40.6s33.3-40.6,72.7-40.6c38.6,0,72.5,17.7,109.5,39.1c3.6,2.1,8.2,0.8,10.2-2.8c2.1-3.6,0.8-8.2-2.8-10.2
	c-39-22.5-74.7-41.1-117-41.1c-44.8,0-80.7,20.3-86.8,47.5c-5.9,18.2-8.9,37.1-8.9,56.2c0,48.9,19,94.9,53.5,129.6
	c3.9,3.9,9.7,6.2,15.9,6.2h10.3c4.1,0,7.5-3.4,7.5-7.5s-3.4-7.5-7.5-7.5h-10.3c-2.6,0-4.4-0.9-5.2-1.7
	c-31.7-31.9-49.1-74.1-49.1-119c0-7.9,0.6-15.8,1.7-23.6c14,18.6,43.8,31.1,79,31.1c75.8,0,116.9-19.8,153.1-37.2
	c29.2-14.1,54.6-26.3,93.9-27.3c6.7,18.4,10.1,37.5,10.1,57c0,44.9-17.4,87.2-49.1,119c-0.8,0.8-2.6,1.7-5.2,1.7H183.9
	c-4.1,0-7.5,3.4-7.5,7.5s3.4,7.5,7.5,7.5h186.6c6.2,0,12-2.2,15.9-6.1c34.5-34.7,53.5-80.7,53.5-129.6
	C439.9,321.1,435.5,298.4,426.9,276.8L426.9,276.8z"/>
<path class="st0" d="M223.9,207.4c1.9,0,3.8-0.7,5.3-2.2l8-8c2.9-2.9,2.9-7.7,0-10.6c-2.9-2.9-7.7-2.9-10.6,0l-8,8
	c-2.9,2.9-2.9,7.7,0,10.6C220.1,206.7,222,207.4,223.9,207.4L223.9,207.4z"/>
<path class="st0" d="M320.6,256c0,4.1,3.4,7.5,7.5,7.5h8c4.1,0,7.5-3.4,7.5-7.5s-3.4-7.5-7.5-7.5h-8
	C324,248.5,320.6,251.9,320.6,256z"/>
<path class="st0" d="M392.3,343.7c1.9,0,3.8-0.7,5.3-2.2c2.9-2.9,2.9-7.7,0-10.6l-8-8c-2.9-2.9-7.7-2.9-10.6,0
	c-2.9,2.9-2.9,7.7,0,10.6l8,8C388.4,342.9,390.4,343.7,392.3,343.7L392.3,343.7z"/>
<path class="st0" d="M138.5,379l-8,8c-2.9,2.9-2.9,7.7,0,10.6c1.5,1.5,3.4,2.2,5.3,2.2s3.8-0.7,5.3-2.2l8-8c2.9-2.9,2.9-7.7,0-10.6
	C146.1,376,141.4,376,138.5,379L138.5,379z"/>
<path class="st0" d="M287.5,432.4v-8c0-4.1-3.4-7.5-7.5-7.5s-7.5,3.4-7.5,7.5v8c0,4.1,3.4,7.5,7.5,7.5S287.5,436.5,287.5,432.4z"/>
<path class="st0" d="M152.3,296.1c0,13,10.6,23.5,23.5,23.5s23.5-10.6,23.5-23.5s-10.6-23.5-23.5-23.5S152.3,283.1,152.3,296.1z
	 M184.4,296.1c0,4.7-3.8,8.5-8.5,8.5s-8.5-3.8-8.5-8.5s3.8-8.5,8.5-8.5S184.4,291.4,184.4,296.1z"/>
<path class="st0" d="M304.1,231.4c13,0,23.5-10.6,23.5-23.5s-10.6-23.5-23.5-23.5s-23.5,10.6-23.5,23.5S291.1,231.4,304.1,231.4z
	 M304.1,199.4c4.7,0,8.5,3.8,8.5,8.5s-3.8,8.5-8.5,8.5s-8.5-3.8-8.5-8.5S299.4,199.4,304.1,199.4z"/>
<path class="st0" d="M351.7,372.2c0-15.2-12.4-27.5-27.5-27.5s-27.5,12.4-27.5,27.5s12.4,27.5,27.5,27.5
	C339.3,399.8,351.7,387.4,351.7,372.2L351.7,372.2z M311.6,372.2c0-6.9,5.6-12.5,12.5-12.5c6.9,0,12.5,5.6,12.5,12.5
	s-5.6,12.5-12.5,12.5C317.2,384.8,311.6,379.1,311.6,372.2z"/>
<path class="st0" d="M239.5,400.3c0-13-10.6-23.5-23.5-23.5s-23.5,10.6-23.5,23.5s10.6,23.5,23.5,23.5S239.5,413.3,239.5,400.3z
	 M207.4,400.3c0-4.7,3.8-8.5,8.5-8.5s8.5,3.8,8.5,8.5s-3.8,8.5-8.5,8.5S207.4,405,207.4,400.3z"/>
</svg>
