<?xml version="1.0" encoding="utf-8"?>
<!-- Generator: Adobe Illustrator 21.1.0, SVG Export Plug-In . SVG Version: 6.00 Build 0)  -->
<svg version="1.1" id="Слой_1" xmlns="http://www.w3.org/2000/svg" xmlns:xlink="http://www.w3.org/1999/xlink" x="0px" y="0px"
	 viewBox="0 0 512 512" style="enable-background:new 0 0 512 512;" xml:space="preserve">
<style type="text/css">
	.st0{fill:#2D2D2D;}
</style>
<path class="st0" d="M496.5,328.4h-8.6c0-0.2,0-0.3,0-0.5v-32.1c0-8.6-7-15.5-15.5-15.5H459l4-2.7c7.1-4.8,8.9-14.5,4-21.6
	l-9.1-13.2c-2.3-3.4-5.9-5.7-10-6.5c-4.1-0.8-8.2,0.1-11.6,2.5l-12.5,8.6v-65.5c9.3-3.1,16-11.9,16-22.3c0-13-10.6-23.5-23.5-23.5
	c-13,0-23.5,10.6-23.5,23.5c0,10.4,6.7,19.2,16,22.3v68.9l-16.9-6.9c-7.9-3.2-17,0.6-20.2,8.5l-6.1,14.8c-1.6,3.8-1.5,8.1,0.1,11.9
	c0.2,0.4,0.4,0.9,0.6,1.3h-6.1c-8.6,0-15.5,7-15.5,15.5v32.1c0,0.2,0,0.3,0,0.5h-17.1c0-0.2,0-0.3,0-0.5v-32.1
	c0-7.9-5.9-14.4-13.6-15.4l11.4-11.4c2.9-2.9,2.9-7.7,0-10.6c-2.9-2.9-7.7-2.9-10.6,0l-11.3,11.3c-1-11.4-10.1-20.5-21.5-21.5
	l3.3-3.3c2.9-2.9,2.9-7.7,0-10.6c-2.9-2.9-7.7-2.9-10.6,0l-9.9,9.9c-0.4-0.5-0.9-1.1-1.3-1.6v-60.9c9.3-3.1,16-11.9,16-22.3
	c0-13-10.6-23.5-23.5-23.5c-13,0-23.5,10.6-23.5,23.5c0,10.4,6.7,19.2,16,22.3v51.5c-2.7-0.8-5.6-1.2-8.5-1.2
	c-17.4,0-31.5,14.2-31.5,31.5c0,2.3,0.3,4.5,0.7,6.7l-20-20c-2.9-2.9-7.7-2.9-10.6,0c-2.9,2.9-2.9,7.7,0,10.6l19.4,19.4
	c-7.6,1-13.6,7.5-13.6,15.4v32.1c0,0.2,0,0.3,0,0.5h-17.1c0-0.2,0-0.3,0-0.5v-32.1c0-8.5-7-15.5-15.5-15.5h-13.5l4-2.7
	c7.1-4.8,8.9-14.5,4-21.6l-9.1-13.2c-2.3-3.4-5.9-5.7-10-6.5c-4.1-0.8-8.2,0.1-11.6,2.5l-12.5,8.6v-65.5c9.3-3.1,16-11.9,16-22.3
	c0-13-10.6-23.5-23.5-23.5c-13,0-23.5,10.6-23.5,23.5c0,10.4,6.7,19.2,16,22.3v68.9l-16.9-6.9c-7.9-3.2-17,0.6-20.2,8.5L45,267.1
	c-1.6,3.8-1.5,8.1,0.1,11.9c0.2,0.4,0.4,0.9,0.6,1.3h-6.1c-8.5,0-15.5,7-15.5,15.5v32.1c0,0.2,0,0.3,0,0.5h-8.6
	c-8.6,0-15.5,7-15.5,15.5v16c0,8.6,7,15.5,15.5,15.5h481c8.6,0,15.5-7,15.5-15.5v-16C512,335.4,505,328.4,496.5,328.4z M444.8,251.1
	c0,0,0.2-0.1,0.4-0.1c0.2,0,0.3,0.2,0.3,0.2l9.1,13.2c0.2,0.2,0.1,0.6-0.1,0.7l-22,15.1h-26.6l-0.8-1.2c-0.2-0.2-0.1-0.6,0.1-0.7
	L444.8,251.1z M416.3,151c4.7,0,8.5,3.8,8.5,8.5c0,4.7-3.8,8.5-8.5,8.5c-4.7,0-8.5-3.8-8.5-8.5C407.8,154.8,411.6,151,416.3,151z
	 M379.6,272.8l6.1-14.8c0.1-0.3,0.4-0.4,0.7-0.3l14.1,5.7l-3.7,2.5c-3.4,2.3-5.7,5.9-6.5,10c-0.1,0.6-0.2,1.1-0.2,1.7l-10.1-4.1
	C379.6,273.4,379.4,273.1,379.6,272.8z M288.6,271.8c0,4.7-3.8,8.5-8.5,8.5c-4.7,0-8.5-3.8-8.5-8.5c0-4.7,3.8-8.5,8.5-8.5
	C284.8,263.2,288.6,267.1,288.6,271.8z M256,151c4.7,0,8.5,3.8,8.5,8.5c0,4.7-3.8,8.5-8.5,8.5s-8.5-3.8-8.5-8.5
	C247.5,154.8,251.3,151,256,151z M240,247.2c9.1,0,16.5,7.4,16.5,16.5s-7.4,16.6-16.5,16.6s-16.5-7.4-16.5-16.6
	S230.8,247.2,240,247.2z M199.4,327.9v-32.1c0-0.3,0.2-0.5,0.5-0.5h30l-3.2,3.2c-2.9,2.9-2.9,7.7,0,10.6c1.5,1.5,3.4,2.2,5.3,2.2
	c1.9,0,3.8-0.7,5.3-2.2l13.8-13.8h61c0.3,0,0.5,0.2,0.5,0.5v32.1c0,0.3-0.2,0.5-0.5,0.5h-27.4l-5.9-11.9c-1.9-3.7-6.4-5.2-10.1-3.4
	c-3.7,1.9-5.2,6.4-3.4,10.1l2.6,5.2h-68C199.6,328.4,199.4,328.2,199.4,327.9z M124.2,251.1c0,0,0.2-0.1,0.4-0.1
	c0.2,0,0.3,0.2,0.3,0.2l9.1,13.2c0.2,0.2,0.1,0.6-0.1,0.7l-22,15.1H85.2l-0.8-1.2c-0.2-0.2-0.1-0.6,0.1-0.7L124.2,251.1z M95.7,151
	c4.7,0,8.5,3.8,8.5,8.5c0,4.7-3.8,8.5-8.5,8.5c-4.7,0-8.5-3.8-8.5-8.5C87.1,154.8,91,151,95.7,151z M58.9,272.8L65,258
	c0.1-0.3,0.4-0.4,0.7-0.3l14.1,5.7L76,266c-4,2.8-6.3,7.1-6.7,11.7l-10.1-4.1C58.9,273.4,58.8,273.1,58.9,272.8z M39,327.9v-32.1
	c0-0.3,0.2-0.5,0.5-0.5h19.9l-2.6,5.2c-1.9,3.7-0.4,8.2,3.4,10.1c1.1,0.5,2.2,0.8,3.3,0.8c2.8,0,5.4-1.5,6.7-4.1l5.9-11.9h5h0h0
	h32.9h0h1.4l-2.6,5.2c-1.9,3.7-0.4,8.2,3.4,10.1c1.1,0.5,2.2,0.8,3.4,0.8c2.8,0,5.4-1.5,6.7-4.1l5.9-11.9h19.4
	c0.3,0,0.5,0.2,0.5,0.5v32.1c0,0.3-0.2,0.5-0.5,0.5h-45L93,314.6c-2.9-2.9-7.7-2.9-10.6,0c-2.9,2.9-2.9,7.7,0,10.6l3.2,3.2h-46
	C39.3,328.4,39,328.2,39,327.9z M497,359.9c0,0.3-0.2,0.5-0.5,0.5h-481c-0.3,0-0.5-0.2-0.5-0.5v-16c0-0.3,0.2-0.5,0.5-0.5h352.7
	c4.1,0,7.5-3.4,7.5-7.5c0-4.1-3.4-7.5-7.5-7.5h-8c-0.3,0-0.5-0.2-0.5-0.5v-32.1c0-0.3,0.2-0.5,0.5-0.5h19.4l5.9,11.9
	c1.3,2.6,4,4.1,6.7,4.1c1.1,0,2.3-0.3,3.3-0.8c3.7-1.9,5.2-6.4,3.4-10.1l-2.6-5.2h5.5h0h0h24.4l-8.3,12.4c-2.3,3.4-1.4,8.1,2.1,10.4
	c1.3,0.9,2.7,1.3,4.2,1.3c2.4,0,4.8-1.2,6.2-3.3l13.8-20.7h28.1c0.3,0,0.5,0.2,0.5,0.5v32.1c0,0.3-0.2,0.5-0.5,0.5h-11.9l2.6-5.2
	c1.9-3.7,0.4-8.2-3.4-10.1c-3.7-1.9-8.2-0.4-10.1,3.4l-5.9,11.9h-43.5c-4.1,0-7.5,3.4-7.5,7.5c0,4.1,3.4,7.5,7.5,7.5h96.2
	c0.3,0,0.5,0.2,0.5,0.5V359.9z"/>
</svg>
