<?xml version="1.0" encoding="utf-8"?>
<!-- Generator: Adobe Illustrator 21.1.0, SVG Export Plug-In . SVG Version: 6.00 Build 0)  -->
<svg version="1.1" id="Capa_1" xmlns="http://www.w3.org/2000/svg" xmlns:xlink="http://www.w3.org/1999/xlink" x="0px" y="0px"
	 viewBox="0 0 512 512" style="enable-background:new 0 0 512 512;" xml:space="preserve">
<style type="text/css">
	.st0{fill:#FFB914;}
</style>
<g>
	<path class="st0" d="M502.1,305.1l-17.9-17.8c-6.4-6.3-14.8-9.8-23.8-9.8c-5.8,0-11.3,1.4-16.2,4.1L410.6,248l1.6-1.6
		c13.6-13.7,13.6-35.9,0-49.5c-4.9-4.9-11-8.1-17.6-9.5c0.9-3.2,1.4-6.5,1.4-9.8c0-9.4-3.6-18.2-10.2-24.8c-4.9-4.9-11-8.1-17.6-9.5
		c0.9-3.2,1.4-6.5,1.4-9.8c0-9.4-3.6-18.2-10.3-24.8c-5-5-11.1-8.1-17.6-9.5c3.4-11.9,0.5-25.3-8.9-34.6c-7.8-7.8-18.3-11.1-28.5-10
		l-66.7-12.6c-10.2-1.9-22.9-3.2-30.9,4.1c-0.5,0.5-1,1-1.5,1.6c-12.4-4.5-26.9-1.8-36.9,8.1c-6.6,6.6-10.2,15.4-10.2,24.8
		c0,3.4,0.5,6.7,1.4,9.8c-6.6,1.4-12.7,4.6-17.6,9.5c-6.6,6.6-10.3,15.4-10.3,24.7c0,3.4,0.5,6.7,1.4,9.9
		c-6.6,1.4-12.7,4.6-17.6,9.5c-6.6,6.6-10.3,15.4-10.3,24.8c0,7.2,2.1,14,6.1,19.8c-5,1.7-9.6,4.5-13.5,8.4
		c-13.7,13.6-13.7,35.9,0,49.6l1.6,1.6l-33.6,33.6c-12.5-5.9-27.9-3.7-38.2,6.6L9.9,306C3.5,312.3,0,320.8,0,329.8
		c0,9,3.5,17.5,9.9,23.8l22.3,22.3c3.9,3.9,10.3,3.9,14.3,0c3.9-3.9,3.9-10.3,0-14.3l-22.3-22.3c-2.5-2.5-3.9-5.9-3.9-9.5
		c0-3.6,1.4-7,3.9-9.5L42,302.5c4.5-4.5,11.3-5.1,16.5-2c0.4,0.5,0.8,1.1,1.3,1.6c0.9,0.9,1.9,1.5,2.9,2l102.5,102.3
		c0.5,1.1,1.2,2.1,2,2.9c0.8,0.8,1.8,1.5,2.8,2c2.2,2.4,3.4,5.6,3.4,8.9c0,3.6-1.4,7-3.9,9.5l-17.8,17.8c-5.3,5.3-13.9,5.2-19.1,0
		l-22.3-22.3c-3.9-3.9-10.3-3.9-14.3,0c-3.9,3.9-3.9,10.3,0,14.3l22.3,22.3c6.6,6.5,15.2,9.8,23.8,9.8c8.6,0,17.3-3.3,23.8-9.8
		l17.9-17.8c6.4-6.3,9.9-14.8,9.9-23.8c0-6.4-1.8-12.6-5.1-17.9l37.9-37.8c0,0,0.1-0.1,0.1-0.1c4.3-4.5,16.4-3.6,28.1-2.8
		c8.3,0.6,17.5,1.2,26.6,0.2l41.5,41.4c-2.7,4.9-4.1,10.4-4.1,16.2c0,9,3.5,17.5,9.9,23.8l17.9,17.8c6.4,6.3,14.8,9.8,23.8,9.8
		c9,0,17.5-3.5,23.8-9.8l108.3-108.2c6.4-6.3,9.9-14.8,9.9-23.8C512,319.9,508.5,311.4,502.1,305.1L502.1,305.1z M233.9,61.7
		l43.8,8.3l-26.2,26.2c-4.1-2-9.6-5.6-15.7-11.4c-8.4-8-14.3-17.2-14.9-23c0,0,0,0,0,0c0,0,0,0,0,0c0-0.4,0-0.7,0-1
		C222.2,60.5,225.7,60.1,233.9,61.7L233.9,61.7z M182.7,69.9c5.1-5.1,13.1-5.7,18.9-1.8c3.3,13.7,15,26.2,20.3,31.3
		c3.9,3.7,16.5,15,29.1,18c1.7,2.5,2.6,5.4,2.6,8.5c0,4-1.5,7.7-4.3,10.5c-2.8,2.8-6.5,4.3-10.5,4.3c-4,0-7.7-1.5-10.5-4.3l0,0l0,0
		l-45.6-45.5c-2.8-2.8-4.3-6.5-4.3-10.5C178.4,76.4,179.9,72.7,182.7,69.9L182.7,69.9z M156.3,114c2.8-2.8,6.5-4.3,10.5-4.3
		c4,0,7.7,1.5,10.5,4.3l36.7,36.6c5.8,5.8,5.8,15.2,0,21c-2.8,2.8-6.5,4.3-10.5,4.3c-4,0-7.7-1.5-10.5-4.3l0,0l-27.8-27.8
		c0,0-0.1-0.1-0.1-0.1l-8.7-8.7c-2.8-2.8-4.3-6.5-4.3-10.5C152,120.5,153.5,116.8,156.3,114L156.3,114z M129.8,158.1
		c2.8-2.8,6.5-4.3,10.5-4.3c4,0,7.7,1.5,10.4,4.2l27.9,27.9c2.8,2.8,4.3,6.5,4.3,10.5c0,4-1.5,7.7-4.3,10.5
		c-2.8,2.8-6.5,4.3-10.5,4.3c-4,0-7.7-1.5-10.5-4.3l-10.1-10.1c0,0,0,0,0,0l-17.7-17.7c-2.8-2.8-4.3-6.5-4.3-10.5
		C125.5,164.6,127,160.9,129.8,158.1L129.8,158.1z M112.2,211.1c2.8-2.8,6.5-4.3,10.5-4.3c4,0,7.7,1.5,10.5,4.3l10.1,10.1
		c2.8,2.8,4.3,6.5,4.3,10.5c0,4-1.5,7.7-4.3,10.5c-2.8,2.8-6.5,4.3-10.5,4.3c-4,0-7.7-1.5-10.5-4.3l-1.3-1.3c0,0,0,0,0-0.1
		c0,0,0,0-0.1-0.1l-8.8-8.7C106.5,226.3,106.5,216.9,112.2,211.1L112.2,211.1z M318.2,325.9c-3.9-3.9-10.3-4-14.3,0l-9,9
		c-8.5,8.5-24,7.5-39,6.4c-16.3-1.1-33.1-2.3-43.9,8.9l-37.2,37.2l-93.1-93l32.9-32.9c5.4,3.3,11.7,5.1,18.3,5.1
		c9.4,0,18.2-3.6,24.8-10.2c6.6-6.6,10.3-15.4,10.3-24.8c0-0.1,0-0.2,0-0.3c0.1,0,0.2,0,0.3,0c9.4,0,18.2-3.6,24.8-10.2
		c6.6-6.6,10.3-15.4,10.3-24.8c0-0.1,0-0.2,0-0.3c0.1,0,0.2,0,0.3,0c9.4,0,18.2-3.6,24.8-10.2c6.9-6.9,10.3-16,10.2-25
		c0.1,0,0.2,0,0.3,0c9.4,0,18.2-3.6,24.8-10.2c6.6-6.6,10.2-15.4,10.2-24.8c0-6.6-1.8-12.8-5.1-18.3l28.9-28.9
		c2.2-2.1,4.8-3.5,7.6-4c0.3,0,0.6-0.1,0.9-0.1c4.5-0.6,9.1,0.8,12.6,4.2c5.8,5.8,5.8,15.2,0,21l-8.8,8.8c0,0-0.1,0.1-0.1,0.1
		l-10.1,10.1c-3.9,3.9-4,10.3,0,14.3c3.9,3.9,10.3,4,14.3,0l8.8-8.8c0,0,0,0,0,0l1.3-1.3c5.8-5.7,15.2-5.7,21,0.1
		c2.8,2.8,4.3,6.5,4.3,10.5c0,4-1.5,7.7-4.3,10.5l-8.8,8.9l0,0l-10.1,10.1c-4,3.9-4,10.3,0,14.3c3.9,4,10.3,4,14.3,0l10.2-10.1
		c2.8-2.8,6.5-4.3,10.5-4.3c4,0,7.7,1.5,10.5,4.3c2.8,2.8,4.3,6.5,4.3,10.5c0,4-1.5,7.7-4.3,10.5l-17.6,17.6
		c-3.9,3.9-3.9,10.3,0,14.3c2,2,4.6,3,7.1,3c2.6,0,5.2-1,7.1-3l8.6-8.6c0,0,0.1-0.1,0.2-0.1c2.8-2.8,6.5-4.3,10.5-4.3
		c4,0,7.7,1.5,10.5,4.3c5.8,5.8,5.8,15.2,0,20.9l-8.8,8.8c0,0,0,0,0,0s0,0,0,0l-13.9,13.9c-3.9,3.9-4,10.3,0,14.3c2,2,4.6,3,7.2,3
		c2.6,0,5.2-1,7.1-3l6.8-6.8l32.7,32.7l-93.1,93l-33.4-33.3c2.3-1.5,4.5-3.3,6.6-5.3l9-9C322.1,336.3,322.1,329.9,318.2,325.9
		L318.2,325.9z M487.9,338.5L379.5,446.6c-2.5,2.5-5.9,3.9-9.6,3.9c-3.6,0-7-1.4-9.6-3.9l-17.9-17.8c-2.5-2.5-3.9-5.9-3.9-9.5
		c0-3.6,1.4-7,3.9-9.5l108.3-108.2c2.5-2.5,5.9-3.9,9.6-3.9c3.6,0,7,1.4,9.6,3.9l17.9,17.8c2.5,2.5,3.9,5.9,3.9,9.5
		C491.8,332.5,490.4,335.9,487.9,338.5z"/>
	<path class="st0" d="M62.1,392.6c-3.9,4-3.9,10.4,0.1,14.3l0,0c2,1.9,4.5,2.9,7.1,2.9c2.6,0,5.2-1,7.2-3c3.9-4,3.8-10.4-0.1-14.3
		C72.5,388.6,66.1,388.6,62.1,392.6z"/>
	<path class="st0" d="M342.9,311.4c1.5,0,3.1-0.4,4.6-1.1c5-2.5,7-8.6,4.5-13.6c-2.5-5-8.6-7-13.6-4.5l-0.1,0c-5,2.5-7,8.6-4.4,13.6
		C335.6,309.4,339.2,311.4,342.9,311.4L342.9,311.4z"/>
</g>
</svg>
