<?xml version="1.0" encoding="utf-8"?>
<!-- Generator: Adobe Illustrator 21.1.0, SVG Export Plug-In . SVG Version: 6.00 Build 0)  -->
<svg version="1.1" id="Слой_1" xmlns="http://www.w3.org/2000/svg" xmlns:xlink="http://www.w3.org/1999/xlink" x="0px" y="0px"
	 viewBox="0 0 480 480" style="enable-background:new 0 0 480 480;" xml:space="preserve">
<style type="text/css">
	.st0{fill:#FFB914;}
</style>
<g>
	<g>
		<path class="st0" d="M186.1,329.5c-3.6-2.6-8.6-1.7-11.2,1.9L142.4,377c-1.2,1.7-1.7,3.9-1.4,6c0.4,2.1,1.5,4,3.3,5.2l45.6,32.5
			c1.4,1,3,1.5,4.6,1.5c0.4,0,0.9,0,1.3-0.1c2.1-0.4,4-1.5,5.2-3.2l32.5-45.6c1.2-1.7,1.7-3.9,1.4-6c-0.4-2.1-1.5-4-3.3-5.2
			L186.1,329.5z M192.7,403l-32.6-23.2l23.2-32.6l32.6,23.2L192.7,403z"/>
		<path class="st0" d="M294.2,328c0.9,0,1.8-0.2,2.7-0.5l52.8-18.7c4.2-1.5,6.3-6,4.9-10.2l-18.7-52.8c-1.5-4.2-6-6.3-10.2-4.9
			l-52.8,18.7c-4.2,1.5-6.3,6-4.9,10.2l18.7,52.8C287.8,325.9,290.9,328,294.2,328z M323.5,258.7l13.4,37.7l-37.7,13.4l-13.4-37.7
			L323.5,258.7z"/>
		<path class="st0" d="M218.4,223.5c-2.2-3.8-7.1-5.1-10.9-2.9l-48.5,28c-1.8,1.1-3.2,2.8-3.7,4.9c-0.6,2.1-0.3,4.2,0.8,6.1l28,48.5
			c1.1,1.8,2.8,3.2,4.9,3.7c2.1,0.6,4.2,0.3,6.1-0.8l48.5-28c3.8-2.2,5.1-7.1,2.9-10.9L218.4,223.5z M194,293.1l-20-34.6l34.6-20
			l20,34.6L194,293.1z"/>
		<path class="st0" d="M456.1,390.3l-5.9-1c-8.8-14.8-22.5-25.9-38.8-31.5c5.3-25.1,1.6-51.3-10.4-74l-5.7-10.8
			c-2.6-4.9-5.1-9.9-7.4-14.9c-1-2.2-2-4.4-3-6.7c-1.2-2.6-2.3-5.3-3.5-8c-1.3-3-2.5-6.1-3.7-9.2c-0.6-1.6-1.2-3.1-1.7-4.7
			c-8.3-22.6-14.2-46-17.7-69.8v-0.1c-1.4-9.2-2.5-18.5-3.1-27.9l-1.4-21.8c-0.7-9.9,4.7-19.2,13.5-23.6
			c20.3-10.1,33.1-30.8,33-53.5c0-4.4-3.5-7.9-7.9-8h-5.1c-39.3-0.5-79.2,0.9-118.4,4.3l-67.3,5.7C191.4,9.6,164.5-4.5,137.8,1.3
			s-45.2,30-43.9,57.2c1.2,27.2,21.9,49.6,48.9,53l-1.1,16.5H80.8C61,128.1,43.2,140.3,36,158.8L5.7,237.7
			c-5.7,14.8-2.1,31.5,9.1,42.6l69.1,69.1c2.4,18.9,9.6,36.8,21,52.1l33.1,44.1c0.3,0.3,0.7,0.6,1.1,0.9V472c0,4.4,3.6,8,8,8h228
			v-0.2c1,0,2.1,0.2,3.1,0.2c31.5,0,59.3-14.5,72.1-37.3l5.9-1c12.6-2.1,21.8-12.9,21.8-25.7S468.7,392.4,456.1,390.3z M205.6,50.5
			l64.7-5.5c37.5-3.2,75.6-4.7,113.3-4.2c-2.4,13.6-11.2,25.2-23.5,31.3c-14.6,7.3-23.4,22.7-22.3,39l1.4,21.8
			c0.4,6.7,1.1,13.4,1.9,20.1H273c0.2-2.7-1-5.3-3.2-6.9l-45.6-32.5c-3.6-2.6-8.6-1.7-11.2,1.9L186.3,153h-30.8
			c0.8-6.7,1.5-13.4,1.9-20.1l1.4-21.6c27.1-4.4,47-27.8,47-55.2C205.9,54.2,205.8,52.4,205.6,50.5z M205.9,152.9l15.4-21.6
			l30.5,21.7L205.9,152.9z M243.6,168.9L230.8,187l-25.4-18.1H243.6z M189.5,51.9c0.2,1.4,0.4,2.7,0.4,4.1
			c-0.1,18.1-12.3,34-29.9,38.5l0.3-5.2c0.1-1.2-0.1-2.4-0.6-3.5l-8.2-20.4c-0.9-2.3-0.7-4.9,0.5-7c1.3-2.1,3.4-3.6,5.9-3.9
			L189.5,51.9z M109.9,56c-0.1-18.1,12.1-34,29.7-38.7s36,3.1,44.9,18.9l-28,2.4c-7.5,0.8-14.1,5.1-18,11.5s-4.5,14.3-1.7,21.3
			l7.5,18.7l-0.4,5.3C124.4,92.5,109.9,75.8,109.9,56z M83.3,326.3L26.1,269c-6.7-6.7-8.8-16.7-5.4-25.6L51,164.5
			c4.8-12.3,16.6-20.4,29.9-20.5h59.5c-0.5,5.2-1.2,10.4-1.9,15.6v0.1l-0.1,0.3h-41C80.8,160.1,66,170.2,60,185.6l-17,44.1
			c-5.7,14.8-2.1,31.5,9,42.6L86.6,307C85,313.3,83.9,319.8,83.3,326.3z M92.5,290.2l-29.1-29.1c-6.7-6.7-8.8-16.7-5.4-25.6l17-44.1
			c3.6-9.2,12.5-15.3,22.4-15.4h38.2c-3.5,18.2-8.5,36-14.9,53.4c-0.6,1.6-1.2,3.3-1.8,4.9c-1.2,3-2.3,6-3.6,9
			c-1.1,2.7-2.3,5.4-3.5,8.2c-1,2.2-1.9,4.4-2.9,6.5c-2.4,5-4.8,10-7.4,15l-5.7,10.8C94.5,285.9,93.5,288.1,92.5,290.2z
			 M117.7,391.9c-21.8-29.2-24.9-68.4-7.9-100.7l5.7-10.8c2.7-5.1,5.2-10.2,7.7-15.4c1-2,1.9-4.1,2.8-6.1c1.3-3,2.6-6,3.9-9
			c1.2-2.8,2.3-5.5,3.4-8.3c0.7-1.8,1.3-3.5,2-5.3c8.2-21.9,14.2-44.4,18-67.5h26.6c0.5,1.3,1.4,2.4,2.5,3.3l45.6,32.5
			c1.4,1,3,1.5,4.6,1.5c0.4,0,0.9,0,1.3-0.1c2.1-0.4,4-1.5,5.2-3.2l24.1-33.9h80.2c3.9,23.1,9.9,45.8,18.2,67.8
			c0.6,1.6,1.2,3.2,1.8,4.8c1.1,2.9,2.3,5.8,3.5,8.6c1.2,2.9,2.5,5.8,3.7,8.6c1,2.1,1.9,4.3,2.9,6.4c2.4,5.2,4.9,10.3,7.6,15.3
			l5.7,10.8c10.2,19.2,13.4,41.2,9.1,62.5C390,352.6,384,352,378,352c-30.9,0-58.5,14.2-71.6,36.4l-11.5,1.9
			c-9.1,1.5-16.7,7.6-20,16.2s-1.9,18.2,3.8,25.5h-131L117.7,391.9z M155,464v-15.2h155.2c4.3,5.8,9.5,10.9,15.4,15.2H155z
			 M453.5,425.9l-9.8,1.6c-2.6,0.4-4.8,2.1-5.9,4.5c-9,19.1-33,32-59.6,32c-26.2,0-50-12.5-59.3-31.2c-1.1-2.3-3.3-3.9-5.8-4.3
			l-15.3-2.6c-4.9-0.8-8.4-5-8.4-9.9s3.6-9.1,8.4-9.9l15.3-2.6c2.5-0.4,4.7-2,5.8-4.3c9.3-18.7,33.1-31.2,59.3-31.2
			c26.6,0,50.6,12.9,59.6,32c1.1,2.4,3.3,4.1,5.9,4.5l9.8,1.6c4.9,0.8,8.4,5,8.4,9.9S458.3,425.1,453.5,425.9L453.5,425.9z"/>
		<circle class="st0" cx="414" cy="418.3" r="8"/>
		<circle class="st0" cx="394.5" cy="396.3" r="8"/>
		<circle class="st0" cx="394.5" cy="438.3" r="8"/>
	</g>
</g>
</svg>
