<?xml version="1.0" encoding="utf-8"?>
<!-- Generator: Adobe Illustrator 21.1.0, SVG Export Plug-In . SVG Version: 6.00 Build 0)  -->
<svg version="1.1" id="Capa_1" xmlns="http://www.w3.org/2000/svg" xmlns:xlink="http://www.w3.org/1999/xlink" x="0px" y="0px"
	 viewBox="0 0 512 512" style="enable-background:new 0 0 512 512;" xml:space="preserve">
<style type="text/css">
	.st0{fill:#FFB914;}
	.st1{fill:none;stroke:#FFB914;stroke-width:16;stroke-linecap:round;stroke-linejoin:round;stroke-miterlimit:10;}
</style>
<path class="st0" d="M177.3,164.4L39,127c-2.2-0.6-4.5-0.9-6.8-0.9c-12.9-0.1-23.8,9.5-25.5,22.2s6.4,24.8,18.8,28.1L160.9,213
	c0.5,41.9,28.8,78.5,69.2,89.5L362,338.1c24,6.5,49.7,3.2,71.3-9.2c21.6-12.4,37.4-32.9,43.8-56.9l3.3-12.4
	c3.5-12.8-10-26.1-42.4-42c-33.5-15.6-68.3-28.1-104.1-37.4C320,176.4,211.8,148,177.3,164.4z M30,160c-4.5-1.2-7.2-5.9-6-10.5
	c1.2-4.6,5.9-7.2,10.5-6l131.8,35.6l-2.2,8.2c-0.8,2.8-1.3,5.6-1.8,8.4L30,160z M366.4,321.6L234.6,286c-23.2-6.3-42.1-23.1-51-45.5
	c17.7,10.2,36.3,18.8,55.5,25.7c1,0.4,2,0.5,3,0.5c4.1,0,7.7-3,8.4-7c0.7-4.1-1.5-8.1-5.4-9.5c-32.5-12.2-56.8-24.8-66.8-34.5
	c-0.1-0.1-0.2-0.1-0.3-0.2c-0.3-5.8,0.1-11.6,1.1-17.3c19.9,14.4,41.9,25.8,65.3,33.7l3.6,1.3c2.2,0.8,4.4,1.6,6.6,2.4
	c14.3,5.2,29.6,10.2,45.6,14.8c6.5,1.9,11.4,3.3,13.7,3.9c5.7,1.5,11.3,3,16.9,4.4c1.3,0.3,2.6,0.6,3.9,0.9
	c4.5,1.1,9.1,2.2,13.5,3.1l3,0.7c5.1,1.1,10,2.2,15,3.1c0.3,0.1,0.7,0.1,1,0.2c16.7,3.2,32.4,5.6,46.6,7l0.4,0
	c2.8,0.3,5.7,0.6,8.4,0.7c1.6,0.1,3.1,0.2,4.7,0.3h0.4c4.3,0.2,8.4,0.4,12.2,0.4c6.2,0.1,12.5-0.4,18.6-1.4
	C444.8,311.2,404.8,331.9,366.4,321.6z M392.2,253.7c-4.3-0.7-8.7-1.4-13.3-2.2l-2.4-0.4c-5.8-1.1-11.8-2.2-17.8-3.5l-1.5-0.3
	c-5.4-1.2-11-2.4-16.5-3.8l-3.7-0.9c-6.2-1.5-12.4-3.1-18.7-4.8c-6.3-1.7-12.5-3.5-18.6-5.3c-1.2-0.4-2.4-0.7-3.6-1.1
	c-5.5-1.7-10.9-3.3-16.1-5.1l-1.5-0.5c-5.9-1.9-11.6-3.9-17.1-5.9l-2.3-0.9c-4.3-1.6-8.4-3.2-12.4-4.8c-0.9-0.4-1.9-0.7-2.8-1.1
	c25.9,4,51.5,9.4,76.7,16.3c25.3,6.8,50.2,14.9,74.5,24.6L392.2,253.7z M463.4,255c-6.4,2.5-13.4,3.5-20.2,3.1
	c-37.5-19.5-77.2-34.6-118.2-44.9c-40.6-11.8-82.5-18.8-124.7-20.7c-6.2-3.1-11.6-7.5-16-12.8c9.5-5.8,62.8-5.1,145.1,17.1
	C411.8,218.9,458.2,245.2,463.4,255L463.4,255z"/>
<path class="st0" d="M293.2,266.2c-5.5-1.6-10.9-3.3-16.2-4.9c-4.5-1.4-9.3,1.1-10.7,5.5c-1.4,4.5,1.1,9.3,5.5,10.7
	c5.4,1.7,10.9,3.4,16.5,5.1c0.8,0.2,1.6,0.3,2.4,0.3c4.3,0,7.9-3.1,8.5-7.3C299.8,271.4,297.2,267.4,293.2,266.2z"/>
<path class="st0" d="M342.2,278.9c-5.4-1.2-10.9-2.5-16.4-3.9c-4.5-1-9.1,1.7-10.2,6.3c-1.1,4.5,1.6,9.1,6.1,10.3
	c5.7,1.4,11.3,2.7,16.8,4c0.6,0.1,1.2,0.2,1.9,0.2c4.3,0,8-3.3,8.5-7.6C349.3,283.9,346.4,279.9,342.2,278.9z"/>
<path class="st0" d="M309.1,29.9c0,11.5,6.7,21.9,17.1,26.9v28.6c0,4.7,3.8,8.5,8.5,8.5h34.1c4.7,0,8.5-3.8,8.5-8.5V56.7
	c12.6-6,19.4-19.9,16.4-33.5C390.6,9.6,378.5,0,364.5,0h-25.6C322.5,0,309.1,13.4,309.1,29.9z M343.2,76.8V59.7h17.1v17.1H343.2z
	 M377.3,29.9c0,7.1-5.7,12.8-12.8,12.8h-25.6c-7.1,0-12.8-5.7-12.8-12.8s5.7-12.8,12.8-12.8h25.6C371.6,17.1,377.3,22.8,377.3,29.9z
	"/>
<path class="st0" d="M471.4,110.4c0.2-2.3-0.5-4.5-1.9-6.3l-27-33.1c-1.4-1.8-3.5-2.9-5.8-3.1c-2.3-0.3-4.5,0.4-6.3,1.9l-33.1,27
	c-3.7,3-4.2,8.3-1.2,12l27,33.1c1.4,1.8,3.5,2.9,5.7,3.1c0.3,0,0.6,0,0.9,0c2,0,3.9-0.7,5.4-1.9l33.1-26.9
	C470,114.7,471.1,112.7,471.4,110.4z M431,124.5l-16.2-19.8l19.8-16.2l16.2,19.8L431,124.5z"/>
<path class="st0" d="M309.1,76.8c0-18.8-15.3-34.1-34.1-34.1c-18.9,0-34.1,15.3-34.1,34.1s15.3,34.1,34.1,34.1
	C293.8,110.9,309.1,95.7,309.1,76.8z M274.9,93.9c-9.4,0-17.1-7.6-17.1-17.1s7.6-17.1,17.1-17.1c9.4,0,17.1,7.6,17.1,17.1
	S284.4,93.9,274.9,93.9z"/>
<path class="st0" d="M381.1,506.2l8.1-24.5c6.4-19.3,4.5-40.4-5.4-58.2l-29-52.2c-1.9-3.4-5.8-5-9.6-4.1c-3.7,1-6.4,4.3-6.4,8.2
	v46.9c0,1.5-0.1,3.1-0.2,4.6c-1.8-6.5-4.4-12.8-7.6-18.7l-34.8-62.6c-1.9-3.4-5.8-5.1-9.6-4.1c-3.8,1-6.4,4.4-6.4,8.3v56.3
	c0,14.8-4.8,29.1-13.7,41c-3.2,4.3-5.9,8.8-8.2,13.5c-1.1-1.7-2.1-3.4-3.4-5c-7.2-9.6-11.1-21.3-11.1-33.3v-46.9
	c0-3.9-2.6-7.3-6.4-8.3c-3.8-1-7.7,0.7-9.6,4.1l-29,52.2c-9.9,17.8-11.8,38.9-5.4,58.1l8.2,24.5c1.2,3.5,4.4,5.8,8.1,5.8H373
	C376.6,512,379.9,509.6,381.1,506.2z M209.6,476.3c-4.9-14.7-3.4-30.9,4.1-44.5l13-23.4v14c0.1,15.7,5.1,30.9,14.5,43.5
	c4.4,5.8,7.5,12.4,9.2,19.5c-0.5,3.1-0.7,6.3-0.9,9.5h-33.8L209.6,476.3z M266.7,494.9c0.7-13.6,5.4-26.6,13.6-37.5
	c11.1-14.8,17-32.7,17.1-51.2v-23.4l18.8,33.8c8,14.4,10.5,31.1,7.1,47.2c-0.8,4.1,1.3,8.1,5.2,9.7c3.8,1.5,8.2,0.1,10.4-3.4
	l0.9-1.5c0.5-0.9,1.1-1.8,1.7-2.7c9.4-12.6,14.5-27.8,14.5-43.5v-14l13.1,23.4c7.5,13.6,9,29.7,4.1,44.5l-6.2,18.7H266.7z"/>
<circle class="st0" cx="206.3" cy="366.7" r="8.5"/>
<circle class="st0" cx="412.5" cy="494.3" r="8.8"/>
<circle class="st0" cx="428.7" cy="164.5" r="9.7"/>
<circle class="st0" cx="351.7" cy="110.9" r="9.7"/>
<circle class="st0" cx="274.9" cy="135.8" r="9.7"/>
<path class="st0" d="M351.7,168L351.7,168c-4.7,0-8.5-3.8-8.5-8.5v-12.1c0-4.7,3.8-8.5,8.5-8.5l0,0c4.7,0,8.5,3.8,8.5,8.5v12.1
	C360.3,164.2,356.5,168,351.7,168z"/>
<path class="st0" d="M173.2,413.6L173.2,413.6c-3.8-2.8-4.5-8.2-1.7-11.9l12.7-16.9c2.8-3.8,8.2-4.5,11.9-1.7h0
	c3.8,2.8,4.5,8.2,1.7,11.9l-12.7,16.9C182.3,415.7,176.9,416.4,173.2,413.6z"/>
<path class="st0" d="M396,398.2L396,398.2c-4.1,2.4-9.3,1-11.7-3.1l-5.8-10.1c-2.4-4.1-1-9.3,3.1-11.7v0c4.1-2.4,9.3-1,11.7,3.1
	l5.8,10.1C401.5,390.6,400.1,395.9,396,398.2z"/>
<path class="st1" d="M167.6,426.7c0,0-18.9,32,5,76.9"/>
<path class="st1" d="M403.7,411.1c0,0,20,26.5,16.3,49.7"/>
</svg>
