<?xml version="1.0" encoding="utf-8"?>
<!-- Generator: Adobe Illustrator 21.1.0, SVG Export Plug-In . SVG Version: 6.00 Build 0)  -->
<svg version="1.1" id="fill" xmlns="http://www.w3.org/2000/svg" xmlns:xlink="http://www.w3.org/1999/xlink" x="0px" y="0px"
	 viewBox="0 0 512 512" style="enable-background:new 0 0 512 512;" xml:space="preserve">
<style type="text/css">
	.st0{fill:#FFB914;}
</style>
<path class="st0" d="M264,104c0,26.5,21.5,48,48,48s48-21.5,48-48s-21.5-48-48-48S264,77.5,264,104z M320,120c0-4.4,3.6-8,8-8
	s8,3.6,8,8s-3.6,8-8,8S320,124.4,320,120z M343.8,102.1c-9.8-8.8-24.9-7.9-33.7,1.9c-8.1,9.1-8.1,22.7,0,31.8
	c-17.6-1-31-16.1-30-33.7s16.1-31,33.7-30C330,73,342.9,85.9,343.8,102.1z"/>
<path class="st0" d="M328,252.8V240h128c4.4,0,8-3.6,8-8v-24h8c4.4,0,8-3.6,8-8V64.1c0-26.5-21.5-48.1-48.1-48.1H232
	c-4.4,0-8,3.6-8,8v224h-11.2c-12.4,0-24.8,1.7-36.8,4.9V240h2.7c13.3,0,24-10.7,24-24c0-6.4-2.5-12.5-7-17L175,178.3
	c-3.1-3.1-8.2-3.1-11.3,0L143,199c-9.4,9.4-9.4,24.6,0,33.9c4.5,4.5,10.6,7,17,7v18.3c-11.5,4.6-22.3,10.7-32.2,18.1l-8.4-8.4
	l1.4-1.4c9.8-9.8,9.8-25.6,0-35.3c-4.7-4.7-11-7.3-17.7-7.3H72c-4.4,0-8,3.6-8,8v31c0,13.8,11.2,25,25,25c6.6,0,13-2.6,17.7-7.3
	l1.4-1.4l7.5,7.5c-5.6,5.3-10.8,11.1-15.5,17.2h-8.2c-22.3,0-44.3-5.2-64.2-15.2c-4-2-8.8-0.4-10.7,3.6c-1,2-1.1,4.3-0.3,6.4
	l3.6,9.5c13.6,35.9,43,63.6,79.8,74.8c4.4,4.2,9,8.2,13.7,11.9l-16.7,33.4c-1.5,3.1-0.9,6.8,1.5,9.2l56,56c1.5,1.5,3.5,2.4,5.7,2.4
	h64c4.4,0,8-3.6,8-8v-8c0-17.7-14.3-32-32-32h-20.7l-16-16l7.3-7.3c16,4.8,32.6,7.3,49.2,7.3h8.8l45.7,45.7c1.5,1.5,3.5,2.3,5.7,2.3
	h64c4.4,0,8-3.6,8-8v-8c0-17.7-14.3-32-32-32h-12.7l-15.4-15.4c11.4-6.5,21.7-14.8,30.4-24.6h16.8c12.1,10.7,30.3,10.7,42.3-0.1
	L371,379.9c-6.6,5.9-16.7,5.3-22.6-1.2c-5.9-6.6-5.3-16.7,1.2-22.6c6.1-5.4,15.3-5.4,21.3,0l10.7-11.9c-5.9-5.2-13.5-8.1-21.3-8.1
	c-3.6,0-7.2,0.7-10.5,1.9c1.2-5.9,2-11.9,2.3-17.9h35.3c12.1,10.7,30.3,10.7,42.3-0.1L419,308.1c-6.6,5.9-16.7,5.3-22.6-1.2
	c-5.9-6.6-5.3-16.7,1.2-22.6c6.1-5.4,15.3-5.4,21.3,0l10.7-11.9c-12-10.8-30.2-10.9-42.3-0.1h-45.5C337.9,265,333.4,258.6,328,252.8
	L328,252.8z M154.3,221.7c-3.1-3.1-3.1-8.2,0-11.3l15-15l15,15c3.1,3.1,3.1,8.2,0,11.3c-1.5,1.5-3.5,2.3-5.6,2.3H160
	C157.9,224,155.8,223.2,154.3,221.7L154.3,221.7z M89,272c-5,0-9-4-9-9v-23h23c5,0,9,4,9,9c0,2.4-0.9,4.7-2.6,6.3l-14.1,14.1
	C93.6,271.1,91.3,272,89,272z M279.5,376c-4.1,0-7.5-3.4-7.5-7.5V336c0-4.4,3.6-8,8-8s8,3.6,8,8v16c0,4.4,3.6,8,8,8h33.1
	c-1.5,5.2-1.5,10.8,0,16H279.5z M464,64.1V192H303.2c-3.8-18.6-20.2-32-39.2-32c-8.7,0-17.1,2.9-24,8.2V71.3
	c20.1-3.4,35.8-19.2,39.3-39.3h152.6C449.6,32,464,46.4,464,64.1z M262.9,32C260,43.2,251.2,52,240,54.9V32H262.9z M264,176
	c13.3,0,24,10.7,24,24c0,4.4,3.6,8,8,8h152v16H264c-13.3,0-24-10.7-24-24S250.7,176,264,176z M146.3,437.7l24,24
	c1.5,1.5,3.5,2.3,5.7,2.3h24c8.8,0,16,7.2,16,16h-52.7l-49.6-49.6l21.5-42.8c0.5-1.1,0.8-2.3,0.8-3.6v-24c0-13.3,10.7-24,24-24h8
	c13.3,0,24,10.7,24,24v24c0,13.3-10.7,24-24,24c-2.1,0-4.2,0.8-5.7,2.3l-16,16C143.2,429.5,143.2,434.5,146.3,437.7z M298.3,445.7
	c1.5,1.5,3.5,2.3,5.7,2.3h16c8.8,0,16,7.2,16,16h-52.7l-33.2-33.2c9.1-1.2,18-3.6,26.5-6.9L298.3,445.7z M233.9,416h-14.1
	c-8.6,0-17.1-0.7-25.5-2.1c8.6-7.5,13.6-18.4,13.6-29.9v-24c0-22.1-17.9-40-40-40h-8c-22.1,0-40,17.9-40,40v19.7
	c-3.6-3-7.1-6.1-10.3-9.4c-1-1-2.2-1.7-3.5-2c-29.8-8.6-54.4-29.5-67.7-57.5c17.1,6,35.1,9.1,53.3,9.2H104c2.6,0,5-1.3,6.5-3.4
	c23.6-33,61.7-52.6,102.3-52.6H232c4.4,0,8-3.6,8-8v-24.2c6.9,5.3,15.3,8.2,24,8.2h48v16c0,2.1,0.8,4.2,2.3,5.7
	c13.9,13.8,21.7,32.7,21.7,52.3c0,10.2-1.6,20.3-4.6,30.1H304v-8c0-13.3-10.7-24-24-24s-24,10.7-24,24v32.5
	c0,13,10.5,23.5,23.5,23.5h20C281.2,407.5,257.9,416,233.9,416L233.9,416z M377.1,288c-1.5,5.2-1.5,10.8,0,16h-25.7
	c-0.6-5.4-1.6-10.8-3.2-16H377.1z"/>
<circle class="st0" cx="432" cy="168" r="8"/>
</svg>
