<?xml version="1.0" encoding="utf-8"?>
<!-- Generator: Adobe Illustrator 22.1.0, SVG Export Plug-In . SVG Version: 6.00 Build 0)  -->
<svg version="1.1" id="Слой_1" xmlns="http://www.w3.org/2000/svg" xmlns:xlink="http://www.w3.org/1999/xlink" x="0px" y="0px"
     viewBox="0 0 511 511" style="enable-background:new 0 0 511 511;" xml:space="preserve">
<style type="text/css">
	.st0{fill:#FFB914;}
</style>
    <g>
	<path class="st0" d="M256.9,117.4c-24.3,0-45,10.4-54.1,27.3c-2,3.6-0.6,8.2,3,10.1c3.6,2,8.2,0.6,10.1-3
		c6.4-11.8,22.5-19.4,41-19.4c18.5,0,34.6,7.6,41,19.4c1.4,2.5,3.9,3.9,6.6,3.9c1.2,0,2.4-0.3,3.6-0.9c3.6-2,5-6.5,3-10.1
		C301.9,127.8,281.2,117.4,256.9,117.4z"/>
        <path class="st0" d="M333.3,126.7c1.4,2.5,3.9,3.9,6.6,3.9c1.2,0,2.4-0.3,3.6-0.9c3.6-2,5-6.5,3-10.1C331.5,92.1,297.2,75,256.9,75
		c-40.3,0-74.6,17.1-89.5,44.6c-2,3.6-0.6,8.2,3,10.1c3.6,2,8.2,0.6,10.1-3c12.3-22.7,41.6-36.8,76.4-36.8
		C291.7,89.9,321,104,333.3,126.7z"/>
        <path class="st0" d="M132.9,110.1c3.6,2,8.2,0.6,10.1-3c18.5-34,62.1-55.2,113.9-55.2c51.8,0,95.4,21.2,113.9,55.2
		c1.4,2.5,3.9,3.9,6.6,3.9c1.2,0,2.4-0.3,3.6-0.9c3.6-2,5-6.5,3-10.1c-21.1-38.9-69.8-63-127-63s-106,24.2-127,63
		C127.9,103.6,129.2,108.1,132.9,110.1z"/>
        <path class="st0" d="M400.6,265.2c10.7,0,19.5-8.7,19.5-19.5c0-10.7-8.7-19.5-19.5-19.5c-10.7,0-19.5,8.7-19.5,19.5
		C381.1,256.5,389.9,265.2,400.6,265.2z M400.6,241.2c2.5,0,4.5,2,4.5,4.5c0,2.4-2.1,4.5-4.5,4.5c-2.5,0-4.5-2-4.5-4.5
		S398.1,241.2,400.6,241.2z"/>
        <path class="st0" d="M400.6,287.8c-10.7,0-19.5,8.7-19.5,19.5c0,10.7,8.7,19.5,19.5,19.5c10.7,0,19.5-8.7,19.5-19.5
		C420,296.5,411.3,287.8,400.6,287.8z M400.6,311.8c-2.5,0-4.5-2-4.5-4.5c0-2.5,2-4.5,4.5-4.5c2.4,0,4.5,2.1,4.5,4.5
		C405.1,309.8,403.1,311.8,400.6,311.8z"/>
        <path class="st0" d="M389.3,276.5c0-10.7-8.7-19.5-19.5-19.5c-10.7,0-19.5,8.7-19.5,19.5c0,10.7,8.7,19.5,19.5,19.5
		C380.5,296,389.3,287.2,389.3,276.5z M369.8,281c-2.5,0-4.5-2-4.5-4.5c0-2.5,2-4.5,4.5-4.5c2.5,0,4.5,2,4.5,4.5
		C374.3,279,372.3,281,369.8,281z"/>
        <path class="st0" d="M431.4,257c-10.7,0-19.5,8.7-19.5,19.5c0,10.7,8.7,19.5,19.5,19.5c10.7,0,19.5-8.7,19.5-19.5
		C450.9,265.8,442.1,257,431.4,257z M431.4,281c-2.5,0-4.5-2-4.5-4.5c0-2.5,2-4.5,4.5-4.5c2.5,0,4.5,2,4.5,4.5
		C435.9,279,433.9,281,431.4,281z"/>
        <path class="st0" d="M185.7,305.1c-19.6,0-35.5,15.9-35.5,35.5c0,19.6,15.9,35.5,35.5,35.5c19.6,0,35.5-15.9,35.5-35.5
		C221.2,321,205.3,305.1,185.7,305.1z M185.7,361.1c-11.3,0-20.5-9.2-20.5-20.5c0-11.3,9.2-20.5,20.5-20.5s20.5,9.2,20.5,20.5
		C206.2,351.9,197,361.1,185.7,361.1z"/>
        <path class="st0" d="M507.6,391.4l-36-148.8c-5.2-21.4-15.5-37.7-30.6-48.5c-3.1-2.2-6.4-4.2-9.9-5.9v-3.1
		c0-15.6-12.7-28.2-28.2-28.2H386c-15.6,0-28.2,12.7-28.2,28.2v4.3c-6,3.3-10.8,7.3-13.7,11.7h-72.2c-4.1,0-7.5,3.3-7.5,7.5
		c0,4.1,3.4,7.5,7.5,7.5h69.4v15.3c0,8.4-6.9,15.3-15.3,15.3H184.9c-8.4,0-15.3-6.9-15.3-15.3v-15.3h67.8c4.1,0,7.5-3.4,7.5-7.5
		c0-4.1-3.3-7.5-7.5-7.5h-70.5c-2.9-4.4-7.6-8.4-13.6-11.7v-4.3c0-15.6-12.7-28.2-28.2-28.2h-16.7c-15.6,0-28.2,12.7-28.2,28.2v3.1
		c-3.5,1.7-6.8,3.6-9.9,5.9c-15.1,10.8-25.4,27.1-30.6,48.5l-36,148.8c-5.3,21.9-4.5,40.4,2.5,55c6.2,13.1,17.1,22.3,31.3,26.7
		c30.6,9.4,66.3-6.3,76.6-33.6l17.3-46.1c2.2-5.9,4-6.7,4-6.7c0.2,0,1.6,0.1,4.1,2c24.2,22,64,21.1,90.1-1.8h52.1
		c12.1,10.6,27.5,16.8,43.6,17.7c17.6,0.9,34.1-4.7,46.5-15.9c2.9-2.1,4.1-2,4.1-2c0,0,1.8,0.8,4,6.7l17.3,46.1
		c8.2,21.9,32.9,36.3,58.1,36.3c6.2,0,12.5-0.9,18.5-2.7c14.3-4.4,25.1-13.6,31.3-26.7C512,431.7,512.9,413.2,507.6,391.4z
		 M386,171.9h16.8c6.5,0,11.9,4.7,13,10.9c-6.2-1.5-12.7-2.3-19.5-2.3c-0.1,0-0.2,0-0.3,0c-8.1,0-16,1.1-23.2,3.1
		C373.7,177,379.3,171.9,386,171.9z M108.2,171.9H125c6.8,0,12.4,5.1,13.2,11.7c-7.2-2-15.1-3.1-23.2-3.1c-0.1,0-0.2,0-0.3,0
		c-6.8,0-13.3,0.8-19.5,2.3C96.3,176.6,101.7,171.9,108.2,171.9z M469.3,458.8c-20.7,6.4-50-2.7-58.2-24.5l-17.3-46.1
		c-3.4-8.9-7.9-14.1-13.9-15.8c-5.5-1.6-11.4,0-17.6,4.6c-0.2,0.1-0.4,0.3-0.6,0.5c-19.3,17.7-51.7,16.2-72.2-3.4
		c-1.4-1.3-3.2-2.1-5.2-2.1h-57.9c-1.9,0-3.8,0.7-5.2,2.1c-20.6,19.6-53,21.1-72.2,3.4c-0.2-0.2-0.4-0.3-0.6-0.5
		c-6.2-4.7-12.1-6.2-17.6-4.6c-6,1.7-10.5,6.9-13.8,15.8l-17.3,46.1c-8.2,21.8-37.4,30.9-58.1,24.5c-23.2-7.1-31.9-30.4-23.7-63.9
		l36-148.8c6.5-26.9,21-39.8,35.4-45.8c0.6-0.2,1.2-0.4,1.7-0.7c8.6-3.3,17-4.2,23.6-4.2c11.2,0,20.8,2.4,27.8,5.5
		c0.1,0.1,0.2,0.1,0.4,0.2c6.4,2.8,10.6,6.2,11.7,8.8v21.6c0,16.7,13.6,30.3,30.3,30.3h141.2c16.7,0,30.3-13.6,30.3-30.3v-21.6
		c1.1-2.6,5.2-5.9,11.4-8.7c0.4-0.1,0.7-0.3,1.1-0.5c7-3,16.3-5.3,27.2-5.3h0.3c6.6,0,15,0.9,23.6,4.2c0.5,0.3,1.1,0.5,1.7,0.7
		c14.4,6,28.9,18.9,35.4,45.8l36,148.8C501.1,428.4,492.5,451.6,469.3,458.8z"/>
        <path class="st0" d="M331.1,305.1c-19.6,0-35.5,15.9-35.5,35.5c0,19.6,15.9,35.5,35.5,35.5c19.6,0,35.5-15.9,35.5-35.5
		C366.6,321,350.7,305.1,331.1,305.1z M331.1,361.1c-11.3,0-20.5-9.2-20.5-20.5c0-11.3,9.2-20.5,20.5-20.5
		c11.3,0,20.5,9.2,20.5,20.5C351.6,351.9,342.5,361.1,331.1,361.1z"/>
        <path class="st0" d="M134,257h-2.3v-2.3c0-12.7-10.3-23-23-23s-23,10.3-23,23v2.3h-2.3c-12.7,0-23,10.3-23,23c0,12.7,10.3,23,23,23
		h2.3v2.3c0,12.7,10.3,23,23,23s23-10.3,23-23v-2.3h2.3c12.7,0,23-10.3,23-23C157,267.3,146.7,257,134,257z M134,287.9h-9.8
		c-4.1,0-7.5,3.3-7.5,7.5v9.8c0,4.4-3.6,8-8,8c-4.4,0-8-3.6-8-8v-9.8c0-4.1-3.4-7.5-7.5-7.5h-9.8c-4.4,0-8-3.6-8-8c0-4.4,3.6-8,8-8
		h9.8c4.1,0,7.5-3.4,7.5-7.5v-9.8c0-4.4,3.6-8,8-8c4.4,0,8,3.6,8,8v9.8c0,4.1,3.4,7.5,7.5,7.5h9.8c4.4,0,8,3.6,8,8
		C142,284.4,138.4,287.9,134,287.9z"/>
        <path class="st0" d="M235.9,284.7H225c-4.1,0-7.5,3.4-7.5,7.5s3.3,7.5,7.5,7.5h10.9c4.1,0,7.5-3.3,7.5-7.5S240,284.7,235.9,284.7z"
        />
        <path class="st0" d="M286,284.7h-10.9c-4.1,0-7.5,3.4-7.5,7.5s3.4,7.5,7.5,7.5H286c4.1,0,7.5-3.3,7.5-7.5S290.1,284.7,286,284.7z"
        />
        <path class="st0" d="M263.8,323.9H253c-4.1,0-7.5,3.3-7.5,7.5s3.4,7.5,7.5,7.5h10.9c4.1,0,7.5-3.4,7.5-7.5S268,323.9,263.8,323.9z"
        />
</g>
</svg>
