<?xml version="1.0" encoding="utf-8"?>
<!-- Generator: Adobe Illustrator 21.1.0, SVG Export Plug-In . SVG Version: 6.00 Build 0)  -->
<svg version="1.1" id="Capa_1" xmlns="http://www.w3.org/2000/svg" xmlns:xlink="http://www.w3.org/1999/xlink" x="0px" y="0px"
	 viewBox="0 0 512 512" style="enable-background:new 0 0 512 512;" xml:space="preserve">
<style type="text/css">
	.st0{fill:#FFB914;}
</style>
<g>
	<path class="st0" d="M405.3,136.5c0-14.1,11.5-25.6,25.6-25.6V93.9c-14.1,0-25.6-11.5-25.6-25.6h-17.1c0,14.1-11.5,25.6-25.6,25.6
		v17.1c14.1,0,25.6,11.5,25.6,25.6H405.3z M388.2,102.4c3.2-2.4,6.1-5.3,8.6-8.6c2.4,3.2,5.3,6.1,8.6,8.6c-3.2,2.4-6.1,5.3-8.6,8.6
		C394.4,107.7,391.5,104.8,388.2,102.4z"/>
	<path class="st0" d="M115.2,0H98.1c0,14.1-11.5,25.6-25.6,25.6v17.1c14.1,0,25.6,11.5,25.6,25.6h17.1c0-14.1,11.5-25.6,25.6-25.6
		V25.6C126.7,25.6,115.2,14.1,115.2,0z M106.7,42.7c-2.4-3.2-5.3-6.1-8.6-8.6c3.2-2.4,6.1-5.3,8.6-8.6c2.4,3.2,5.3,6.1,8.6,8.6
		C112,36.6,109.1,39.5,106.7,42.7z"/>
	<path class="st0" d="M81.1,332.8c0,98.8,80.4,179.2,179.2,179.2s179.2-80.4,179.2-179.2c0-69.2-39.9-132.3-102.4-161.9
		c0-0.1,0-0.1,0-0.2v-34.1c0-2.3-0.9-4.4-2.5-6l-19.7-19.7l45.8-54.1c2.9-3.4,2.7-8.4-0.5-11.5L317.5,2.5c-1.6-1.6-3.8-2.5-6-2.5
		H209.1c-2.3,0-4.4,0.9-6,2.5l-42.7,42.7c-3.1,3.1-3.3,8.2-0.5,11.5l45.8,54.1L186,130.5c-1.6,1.6-2.5,3.8-2.5,6v34.1
		c0,0.1,0,0.1,0,0.2C120.9,200.5,81.1,263.6,81.1,332.8z M232.7,42.7L248,17.1h24.5l15.4,25.6H232.7z M290.5,59.7l-30.2,78.6
		L230,59.7H290.5z M211.7,59.7l22.5,58.4l-49.4-58.4H211.7z M308.8,59.7h26.9l-49.4,58.4L308.8,59.7z M333.5,42.7h-25.8l-15.4-25.6
		h15.5L333.5,42.7z M212.6,17.1h15.5l-15.4,25.6H187L212.6,17.1z M200.5,140.1l16.2-16.2l37,43.8c3,3.6,8.4,4,12,1
		c0.4-0.3,0.7-0.6,1-1l37-43.8l16.2,16.2v27.1l-37.7,37.7h-44.1l-37.7-37.7V140.1z M215.9,221.9h88.8c61.3,24.5,91.1,94,66.5,155.3
		s-94,91.1-155.3,66.5c-61.3-24.5-91.1-94-66.5-155.3C161.5,258.1,185.5,234,215.9,221.9z M194,184.8l19.6,19.6
		c-70.9,25.7-107.5,104-81.8,174.9s104,107.5,174.9,81.8c70.9-25.7,107.5-104,81.8-174.9c-13.8-38-43.7-68-81.8-81.8l19.6-19.6
		c58.4,26.1,95.9,84.1,95.9,148c0,89.4-72.7,162.1-162.1,162.1S98.1,422.2,98.1,332.8C98.1,268.9,135.7,210.9,194,184.8z"/>
</g>
</svg>
