<?xml version="1.0" encoding="utf-8"?>
<!-- Generator: Adobe Illustrator 21.1.0, SVG Export Plug-In . SVG Version: 6.00 Build 0)  -->
<svg version="1.1" id="Capa_1" xmlns="http://www.w3.org/2000/svg" xmlns:xlink="http://www.w3.org/1999/xlink" x="0px" y="0px"
	 viewBox="0 0 512 512" style="enable-background:new 0 0 512 512;" xml:space="preserve">
<style type="text/css">
	.st0{fill:#FAB61D;}
</style>
<g>
	<g>
		<g>
			<path class="st0" d="M293.4,292.8c-2.5-3.3-7.3-3.9-10.5-1.3c-12.4,9.7-29.8,9.7-42.3,0c-3.3-2.5-8-1.9-10.5,1.3
				c-2.5,3.3-1.9,8,1.3,10.5c8.9,6.9,19.6,10.4,30.3,10.4c10.7,0,21.4-3.5,30.3-10.4C295.3,300.8,295.9,296.1,293.4,292.8z"/>
		</g>
	</g>
	<g>
		<g>
			<path class="st0" d="M397.5,396c10-12.3,15.5-27.9,15.5-43.8l0-89.3c3.9-5.9,6.2-13,6.2-20.7c0-7.4-2.2-14.6-6.2-20.6l0-22.5h0
				c0,0,0-0.1,0-0.1c-0.5-28.2-7.3-66.3-35.8-90.5c0-4.8-0.6-13.6-4.4-23.5c-5.2-13.5-17.5-32.1-46.6-44c-3.8-1.6-8.2,0.3-9.8,4.1
				c-1.6,3.8,0.3,8.2,4.1,9.8c45.3,18.6,41.8,54.4,41.6,55.8c0,0.1,0,0.3,0,0.4c0,0.2-1.4,18.2-14.1,38
				c-17.2,26.8-45.9,43.1-85.2,48.4c-2,0.3-4-0.4-5.3-1.9c-1.4-1.5-1.9-3.4-1.5-5.4c1.8-8.3,3.6-16.3,3.6-16.3
				c0.7-3.2-0.8-6.6-3.7-8.2c-2.9-1.6-6.5-1.1-8.9,1.2c-0.4,0.4-41.2,39.9-114.5,43.2c-1.6,0.1-3.2-0.5-4.4-1.6
				c-1.2-1.1-1.9-2.7-1.9-4.3c-0.4-20,1.4-88.3,40.6-128.7c20.1-20.7,47.5-31.4,81.5-31.7c16.3-0.2,31.3,0.9,44.3,3.3
				c4.1,0.7,8-2,8.7-6.1c0.7-4.1-2-8-6.1-8.7c-14-2.5-29.8-3.6-47.1-3.5c-11.4,0.1-22.1,1.3-32.2,3.5c-1.1-4-3.3-7.7-6.4-10.7
				L193.4,6.3c-5.1-4.8-12.1-7.1-19.1-6.1c-7,1-13.1,5-16.7,11.1l-11.9,20c-5.7,1.3-11,4.2-15.3,8.8l-0.2,0.3
				c-4.2,4.4-6.9,9.9-7.9,15.8L103,69.2c-5.8,4-9.5,10.3-10.1,17.3c-0.6,7,2.1,13.9,7.2,18.7l16.2,15.3c1.7,1.6,3.7,3,5.8,4
				c-9.4,29.6-11,58.8-10.9,76.1v19.9c-4.4,6.3-6.9,13.9-6.9,21.7c0,8.1,2.6,15.6,6.9,21.7v88.3c0,25.8,14.5,49,36.3,61
				c-18.9,8.2-31.7,27.1-31.7,48.1v23.3c0,15.1,12.3,27.3,27.3,27.3h96.6h43.9h96.6c15.1,0,27.3-12.3,27.3-27.3v-23.3
				c0-20.9-12.5-39.6-31.2-47.9C384.4,409.1,391.6,403.2,397.5,396z M360.6,157.2c7.3-11.4,11.4-22.4,13.7-30.7
				c18.6,20.7,23.3,50.1,23.7,72.7v0.1c0,3-1.3,5.7-3.7,7.5c-2.4,1.8-5.4,2.3-8.2,1.4c-17.6-5.5-32.9-14.8-45.5-27.8
				C349.4,172.7,355.9,164.6,360.6,157.2z M404.2,242.3c0,10.6-7.2,19.5-17,22.1c1.1-6.7,1.7-13.5,1.7-20.5v-20.2c0,0,0,0,0.1,0
				c1.6,0,3.3-0.2,4.8-0.5C400.2,227.3,404.2,234.6,404.2,242.3z M170.5,19c1.3-2.1,3.4-3.6,5.9-3.9c2.5-0.3,4.9,0.4,6.7,2.1
				c0,0,18.1,17.6,18.5,19.1c-7.4,2.5-14.4,5.7-20.9,9.5c-0.7-0.9-7.2-7-7.2-7c-3.2-3-6.9-5.2-10.9-6.6L170.5,19z M141,50.6l0.2-0.3
				c5.9-6.2,15.7-6.5,21.9-0.6l4.8,4.6c0,0,0,0,0,0c-4.2,3.3-8.2,6.8-11.9,10.7c-3.6,3.7-6.9,7.6-10,11.7l-4.4-4.2
				c-3-2.8-4.7-6.7-4.8-10.8S138.2,53.6,141,50.6z M110.4,94.3c-1.8-1.7-2.7-4.1-2.5-6.6c0.2-2.5,1.5-4.7,3.6-6.1l12.8-8.7
				c1.6,3.9,4.1,7.5,7.2,10.5c0,0,5.8,5.4,6.3,5.8c-4,6.8-7.5,13.8-10.4,20.9C127.1,110,110.4,94.3,110.4,94.3z M127.7,224.6
				c1.5,0.3,3,0.5,4.5,0.5c0.3,0,0.6,0,1,0c0.5,0,0.9-0.1,1.4-0.1v18.9c0,6.9,0.6,13.8,1.6,20.5c-9.7-2.6-16.9-11.5-16.9-22.1
				C119.3,235.4,122.4,228.9,127.7,224.6z M126.2,352.3v-75.7c4.2,2,8.8,3.2,13.6,3.5c4.5,15.1,12.5,28.9,21.9,42.2
				c3.2,4.5,9.2,2.3,10.5,1.3c3.3-2.6,3.8-7.3,1.3-10.5c-15.7-19.9-24-43.8-24-69.1v-20.1c43.1-5,73.8-21.2,91.3-33
				c-0.2,5.5,1.8,10.9,5.6,15c4.7,5.1,11.5,7.5,18.4,6.6c27.6-3.7,48.4-12.4,63.8-22.8c12.7,13.5,27.8,23.6,45.2,30.3v24.1
				c0,61.8-50.3,112.1-112.1,112.1c-23.4,0-45.9-7.2-65-20.9c-3.4-2.4-8.1-1.6-10.5,1.7c-2.4,3.4-1.6,8.1,1.7,10.5
				c9.7,7,20.2,12.4,31.2,16.4v29.2c0,0-6.6-4.9-19-1.8l-23.1,6.4c-4.6,1.3-8.5,3.8-11.4,7.2C142.7,398.1,126.2,376.6,126.2,352.3z
				 M232,497h-88.8c-6.8,0-12.3-5.5-12.3-12.3v-23.3c0-29.8,29.9-36.7,29.9-36.7c2.4,10.9,10.7,26.8,36.3,41
				c8.7,4.8,17.3,7.2,25.4,7.2c4,0,7.9-0.6,11.6-1.7C232.7,478.3,231.9,486.9,232,497z M240.8,450.1c-10.2,9.5-22.2,10.3-36.4,2.4
				c-16.5-9.1-26.5-19.9-29-31.2c-0.9-4.1,1.7-8.3,5.8-9.4l23.1-6.4c3-0.8,6.3,0.2,8.4,2.6c4.5,5.4,11.4,12.4,20.4,18.5
				c-1.3,4-0.9,8.3,1.3,12l6.6,11.3C240.8,450,240.8,450.1,240.8,450.1z M276.4,497H247c-0.2-13.2,1.4-23.3,3.6-30.7
				c2.8,3.2,6.8,5,11.1,5s8.4-1.8,11.1-5C275,473.7,276.6,483.8,276.4,497z M247.4,431.4H276l-14.3,24.7L247.4,431.4z M245.1,416.6
				c-5.8-3.5-10.8-7.6-14.8-11.5c2.4-1.3,3.9-3.8,3.9-6.6V368c9,2,18.2,3,27.5,3c9.4,0,18.6-1,27.5-3v30.5c0,2.8,1.6,5.3,3.9,6.6
				c-4,3.9-9,8-14.8,11.5C277.7,416.5,245.7,416.5,245.1,416.6z M392.6,461.4v23.3c0,6.8-5.5,12.3-12.3,12.3h-88.8
				c0.1-10.1-0.7-18.7-2.1-25.9c3.7,1.2,7.6,1.7,11.6,1.7c8.1,0,16.7-2.4,25.4-7.2c2.9-1.6,5.8-3.3,8.4-5.1c3.4-2.3,4.4-7,2.1-10.4
				c-2.3-3.4-7-4.4-10.4-2.1c-2.3,1.5-4.7,3-7.3,4.4c-14.2,7.9-26.2,7.1-36.4-2.4c0,0,0-0.1-0.1-0.1l6.6-11.3c2.1-3.7,2.6-8,1.3-12
				c9-6.1,15.8-13.2,20.4-18.5c2.1-2.4,5.4-3.5,8.4-2.6l23,6.4c4.2,1.2,6.7,5.3,5.8,9.4c-0.8,3.4-2.2,6.9-4.4,10.2
				c-2.2,3.5-1.2,8.1,2.2,10.4c1.3,0.8,6.6,3.5,10.4-2.2c3.1-4.8,5.3-9.9,6.4-15C362.7,424.6,392.6,431.5,392.6,461.4z M357.8,404.8
				c-2.9-3.5-6.9-6.1-11.6-7.4l-23-6.4c-12.4-2-19,1.8-19,1.8v-29.2c38-13.5,67.8-44.7,79.4-83.6c5.2-0.3,10-1.6,14.4-3.8l0,76
				C398,376.8,381.2,398.5,357.8,404.8z"/>
		</g>
	</g>
	<g>
		<g>
			<circle class="st0" cx="213.6" cy="237.3" r="9.5"/>
		</g>
	</g>
	<g>
		<g>
			<circle class="st0" cx="309.8" cy="237.3" r="9.5"/>
		</g>
	</g>
</g>
</svg>
