<?xml version="1.0" encoding="utf-8"?>
<!-- Generator: Adobe Illustrator 21.1.0, SVG Export Plug-In . SVG Version: 6.00 Build 0)  -->
<svg version="1.1" id="Capa_1" xmlns="http://www.w3.org/2000/svg" xmlns:xlink="http://www.w3.org/1999/xlink" x="0px" y="0px"
	 viewBox="0 0 512 512" style="enable-background:new 0 0 512 512;" xml:space="preserve">
<style type="text/css">
	.st0{fill:#FFB914;}
</style>
<g>
	<path class="st0" d="M264.8,269.8c40.1-11.1,69.5-57.3,69.5-111.1C334.3,96,294.8,45,246.3,45c-48.6,0-88.1,51-88.1,113.7
		c0,53.8,29.4,100.1,69.5,111.1l-6,18.4c-0.6,1.9-0.3,3.9,0.9,5.5c1.2,1.6,3,2.5,5,2.5h12.6c0,0.1,0,0.2,0,0.2v179.7
		c0,3.4,2.7,6.1,6.1,6.1c3.4,0,6.1-2.8,6.1-6.1V296.5c0-0.1,0-0.2,0-0.2H265c2,0,3.8-0.9,5-2.5c1.2-1.6,1.5-3.6,0.9-5.5L264.8,269.8
		z M236,284l5.5-16.8c0.6-1.7,0.3-3.6-0.6-5.1c-0.9-1.5-2.5-2.6-4.2-2.9c-37.7-6.4-66.2-49.6-66.2-100.6c0-55.9,34-101.4,75.8-101.4
		c41.8,0,75.8,45.5,75.8,101.4c0,50.9-28.5,94.2-66.2,100.6c-1.8,0.3-3.3,1.3-4.2,2.9c-0.9,1.5-1.1,3.4-0.6,5.1l5.5,16.8H236z"/>
	<path class="st0" d="M254.9,90c4.8,1.9,15.4,9.3,24.6,25c7.3,12.6,15.7,34.3,13.6,66.1c-0.2,3.4,2.3,6.3,5.7,6.5c0.1,0,0.3,0,0.4,0
		c3.2,0,5.9-2.5,6.1-5.7c2.2-34.9-7.1-59-15.3-73.1c-10.1-17.4-22.8-27.1-30.7-30.2c-3.2-1.2-6.7,0.3-8,3.4
		C250.2,85.2,251.8,88.8,254.9,90z"/>
	<path class="st0" d="M395.7,181.3c-42.9,0-77.8,45-77.8,100.2c0,47.1,25.6,87.6,60.6,97.8l-5,15.4c-0.6,1.9-0.3,3.9,0.9,5.5
		c1.2,1.6,3,2.5,5,2.5h10.2v73.5c0,3.4,2.8,6.1,6.1,6.1c3.4,0,6.1-2.8,6.1-6.1v-73.5h10.2c2,0,3.8-0.9,5-2.5
		c1.2-1.6,1.5-3.6,0.9-5.5l-5-15.4c35-10.2,60.6-50.7,60.6-97.8C473.6,226.3,438.6,181.3,395.7,181.3z M404,368.8
		c-1.8,0.3-3.3,1.3-4.2,2.9c-0.9,1.5-1.1,3.4-0.6,5.1l4.5,13.7h-15.8l4.5-13.7c0.6-1.7,0.3-3.6-0.6-5.1c-0.9-1.5-2.5-2.6-4.2-2.9
		c-32.7-5.5-57.3-43-57.3-87.2c0-48.5,29.4-87.9,65.5-87.9s65.5,39.4,65.5,87.9C461.3,325.7,436.6,363.2,404,368.8z"/>
	<path class="st0" d="M407.6,210.8c-3.2-1.3-6.7,0.3-8,3.4c-1.2,3.2,0.3,6.7,3.4,8c11.6,4.6,36,30.9,33,78.9
		c-0.2,3.4,2.4,6.3,5.7,6.5c0.1,0,0.3,0,0.4,0c3.2,0,5.9-2.5,6.1-5.7c2-30.7-6.2-52-13.5-64.4C425.8,222.2,414.5,213.5,407.6,210.8z
		"/>
	<path class="st0" d="M115.2,219.7c-37.3,0-67.6,38.9-67.6,86.8c0,40.3,21.8,75.2,51.7,84.4l-4,12.3c-0.6,1.9-0.3,3.9,0.9,5.5
		c1.2,1.6,3,2.5,5,2.5h7.9v65c0,3.4,2.7,6.1,6.1,6.1c3.4,0,6.1-2.8,6.1-6.1v-65h7.9c2,0,3.8-0.9,5-2.5c1.2-1.6,1.5-3.6,0.9-5.5
		l-4-12.3c29.9-9.2,51.7-44,51.7-84.4C182.8,258.6,152.5,219.7,115.2,219.7z M122.2,380.3c-1.8,0.3-3.3,1.3-4.2,2.9
		c-0.9,1.5-1.1,3.4-0.6,5.1l3.5,10.6h-11.1l3.5-10.6c0.6-1.7,0.3-3.6-0.6-5.1c-0.9-1.5-2.5-2.6-4.2-2.9
		c-27.6-4.7-48.4-36.5-48.4-73.9c0-41.1,24.8-74.5,55.3-74.5c30.5,0,55.3,33.4,55.3,74.5C170.5,343.9,149.7,375.7,122.2,380.3z"/>
	<path class="st0" d="M125.7,244.9c-3.2-1.2-6.7,0.3-8,3.4c-1.3,3.2,0.3,6.7,3.4,8c6.2,2.5,30.6,22,27.7,66.8
		c-0.2,3.4,2.4,6.3,5.7,6.5c0.1,0,0.3,0,0.4,0c3.2,0,5.9-2.5,6.1-5.8C164.4,272.2,135.9,249,125.7,244.9z"/>
	<path class="st0" d="M467.4,118.7c11.9,0,21.5-9.6,21.5-21.5s-9.6-21.5-21.5-21.5s-21.5,9.6-21.5,21.5
		C445.9,109.1,455.5,118.7,467.4,118.7z M467.4,88c5.1,0,9.2,4.1,9.2,9.2c0,5.1-4.1,9.2-9.2,9.2c-5.1,0-9.2-4.1-9.2-9.2
		C458.2,92.2,462.3,88,467.4,88z"/>
	<path class="st0" d="M293.8,346.5c-11.9,0-21.5,9.6-21.5,21.5c0,11.9,9.6,21.5,21.5,21.5s21.5-9.6,21.5-21.5
		C315.2,356.2,305.6,346.5,293.8,346.5z M293.8,377.2c-5.1,0-9.2-4.1-9.2-9.2c0-5.1,4.1-9.2,9.2-9.2c5.1,0,9.2,4.1,9.2,9.2
		C303,373.1,298.8,377.2,293.8,377.2z"/>
	<path class="st0" d="M80.3,51.2c0-11.9-9.6-21.5-21.5-21.5s-21.5,9.6-21.5,21.5s9.6,21.5,21.5,21.5C70.7,72.7,80.3,63,80.3,51.2z
		 M49.6,51.2c0-5.1,4.1-9.2,9.2-9.2c5.1,0,9.2,4.1,9.2,9.2c0,5.1-4.1,9.2-9.2,9.2C53.7,60.4,49.6,56.3,49.6,51.2z"/>
	<path class="st0" d="M57,178.6c0,11.9,9.6,21.5,21.5,21.5s21.5-9.6,21.5-21.5c0-11.9-9.6-21.5-21.5-21.5
		C66.6,157.1,57,166.7,57,178.6z M87.7,178.6c0,5.1-4.1,9.2-9.2,9.2c-5.1,0-9.2-4.1-9.2-9.2c0-5.1,4.1-9.2,9.2-9.2
		C83.6,169.4,87.7,173.5,87.7,178.6z"/>
	<path class="st0" d="M505.8,188.4h-0.1l-9.2,0.2l-0.2-9.2c-0.1-3.4-2.9-6.1-6.3-6c-3.4,0.1-6.1,2.9-6,6.3l0.2,9.2l-9.2,0.2
		c-3.4,0-6.1,2.8-6.1,6.2c0,3.4,2.8,6.1,6.2,6.1h0.1l9.2-0.2l0.2,9.2c0.1,3.3,2.8,6,6.1,6h0.1c3.4-0.1,6.1-2.9,6-6.3l-0.2-9.2
		l9.2-0.2c3.4,0,6.1-2.8,6.1-6.2C512,191.1,509.2,188.4,505.8,188.4z"/>
	<path class="st0" d="M36.9,224.7h-0.1l-9.2,0.2l-0.2-9.2c-0.1-3.3-2.8-6-6.1-6h-0.1c-3.4,0.1-6.1,2.9-6,6.3l0.2,9.2l-9.2,0.2
		c-3.4,0-6.1,2.8-6.1,6.2c0,3.4,2.8,6.1,6.2,6.1h0.1l9.2-0.2l0.2,9.2c0.1,3.3,2.8,6,6.1,6H22c3.4-0.1,6.1-2.9,6-6.3l-0.2-9.2
		l9.2-0.2c3.4,0,6.1-2.8,6.1-6.2C43.1,227.4,40.3,224.7,36.9,224.7z"/>
	<path class="st0" d="M108.1,96.9h0.1l9.2-0.2l0.2,9.2c0.1,3.3,2.8,6,6.1,6h0.1c3.4-0.1,6.1-2.9,6-6.3l-0.2-9.2l9.2-0.2
		c3.4,0,6.1-2.8,6.1-6.2s-2.8-6.1-6.2-6.1h-0.1l-9.2,0.2l-0.2-9.2c-0.1-3.3-2.8-6-6.1-6H123c-3.4,0.1-6.1,2.9-6,6.3l0.2,9.2
		l-9.2,0.2c-3.4,0-6.1,2.8-6.1,6.2C101.9,94.2,104.7,96.9,108.1,96.9L108.1,96.9z"/>
	<path class="st0" d="M388.4,106c-0.1-3.3-2.8-6-6.1-6h-0.1c-3.4,0.1-6.1,2.9-6,6.3l0.2,9.2l-9.2,0.2c-3.4,0-6.1,2.8-6.1,6.2
		c0,3.4,2.8,6.1,6.2,6.1h0.1l9.2-0.2l0.2,9.2c0.1,3.3,2.8,6,6.1,6h0.1c3.4-0.1,6.1-2.9,6-6.3l-0.2-9.2l9.2-0.2
		c3.4,0,6.1-2.8,6.1-6.2c0-3.4-2.8-6.1-6.2-6.1h-0.1l-9.2,0.2L388.4,106z"/>
</g>
</svg>
