<?xml version="1.0" encoding="utf-8"?>
<!-- Generator: Adobe Illustrator 21.1.0, SVG Export Plug-In . SVG Version: 6.00 Build 0)  -->
<svg version="1.1" id="Слой_1" xmlns="http://www.w3.org/2000/svg" xmlns:xlink="http://www.w3.org/1999/xlink" x="0px" y="0px"
	 viewBox="0 0 512 512" style="enable-background:new 0 0 512 512;" xml:space="preserve">
<style type="text/css">
	.st0{fill:#FFB914;}
</style>
<g>
	<g>
		<path class="st0" d="M24.2,489.9c0.9,3.6,4.1,6.1,7.8,6.1h336c3.7,0,6.9-2.5,7.8-6.1l8-32c1.1-4.3-1.5-8.6-5.8-9.7
			c-0.6-0.2-1.3-0.2-1.9-0.2h-8.4c-3.7-77.4-59.9-142.2-135.9-156.9c0.1-1,0.3-2.1,0.3-3.1c0-17.7-14.3-32-32-32s-32,14.3-32,32
			c0,1,0.2,2.1,0.3,3.1C92.3,305.8,36.1,370.6,32.4,448H24c-4.4,0-8,3.6-8,8c0,0.7,0.1,1.3,0.2,1.9L24.2,489.9z M361.8,480H38.2
			l-4-16h331.5L361.8,480z M184,288c0-8.8,7.2-16,16-16s16,7.2,16,16c0,0.3-0.1,0.5-0.1,0.8c-5.2-0.5-10.5-0.8-15.9-0.8
			s-10.7,0.3-15.9,0.8C184.1,288.5,184,288.3,184,288z M200,304c80.8,0.1,147.3,63.4,151.6,144H48.4C52.7,367.4,119.2,304.1,200,304
			z"/>
		<path class="st0" d="M488,56h-24V24c0-4.4-3.6-8-8-8c-0.4,0-0.8,0-1.2,0.1l-256,40v0.2c-3.9,0.6-6.7,3.8-6.8,7.8v176h16V72h272
			v408h-88v16h96c4.4,0,8-3.6,8-8V64C496,59.6,492.4,56,488,56z M448,56H303l145-22.7V56z"/>
		<path class="st0" d="M297.7,162.8c-9.1,4.4-20,2.5-27.2-4.6l0,0l-22.6-22.6l-11.3,11.3l22.6,22.6c13.4,13.4,34.5,15.6,50.3,5.1
			l23.2,23.2l-73.5,73.5l11.3,11.3l73.5-73.5 M355.3,197.8l11.9-11.9c15.9,10.5,36.9,8.3,50.3-5.1l11.3-11.3
			c15.9-15.3,16.3-40.7,1-56.6s-40.7-16.3-56.6-1c-0.3,0.3-0.7,0.6-1,1L361,124.3c-13.4,13.4-15.6,34.5-5.1,50.3L344,186.5
			l-23.2-23.2c10.5-15.9,8.4-36.9-5.1-50.3l-22.6-22.6l-11.3,11.3l22.6,22.6c7.1,7.2,9,18.1,4.6,27.2 M417.5,282.6 M372.3,135.6
			l11.3-11.3c9.5-9.2,24.7-8.9,33.9,0.6c9,9.3,9,24,0,33.3l-11.3,11.3c-9.2,9.5-24.4,9.8-33.9,0.6s-9.8-24.4-0.6-33.9
			C371.9,136,372.1,135.8,372.3,135.6z"/>
	</g>
	<path class="st0" d="M261.8,288.4c-2,0-4.1-0.8-5.6-2.3c-3.1-3.1-3.2-8.2-0.1-11.3l102.4-103.9c3.1-3.1,8.2-3.2,11.3-0.1
		c3.1,3.1,3.2,8.2,0.1,11.3L267.5,286.1C266,287.6,263.9,288.4,261.8,288.4z"/>
	<path class="st0" d="M424,287.3c-2.1,0-4.1-0.8-5.7-2.4L259.4,123.8c-3.1-3.1-3.1-8.2,0.1-11.3c3.1-3.1,8.2-3.1,11.3,0.1
		l158.9,161.1c3.1,3.1,3.1,8.2-0.1,11.3C428.1,286.5,426,287.3,424,287.3z"/>
	<path class="st0" d="M292.3,181.8c-0.8,0-1.6,0-2.5-0.1c-28-1.8-54.4-35.8-55.5-37.2c-2.7-3.5-2-8.5,1.5-11.2s8.5-2,11.2,1.5
		c6.4,8.2,26.6,29.9,43.9,31c5.7,0.4,10.6-1.6,15.1-6.1c4.6-4.6,6.6-9.6,6.2-15.3c-1.2-16.7-21.9-35.7-29.8-41.6
		c-3.5-2.6-4.3-7.7-1.6-11.2c2.6-3.5,7.7-4.3,11.2-1.6c1.4,1,34.2,26,36.2,53.3c0.7,10.3-3,19.9-10.8,27.8
		C310.1,178.2,301.7,181.8,292.3,181.8z"/>
	<path class="st0" d="M88.7,399.8c-1.5,0-3-0.4-4.3-1.3c-3.7-2.4-4.8-7.3-2.4-11.1c30-46.5,69-61.3,96.4-65.6
		c29.7-4.6,52.2,1.8,53.2,2.1c4.2,1.2,6.7,5.7,5.4,9.9c-1.2,4.2-5.7,6.7-9.9,5.4l0,0c-0.2-0.1-20.6-5.8-46.9-1.5
		c-34.9,5.6-63.4,25.2-84.8,58.4C93.9,398.5,91.3,399.8,88.7,399.8z"/>
	<path class="st0" d="M75.5,431.8c-0.3,0-0.7,0-1-0.1c-4.4-0.6-7.5-4.6-6.9-8.9c1.2-9.5,3.4-13.6,4.6-15.2l12.7,9.7
		c0,0,0.2-0.2,0.4-0.6c0,0-1.1,2.1-1.9,8C82.9,428.9,79.4,431.8,75.5,431.8z"/>
	<path class="st0" d="M417.5,320H325c-4.4,0-8-3.6-8-8s3.6-8,8-8h92.5c4.4,0,8,3.6,8,8S421.9,320,417.5,320z"/>
	<path class="st0" d="M451,320h-10c-4.4,0-8-3.6-8-8s3.6-8,8-8h10c4.4,0,8,3.6,8,8S455.4,320,451,320z"/>
	<path class="st0" d="M451,352h-10c-4.4,0-8-3.6-8-8s3.6-8,8-8h10c4.4,0,8,3.6,8,8S455.4,352,451,352z"/>
	<path class="st0" d="M451,384h-10c-4.4,0-8-3.6-8-8s3.6-8,8-8h10c4.4,0,8,3.6,8,8S455.4,384,451,384z"/>
	<path class="st0" d="M417.5,352h-59c-4.4,0-8-3.6-8-8s3.6-8,8-8h59c4.4,0,8,3.6,8,8S421.9,352,417.5,352z"/>
	<path class="st0" d="M417.5,384h-36.7c-4.4,0-8-3.6-8-8s3.6-8,8-8h36.7c4.4,0,8,3.6,8,8S421.9,384,417.5,384z"/>
</g>
</svg>
