<svg width="61" height="61" viewBox="0 0 61 61" fill="none" xmlns="http://www.w3.org/2000/svg">
<path d="M30.5003 4.35693C44.9388 4.35693 56.6431 16.0613 56.6431 30.4998C56.6431 44.9383 44.9388 56.6426 30.5003 56.6426C16.0618 56.6426 4.35742 44.9383 4.35742 30.4998C4.35742 16.0613 16.0618 4.35693 30.5003 4.35693ZM30.5003 8.71408C18.468 8.71408 8.71456 18.4675 8.71456 30.4998C8.71456 42.532 18.468 52.2855 30.5003 52.2855C42.5325 52.2855 52.286 42.532 52.286 30.4998C52.286 18.4675 42.5325 8.71408 30.5003 8.71408ZM32.1669 18.3619C36.9303 18.3619 40.0315 21.6537 40.0315 26.1067C40.0315 30.5401 36.8617 33.7971 32.0449 33.7971H27.471V37.1586H34.4184V39.116H27.471V42.8926H23.6432V39.116H20.2283V37.1586H23.6421V33.7981H20.2283V31.8233H23.6421V18.3619H32.1669ZM31.1103 21.6014H27.4721V30.6795H31.0918C34.4533 30.6795 36.133 28.9127 36.133 26.123C36.133 23.3519 34.4533 21.6025 31.1092 21.6025" fill="#FFB914"/>
</svg>
