<svg width="78" height="77" viewBox="0 0 78 77" fill="none" xmlns="http://www.w3.org/2000/svg">
<path d="M41.2836 42.3627C40.8507 41.9298 40.1431 41.9298 39.7102 42.3627L8.90853 73.1643C7.60987 74.463 5.49537 74.463 4.19671 73.1643C3.56403 72.5317 3.22271 71.6992 3.22271 70.8084C3.22271 69.9177 3.57235 69.0769 4.19671 68.4525L68.9384 3.71081C70.2371 2.41215 72.3516 2.41215 73.6502 3.71081C74.2829 4.34349 74.6243 5.17597 74.6243 6.06672C74.6243 6.95747 74.2746 7.79827 73.6502 8.42262L42.8486 39.2243C42.4157 39.6572 42.4157 40.3648 42.8486 40.7976C43.2815 41.2305 43.9891 41.2305 44.422 40.7976L75.2236 9.99601C76.2726 8.94708 76.8469 7.54853 76.8469 6.06672C76.8469 4.58491 76.2726 3.18635 75.2236 2.13743C73.0592 -0.0270108 69.5295 -0.0270108 67.3651 2.13743L2.62333 66.8791C1.57441 67.9281 1 69.3266 1 70.8084C1 72.2902 1.57441 73.6888 2.62333 74.7377C3.70555 75.8199 5.12908 76.3611 6.55262 76.3611C7.97615 76.3611 9.39969 75.8199 10.4819 74.7377L41.2836 43.9361C41.7164 43.5032 41.7164 42.7956 41.2836 42.3627Z" fill="#FFB914" stroke="#FFB914" stroke-miterlimit="10"/>
<path d="M19.9638 38.4326C30.4197 38.4326 38.9276 29.9247 38.9276 19.4688C38.9276 9.01286 30.4197 0.504944 19.9638 0.504944C9.50791 0.504944 1 9.01286 1 19.4688C1 29.9247 9.50791 38.4326 19.9638 38.4326ZM19.9638 2.72766C29.196 2.72766 36.7049 10.2366 36.7049 19.4688C36.7049 28.7009 29.196 36.2099 19.9638 36.2099C10.7317 36.2099 3.22271 28.7009 3.22271 19.4688C3.22271 10.2366 10.7317 2.72766 19.9638 2.72766Z" fill="#FFB914" stroke="#FFB914" stroke-miterlimit="10"/>
<path d="M19.9638 29.5417C25.5165 29.5417 30.0368 25.0214 30.0368 19.4688C30.0368 13.9161 25.5165 9.3958 19.9638 9.3958C14.4112 9.3958 9.89087 13.9161 9.89087 19.4688C9.89087 25.0214 14.4112 29.5417 19.9638 29.5417ZM19.9638 11.6185C24.2927 11.6185 27.8141 15.1399 27.8141 19.4688C27.8141 23.7976 24.2927 27.319 19.9638 27.319C15.635 27.319 12.1136 23.7976 12.1136 19.4688C12.1136 15.1399 15.635 11.6185 19.9638 11.6185Z" fill="#FFB914" stroke="#FFB914" stroke-miterlimit="10"/>
<path d="M57.8915 38.4326C47.4356 38.4326 38.9276 46.9405 38.9276 57.3964C38.9276 67.8523 47.4356 76.3602 57.8915 76.3602C68.3474 76.3602 76.8553 67.8523 76.8553 57.3964C76.8553 46.9405 68.3474 38.4326 57.8915 38.4326ZM57.8915 74.1375C48.6593 74.1375 41.1504 66.6286 41.1504 57.3964C41.1504 48.1642 48.6593 40.6553 57.8915 40.6553C67.1236 40.6553 74.6326 48.1642 74.6326 57.3964C74.6326 66.6286 67.1236 74.1375 57.8915 74.1375Z" fill="#FFB914" stroke="#FFB914" stroke-miterlimit="10"/>
<path d="M57.8915 47.3234C52.3388 47.3234 47.8185 51.8438 47.8185 57.3964C47.8185 62.949 52.3388 67.4694 57.8915 67.4694C63.4441 67.4694 67.9644 62.949 67.9644 57.3964C67.9644 51.8438 63.4441 47.3234 57.8915 47.3234ZM57.8915 65.2467C53.5626 65.2467 50.0412 61.7253 50.0412 57.3964C50.0412 53.0675 53.5626 49.5461 57.8915 49.5461C62.2203 49.5461 65.7417 53.0675 65.7417 57.3964C65.7417 61.7253 62.2203 65.2467 57.8915 65.2467Z" fill="#FFB914" stroke="#FFB914" stroke-miterlimit="10"/>
</svg>
