<?xml version="1.0" encoding="utf-8"?>
<!-- Generator: Adobe Illustrator 21.1.0, SVG Export Plug-In . SVG Version: 6.00 Build 0)  -->
<svg version="1.1" id="Слой_1" xmlns="http://www.w3.org/2000/svg" xmlns:xlink="http://www.w3.org/1999/xlink" x="0px" y="0px"
     viewBox="0 0 511 511" style="enable-background:new 0 0 511 511;" xml:space="preserve">
<style type="text/css">
	.st0{fill:#FFB914;}
</style>
    <g>
	<path class="st0" d="M100.3,277.8c8.3,0,15.1-6.8,15.1-15.1c0-8.3-6.8-15.1-15.1-15.1c-8.3,0-15.1,6.8-15.1,15.1
		C85.2,271,92,277.8,100.3,277.8z M100.3,259.6c1.7,0,3.1,1.4,3.1,3.1c0,1.7-1.4,3.1-3.1,3.1c-1.7,0-3.1-1.4-3.1-3.1
		C97.2,261,98.6,259.6,100.3,259.6z"/>
        <path class="st0" d="M163.4,202.7c0-5-4.1-9.1-9.1-9.1H9.1c-5,0-9.1,4.1-9.1,9.1v267.1c0,5,4.1,9.1,9.1,9.1h145.2
		c5,0,9.1-4.1,9.1-9.1V202.7z M146,461.5H18.8V211H146V461.5z"/>
        <path class="st0" d="M504.5,214.5c-6-7.7-15.7-8.8-26.5-8.8h-94.2c-1.1,0-2.1,0.2-3,0.6c-1-0.3-2-0.6-3-0.6h-3.1
		c-0.5-2.7-1-8-0.8-11.8l4-60.6c0.8-11-0.9-28.9-3.7-39.6l-10.4-40c-3.8-14.3-18.6-23.8-33.1-21.1l-28,5.2
		C289,40.4,277.2,53.5,276,67.5l-4.9,56.7c-0.8,9.2-3.7,24.7-6.4,33.8l-7.2,23.9c-1.9,6.4-9.9,14-16.6,15.7l-30.5,7.6
		c-4.9,1.2-7.8,6.2-6.6,11.1c1,4.1,4.7,6.9,8.8,6.9c0.7,0,1.5-0.1,2.2-0.3l30.5-7.7c12.9-3.3,25.9-15.7,29.6-28.2l7.2-23.9
		c3-10.3,6.2-27.1,7.1-37.4l4.9-56.7c0.5-5.9,6.3-12.3,12.1-13.4l28-5.3c5.2-1,10.7,2.5,12,7.6l10.4,39.6c2.3,8.8,3.7,23.8,3.1,32.9
		l-4,58.9c-0.7,9.8,1.6,21.5,6.1,26.4c2.7,2.9,6.2,7.5,9.9,7.5h5.9c1.1,0,2.1-0.2,3-0.6c1,0.3,2,0.6,3,0.6H478
		c5.2,0,9.5-1.1,12.1,2.2c2.6,3.3,3.3,9.6,2.1,14.6l-6.1,26h-41.5c-5,0-9.1,5-9.1,10c0,5,4.1,10,9.1,10h36.9l-10.6,41.5h-38.5
		c-5,0-9.1,4.3-9.1,9.4c0,5,4.1,9.4,9.1,9.4h33.9l-10.6,41.5h-35.4c-5,0-9.1,4.3-9.1,9.4s4.1,9.4,9.1,9.4h30.9l-5,20.1
		c-3.1,12.2-16.3,22.7-28.9,22.7H304.9h-91.1c-5,0-9.1,3.7-9.1,8.7c0,5,4.1,8.7,9.1,8.7h91.1h112.4c21,0,41.5-19.3,46.6-39.7
		l46-184.1C512.5,232.6,510.5,222.2,504.5,214.5z"/>
</g>
</svg>