<?xml version="1.0" encoding="utf-8"?>
<!-- Generator: Adobe Illustrator 21.1.0, SVG Export Plug-In . SVG Version: 6.00 Build 0)  -->
<svg version="1.1" id="Слой_1" xmlns="http://www.w3.org/2000/svg" xmlns:xlink="http://www.w3.org/1999/xlink" x="0px" y="0px"
	 viewBox="0 0 512 512" style="enable-background:new 0 0 512 512;" xml:space="preserve">
<style type="text/css">
	.st0{fill:#FFB914;}
</style>
<path class="st0" d="M322.1,444.9l-8.9-4.8c-4.9-2.6-10.9-0.8-13.5,4.1c-2.6,4.9-0.8,10.9,4.1,13.5l8.9,4.8c1.5,0.8,3.1,1.2,4.7,1.2
	c3.6,0,7-1.9,8.8-5.3C328.8,453.5,327,447.5,322.1,444.9z"/>
<path class="st0" d="M371.4,431.1l-9.5-5.4c-4.8-2.7-10.9-1-13.6,3.8c-2.7,4.8-1,10.9,3.8,13.6l9.5,5.4c1.6,0.9,3.2,1.3,4.9,1.3
	c3.5,0,6.9-1.8,8.7-5.1C378,439.9,376.3,433.8,371.4,431.1z"/>
<path class="st0" d="M358.6,321.9c1.7,1.1,3.5,1.6,5.4,1.6c3.3,0,6.5-1.6,8.4-4.6c3-4.7,1.6-10.8-3.1-13.8l-10.7-6.9
	c-4.7-3-10.8-1.6-13.8,3.1c-3,4.7-1.6,10.8,3.1,13.8L358.6,321.9z"/>
<path class="st0" d="M439,335.4l-10.8-5.8c-4.9-2.6-10.9-0.8-13.5,4.1c-2.6,4.9-0.8,10.9,4.1,13.5l10.8,5.8c1.5,0.8,3.1,1.2,4.7,1.2
	c3.6,0,7-1.9,8.8-5.3C445.7,344.1,443.9,338,439,335.4z"/>
<path class="st0" d="M313,340.6c3.6,0,7.2-2,8.9-5.5c2.5-4.9,0.6-10.9-4.4-13.4l-10.3-5.2c-4.9-2.5-10.9-0.6-13.5,4.4
	c-2.5,4.9-0.6,10.9,4.4,13.5l10.3,5.2C309.9,340.2,311.4,340.6,313,340.6z"/>
<path class="st0" d="M492.9,262.5c-14.6-15.8-36.4-32.4-61.2-46.8c-24.9-14.4-50.1-24.9-71.1-29.6c-31.6-7.2-43.9,1.1-48.6,9.3
	c-0.4,0.7-0.8,1.4-1.1,2.2l-11.5,23.7c-0.8-4-2.1-7.9-3.9-11.7L201.2,14.3c-0.3-0.8-0.7-1.6-1.2-2.4c-14.5-25.1-72.2-7-119.7,20.4
	c-47.5,27.4-92,68.4-77.5,93.5c0.1,0.2,0.3,0.4,0.4,0.6l0.1,0.1c0.3,0.4,0.5,0.8,0.8,1.2l46.7,68.7c1.9,2.8,5.1,4.4,8.3,4.4
	c1.9,0,3.9-0.6,5.6-1.7c4.6-3.1,5.8-9.3,2.6-13.9L35,137.6c24.6-1.7,58.1-15.1,87.6-32.2c29.5-17,57.9-39.3,71.6-59.7l83.3,172.5
	c4.9,10.2,3.4,22.4-4,31c-26.1,30.7-62.3,51.6-102,58.9c-11.1,2-22.4-2.7-28.8-12.1l-31.1-45.7c-3.1-4.6-9.3-5.8-13.9-2.6
	c-4.6,3.1-5.8,9.3-2.6,13.9l31.1,45.7c9.1,13.5,24.3,21.3,40.2,21.3c2.9,0,5.8-0.3,8.7-0.8c35.6-6.5,68.8-23,95.6-47l-54.2,112.2
	c-8.4,17.3-5.7,38,6.7,52.6c29.1,34.2,69.4,57.5,113.6,65.6c2.9,0.5,5.8,0.8,8.7,0.8c15.9,0,31.1-7.8,40.2-21.3l122-179.4
	c0.5-0.7,1-1.4,1.4-2C514,301,515,286.3,492.9,262.5z M169.1,45.1c-13.3,14.4-33.4,29.6-56.6,43c-23.2,13.4-46.5,23.1-65.5,27.5
	c-18.6,4.2-25.6,1.4-26.7,0.4l-0.2-0.3c-0.4-1.3,0.4-8.7,13.7-23c13.3-14.4,33.4-29.6,56.6-43s46.5-23.1,65.5-27.5
	c19-4.3,25.9-1.3,26.8-0.3l0.2,0.3C183.1,23.7,182,31.1,169.1,45.1z M338.9,203.3c4.1,0,9.7,0.6,17.2,2.3
	c19.1,4.3,42.4,14.1,65.5,27.5c23.2,13.4,43.3,28.7,56.6,43c13.2,14.3,14.1,21.8,13.7,23l-0.2,0.3c-1.1,1-8.1,3.8-26.7-0.4
	c-19.1-4.3-42.4-14.1-65.5-27.5c-23.2-13.4-43.3-28.7-56.6-43c-13-14-14-21.4-13.7-22.9l0.2-0.3
	C329.9,204.6,332.7,203.3,338.9,203.3z M369.3,479.4c-6.4,9.4-17.7,14.1-28.8,12.1c-39.7-7.3-75.9-28.2-102-58.9
	c-7.3-8.6-8.9-20.8-4-31l83.3-172.5c2.7,4,6.1,8.3,10.4,12.9c14.6,15.8,36.4,32.4,61.2,46.8c24.9,14.4,50.1,24.9,71.1,29.6
	c6.2,1.4,11.6,2.2,16.4,2.5L369.3,479.4z"/>
<path class="st0" d="M185.8,275.1c1.8,3.3,5.2,5.2,8.8,5.2c1.6,0,3.2-0.4,4.8-1.2l12.4-6.7c4.9-2.6,6.7-8.7,4-13.6
	c-2.6-4.9-8.7-6.7-13.6-4l-12.4,6.7C185,264.2,183.2,270.3,185.8,275.1z"/>
<path class="st0" d="M147.6,243.6l-7.2,4.2c-4.8,2.8-6.4,8.9-3.6,13.7c1.9,3.2,5.2,5,8.6,5c1.7,0,3.4-0.4,5-1.4l7.2-4.2
	c4.8-2.8,6.4-8.9,3.6-13.7C158.5,242.5,152.4,240.9,147.6,243.6z"/>
<path class="st0" d="M213,224.3c1.9,3.2,5.2,5,8.6,5c1.7,0,3.4-0.4,5-1.4l7.2-4.2c4.8-2.8,6.4-8.9,3.6-13.7
	c-2.8-4.8-8.9-6.4-13.7-3.6l-7.2,4.2C211.9,213.4,210.3,219.5,213,224.3z"/>
<path class="st0" d="M170.7,127.2c4.6-3.1,5.7-9.3,2.6-13.9s-9.3-5.7-13.9-2.6l-6.3,4.3c-4.6,3.1-5.7,9.3-2.6,13.9
	c1.9,2.8,5.1,4.3,8.3,4.3c1.9,0,3.9-0.6,5.6-1.8L170.7,127.2z"/>
<path class="st0" d="M81.2,169.6c1.2,0,2.4-0.2,3.5-0.7l9.8-3.7c5.2-2,7.8-7.7,5.8-12.9s-7.7-7.8-12.9-5.8l-9.8,3.7
	c-5.2,2-7.8,7.7-5.8,12.9C73.4,167.1,77.2,169.6,81.2,169.6z"/>
<path class="st0" d="M134,175.3l-9.8,5.6c-4.8,2.7-6.5,8.8-3.8,13.6c1.8,3.2,5.2,5.1,8.7,5.1c1.7,0,3.4-0.4,4.9-1.3l9.8-5.6
	c4.8-2.7,6.5-8.8,3.8-13.6C145,174.2,138.8,172.5,134,175.3z"/>
<path class="st0" d="M203.3,134l-12.5,9.4c-4.4,3.3-5.3,9.6-2,14c2,2.6,5,4,8,4c2.1,0,4.2-0.7,6-2l12.5-9.4c4.4-3.3,5.3-9.6,2-14
	C214,131.6,207.8,130.7,203.3,134z"/>
<path class="st0" d="M82.9,215.9c-2.6,0-5.2,1.1-7.1,2.9c-1.9,1.9-2.9,4.4-2.9,7.1c0,2.6,1.1,5.2,2.9,7.1c1.9,1.9,4.4,2.9,7.1,2.9
	c2.6,0,5.2-1.1,7.1-2.9c1.9-1.9,2.9-4.4,2.9-7.1c0-2.6-1.1-5.2-2.9-7.1C88.1,217,85.5,215.9,82.9,215.9z"/>
</svg>
