<?xml version="1.0" encoding="utf-8"?>
<!-- Generator: Adobe Illustrator 22.1.0, SVG Export Plug-In . SVG Version: 6.00 Build 0)  -->
<svg version="1.1" xmlns="http://www.w3.org/2000/svg" xmlns:xlink="http://www.w3.org/1999/xlink" x="0px" y="0px"
	 viewBox="0 0 77 77" style="enable-background:new 0 0 77 77;" xml:space="preserve">
<style type="text/css">
	.st0{fill:#fff;}
</style>
<g id="background">
</g>
<g id="objects">
	<g>
		<path class="st0" d="M49.9,28.6c-0.4,0-0.7,0.2-1,0.4c-5.9,3.7-11.8,7.4-17.7,11.2c-0.3,0.2-0.4,0.4-0.3,0.8
			c0.7,2.2,1.4,4.4,2.2,6.6c0.2,0.7,0.5,1.4,0.7,2.2c0.1-0.1,0.1-0.2,0.1-0.2c0.2-1.8,0.3-3.6,0.5-5.4c0-0.4,0.2-0.8,0.5-1.1
			c4.8-4.3,9.6-8.6,14.4-12.9c0.3-0.3,0.6-0.5,0.9-0.8c0.1-0.1,0.3-0.2,0.2-0.4C50.3,28.6,50.1,28.6,49.9,28.6z"/>
		<path class="st0" d="M38.5,0C17.2,0,0,17.2,0,38.5C0,59.8,17.2,77,38.5,77C59.8,77,77,59.8,77,38.5C77,17.2,59.8,0,38.5,0z
			 M56.4,27.8c-1.7,8-3.4,16-5.1,24c-0.1,0.5-0.2,0.9-0.4,1.3c-0.4,0.7-1,0.9-1.8,0.7c-0.5-0.1-0.9-0.3-1.3-0.6
			c-2.6-1.9-5.1-3.8-7.7-5.7c-0.3-0.2-0.5-0.2-0.8,0.1c-1.3,1.2-2.5,2.5-3.8,3.7c-0.5,0.5-1,0.8-1.7,0.7c-0.5,0-0.8-0.2-0.9-0.7
			c-0.8-2.5-1.6-4.9-2.4-7.4c-0.3-0.8-0.6-1.7-0.8-2.5c-0.1-0.3-0.2-0.5-0.6-0.6c-2.5-0.8-5-1.6-7.5-2.3c-0.3-0.1-0.7-0.2-1-0.4
			c-0.7-0.4-0.8-1-0.1-1.6c0.4-0.4,0.9-0.6,1.5-0.8c3.4-1.3,6.8-2.6,10.2-3.9c7.4-2.8,14.7-5.7,22.1-8.5c0.1,0,0.1,0,0.2-0.1
			c1.4-0.5,2.4,0.2,2.4,1.8C56.9,25.9,56.6,26.9,56.4,27.8z"/>
	</g>
</g>
<g id="designed_by_freepik">
</g>
</svg>
