<?xml version="1.0" encoding="utf-8"?>
<!-- Generator: Adobe Illustrator 22.1.0, SVG Export Plug-In . SVG Version: 6.00 Build 0)  -->
<svg version="1.1" xmlns="http://www.w3.org/2000/svg" xmlns:xlink="http://www.w3.org/1999/xlink" x="0px" y="0px"
	 viewBox="0 0 77 77" style="enable-background:new 0 0 77 77;" xml:space="preserve">
<style type="text/css">
	.st0{fill:#fff;}
</style>
<g id="background">
</g>
<g id="objects">
	<g>
		<path class="st0" d="M38.5,31.5c-3.9,0-7,3.2-7,7c0,3.8,3.2,7,7,7c3.8,0,7-3.2,7-7C45.5,34.7,42.4,31.5,38.5,31.5z"/>
		<path class="st0" d="M38.5,0C17.2,0,0,17.2,0,38.5C0,59.8,17.2,77,38.5,77C59.8,77,77,59.8,77,38.5C77,17.2,59.8,0,38.5,0z
			 M59.5,45.2c0,2.2-0.1,4.4-0.8,6.5c-1.4,4.1-4.3,6.6-8.5,7.4c-1.9,0.4-3.9,0.4-5.8,0.5c-4.2,0.1-8.3,0-12.5,0
			c-2.2,0-4.4-0.1-6.5-0.8c-4.1-1.4-6.6-4.3-7.4-8.5c-0.4-1.9-0.4-3.9-0.5-5.8c-0.1-4.2,0-8.4,0-12.6c0-2.2,0.1-4.4,0.8-6.5
			c1.4-4.1,4.3-6.6,8.5-7.4c1.9-0.4,3.9-0.4,5.8-0.5c2-0.1,3.9,0,5.9,0c0,0,0,0,0-0.1c2.8,0.1,5.7,0.1,8.5,0.2
			c2.5,0.1,4.8,0.5,7,1.8c2.8,1.7,4.5,4.2,5.1,7.4c0.3,1.9,0.4,3.9,0.5,5.8C59.6,36.8,59.6,41,59.5,45.2z"/>
		<path class="st0" d="M55.8,33.2c0-1.6-0.1-3.2-0.3-4.8c-0.4-3.6-2.5-6-6-6.7c-1.8-0.4-3.8-0.4-5.6-0.4c-3.6-0.1-7.1-0.1-10.7,0
			c-1.8,0-3.6,0.1-5.3,0.4c-3,0.5-5.1,2.2-6,5.2c-0.3,1-0.4,2-0.5,3c-0.1,3.8-0.1,7.6-0.1,11.4c0,2.4,0.1,4.9,0.3,7.3
			c0.3,3.6,2.5,6.1,6.1,6.7c1.8,0.3,3.7,0.4,5.6,0.4c3.5,0.1,7,0,10.6,0c1.6,0,3.2-0.1,4.8-0.3c1.5-0.1,2.9-0.6,4.1-1.6
			c2-1.6,2.7-3.7,2.8-6.1c0.2-3.2,0.2-6.4,0.3-9.6c0,0-0.1,0-0.1,0C55.8,36.5,55.8,34.9,55.8,33.2z M38.5,49.4
			c-6,0-10.8-4.8-10.8-10.9c0-5.9,4.9-10.7,10.9-10.7c5.9,0,10.7,4.9,10.7,10.8C49.3,44.6,44.5,49.4,38.5,49.4z M49.8,29.8
			c-1.4,0-2.6-1.2-2.5-2.6c0-1.4,1.1-2.5,2.5-2.5c1.4,0,2.5,1.1,2.5,2.5C52.3,28.7,51.2,29.9,49.8,29.8z"/>
	</g>
</g>
<g id="designed_by_freepik">
</g>
</svg>
