<?xml version="1.0" encoding="utf-8"?>
<!-- Generator: Adobe Illustrator 22.1.0, SVG Export Plug-In . SVG Version: 6.00 Build 0)  -->
<svg version="1.1" xmlns="http://www.w3.org/2000/svg" xmlns:xlink="http://www.w3.org/1999/xlink" x="0px" y="0px"
	 viewBox="0 0 77 77" style="enable-background:new 0 0 77 77;" xml:space="preserve">
<style type="text/css">
	.st0{fill:#fff;}
</style>
<g id="background">
</g>
<g id="objects">
	<path class="st0" d="M38.5,0C17.2,0,0,17.2,0,38.5C0,59.8,17.2,77,38.5,77C59.8,77,77,59.8,77,38.5C77,17.2,59.8,0,38.5,0z
		 M59.3,51.5l-6.1,0.1c0,0-1.3,0.3-3-0.9c-2.3-1.6-4.4-5.6-6.1-5.1c-1.7,0.5-1.6,4.2-1.6,4.2s0,0.8-0.4,1.2
		c-0.4,0.5-1.2,0.5-1.2,0.5H38c0,0-6,0.4-11.4-5.2c-5.8-6-10.9-18-10.9-18s-0.3-0.8,0-1.2c0.4-0.4,1.3-0.5,1.3-0.5l6.5,0
		c0,0,0.6,0.1,1.1,0.4c0.4,0.3,0.6,0.8,0.6,0.8s1.1,2.7,2.5,5.1c2.7,4.7,4,5.8,4.9,5.2c1.4-0.7,0.9-6.7,0.9-6.7s0-2.2-0.7-3.1
		c-0.5-0.7-1.6-1-2-1c-0.4,0,0.2-0.9,1-1.3c1.2-0.6,3.3-0.6,5.7-0.6c1.9,0,2.5,0.1,3.2,0.3c2.3,0.5,1.5,2.6,1.5,7.7
		c0,1.6-0.3,3.9,0.9,4.6c0.5,0.3,1.7,0,4.8-5.2c1.5-2.5,2.5-5.4,2.5-5.4s0.2-0.5,0.6-0.7c0.4-0.2,0.9-0.2,0.9-0.2l6.9,0
		c0,0,2.1-0.2,2.4,0.7c0.4,1-0.8,3.3-3.6,7c-4.6,6.2-5.1,5.6-1.3,9.1c3.7,3.4,4.4,5.1,4.5,5.3C62.5,51.3,59.3,51.5,59.3,51.5z"/>
</g>
<g id="designed_by_freepik">
</g>
</svg>
