<?xml version="1.0" encoding="utf-8"?>
<!-- Generator: Adobe Illustrator 23.0.1, SVG Export Plug-In . SVG Version: 6.00 Build 0)  -->
<svg version="1.1" id="Слой_1" xmlns="http://www.w3.org/2000/svg" xmlns:xlink="http://www.w3.org/1999/xlink" x="0px" y="0px"
	 viewBox="0 0 41 41" style="enable-background:new 0 0 41 41;" xml:space="preserve">
<style type="text/css">
	.st0{fill-rule:evenodd;clip-rule:evenodd;fill:#FFFFFF;}
	.st1{fill:#7FD371;}
	.st2{fill:#FFFFFF;}
</style>
<g>
	<path class="st0" d="M20.51,10.53c-5.59,0-10.14,4.52-10.14,10.12c0,2.54,0.93,4.86,2.46,6.63l-1.39,3.52l3.08-1.96
		c1.67,1.24,3.73,1.96,5.98,1.96c5.59,0,10.11-4.54,10.11-10.14C30.62,15.05,26.11,10.53,20.51,10.53z M26.92,24.88
		c-0.1,0.5-1.29,1.58-2.22,1.79c-2.01,0.45-4.85-1.15-6.69-2.85c-1.84-1.67-3.68-4.38-3.42-6.41c0.12-0.93,1.1-2.22,1.58-2.39
		c0.22-0.05,0.53-0.05,0.81-0.05c0.34,0.02,0.62,0.05,0.72,0.24l1.08,2.8c0.07,0.22-0.1,0.45-0.31,0.72
		c-0.31,0.36-0.36,0.38-0.65,0.77c-0.14,0.19-0.05,0.43,0,0.53c0.31,0.74,1.03,1.58,1.67,2.18c0.67,0.6,1.55,1.24,2.32,1.51
		c0.05,0,0.33,0.12,0.55,0.07c0.19-0.02,0.31-0.17,0.48-0.38c0.31-0.38,0.43-0.53,0.69-0.89c0.21-0.26,0.43-0.36,0.65-0.24
		l2.44,1.13c0.19,0.1,0.26,0.34,0.29,0.67C26.94,24.36,26.96,24.67,26.92,24.88z"/>
	<path class="st0" d="M20.5,0C9.18,0,0,9.18,0,20.5S9.18,41,20.5,41S41,31.82,41,20.5S31.82,0,20.5,0z M20.51,33.33
		c-2.1,0-4.09-0.53-5.83-1.43L7.84,35l1.91-7.65c-1.19-1.94-1.91-4.23-1.91-6.7C7.84,13.67,13.51,8,20.51,8
		c6.98,0,12.64,5.67,12.64,12.65C33.16,27.66,27.49,33.33,20.51,33.33z"/>
</g>
</svg>
