<?xml version="1.0" encoding="utf-8"?>
<!-- Generator: Adobe Illustrator 22.1.0, SVG Export Plug-In . SVG Version: 6.00 Build 0)  -->
<svg version="1.1" xmlns="http://www.w3.org/2000/svg" xmlns:xlink="http://www.w3.org/1999/xlink" x="0px" y="0px"
	 viewBox="0 0 77 77" style="enable-background:new 0 0 77 77;" xml:space="preserve">
<style type="text/css">
	.st0{fill:#fff;}
</style>
<g id="background">
</g>
<g id="objects">
	<path class="st0" d="M38.5,0C17.2,0,0,17.2,0,38.5C0,59.8,17.2,77,38.5,77S77,59.8,77,38.5C77,17.2,59.8,0,38.5,0z M40.2,20.1
		c8.5,0.3,15.9,8.1,15.8,16.6c0,0.8,0.3,2.1-0.9,2c-1.2,0-0.9-1.3-1-2.1C53,27.6,48.9,23.4,40,22c-0.7-0.1-1.9,0-1.8-0.9
		C38.3,19.6,39.6,20.2,40.2,20.1z M50.9,37c-1.4,0.2-1.1-1-1.2-1.8c-0.9-5.5-2.8-7.5-8.3-8.7c-0.8-0.2-2.1-0.1-1.9-1.3
		c0.2-1.2,1.3-0.8,2.2-0.7c5.5,0.7,10,5.4,9.9,10.7C51.6,35.7,51.9,36.8,50.9,37z M46.6,35.7c-0.6,0.1-1-0.4-1-1
		c-0.2-2.2-1.4-3.6-3.7-3.9c-0.7-0.1-1.3-0.3-1-1.2c0.2-0.6,0.8-0.7,1.3-0.7c2.4-0.1,5.3,2.9,5.3,5.4C47.5,34.8,47.4,35.6,46.6,35.7
		z M56.1,51.7c-0.9,2.7-4.2,5.3-7,5.3c-0.4-0.1-1.2-0.2-1.9-0.5c-12.2-5.2-21-13.8-26-26.2c-1.7-4.1,0.1-7.6,4.3-9.1
		c0.8-0.3,1.5-0.3,2.3,0c1.8,0.7,6.4,7,6.5,8.9c0.1,1.4-0.9,2.2-1.9,2.9c-1.8,1.3-1.9,2.8-1.1,4.6c1.8,4,4.8,6.8,8.8,8.5
		c1.4,0.6,2.8,0.6,3.8-0.9c1.7-2.6,3.9-2.5,6.2-0.9c1.2,0.8,2.4,1.6,3.5,2.5C55.1,48.1,57,49.1,56.1,51.7z"/>
</g>
<g id="designed_by_freepik">
</g>
</svg>
