<svg width="39" height="39" viewBox="0 0 39 39" fill="none" xmlns="http://www.w3.org/2000/svg">
<path d="M13.5851 35.5498C13.5083 35.199 13.1617 34.9771 12.8109 35.0538C12.5067 35.1149 12.1934 35.1149 11.8892 35.0538C11.5385 34.9771 11.1919 35.199 11.1151 35.5498C11.0382 35.9005 11.2603 36.2471 11.611 36.3239C12.0985 36.4253 12.6016 36.4253 13.0891 36.3239C13.4399 36.2472 13.6619 35.9005 13.5851 35.5498Z" fill="black"/>
<path d="M27.9351 35.5498C27.8584 35.199 27.5118 34.977 27.161 35.0538C26.8568 35.1149 26.5435 35.1149 26.2393 35.0538C25.8885 34.977 25.542 35.199 25.4652 35.5498C25.3883 35.9006 25.6104 36.2471 25.9611 36.3239C26.4486 36.4253 26.9517 36.4253 27.4392 36.3239C27.7899 36.2472 28.012 35.9006 27.9351 35.5498Z" fill="black"/>
<path d="M17.55 0.596114C17.5219 0.258358 17.2389 -0.00107274 16.9 6.47613e-05H15.6C15.2611 -0.00107274 14.9781 0.258358 14.95 0.596114L14.352 7.80006H14.248L13.65 0.596114C13.6219 0.258358 13.3389 -0.00107274 13 6.47613e-05H11.7C11.3611 -0.00107274 11.0781 0.258358 11.05 0.596114L10.452 7.80006H10.348L9.75 0.596114C9.72188 0.258358 9.43889 -0.00107274 9.1 6.47613e-05H7.8C7.46111 -0.00107274 7.17811 0.258358 7.15 0.596114L6.5 8.45006V11.0501C6.50195 12.8293 7.9326 14.277 9.71165 14.3001L8.45 36.493C8.45 37.8989 10.1634 39 12.35 39C14.5366 39 16.25 37.8989 16.25 36.4559L14.9883 14.3001C16.7674 14.277 18.198 12.8293 18.2 11.0501V8.39611L17.55 0.596114ZM16.9 11.0501C16.9 12.127 16.027 13.0001 14.95 13.0001H14.3C13.941 12.9995 13.6495 13.29 13.6489 13.649C13.6489 13.6617 13.6493 13.6744 13.65 13.6871L14.95 36.493C14.95 37.05 13.8144 37.7 12.35 37.7C10.8855 37.7 9.75 37.05 9.75 36.53L11.05 13.6878C11.0708 13.3294 10.7971 13.022 10.4388 13.0011C10.4259 13.0004 10.4129 13.0001 10.4 13.0001H9.75C8.67303 13.0001 7.8 12.127 7.8 11.0501V8.50401L8.398 1.30006H8.502L9.1 8.50401C9.12811 8.84176 9.4111 9.10119 9.75 9.10006H11.05C11.3889 9.10119 11.6719 8.84176 11.7 8.50401L12.298 1.30006H12.402L13 8.50401C13.0281 8.84176 13.3111 9.10119 13.65 9.10006H14.95C15.2889 9.10119 15.5719 8.84176 15.6 8.50401L16.198 1.30006H16.302L16.9 8.45006V11.0501Z" fill="black"/>
<path d="M33.8 8.45005C33.8 3.79086 30.5922 6.10352e-05 26.65 6.10352e-05C22.7077 6.10352e-05 19.5 3.79086 19.5 8.45005C19.5 11.8983 21.2634 14.9728 23.9336 16.2643L22.75 36.493C22.75 37.8989 24.4634 39 26.65 39C28.8366 39 30.55 37.8989 30.55 36.4546L29.3663 16.2643C32.0365 14.9728 33.8 11.8983 33.8 8.45005ZM28.4511 15.2477C28.1907 15.3513 28.0259 15.6101 28.0423 15.8899L29.25 36.493C29.25 37.05 28.1144 37.7 26.65 37.7C25.1855 37.7 24.05 37.05 24.05 36.53L25.259 15.8893C25.2754 15.6095 25.1106 15.3506 24.8501 15.2471C22.425 14.2864 20.8 11.5544 20.8 8.45005C20.8 4.50781 23.424 1.30006 26.65 1.30006C29.8759 1.30006 32.5 4.50781 32.5 8.45005C32.5 11.5544 30.875 14.2864 28.4511 15.2477Z" fill="black"/>
<path d="M26.65 2.60007C26.291 2.60007 26 2.8911 26 3.25007C26 3.60903 26.291 3.90007 26.65 3.90007C28.3809 3.90007 29.9 6.02621 29.9 8.45006C29.9 8.80902 30.191 9.10006 30.55 9.10006C30.909 9.10006 31.2 8.80902 31.2 8.45006C31.2 5.27936 29.1161 2.60007 26.65 2.60007Z" fill="black"/>
<path d="M30.563 9.75H30.5565C30.1958 9.75179 29.9047 10.0457 29.9065 10.4065C29.9083 10.7672 30.2023 11.0583 30.563 11.0565C30.9238 11.0547 31.2148 10.7607 31.213 10.4C31.2112 10.0418 30.9212 9.75179 30.563 9.75Z" fill="black"/>
<path d="M5.84999 16.25C4.77303 16.25 3.9 15.377 3.9 14.3C3.9 13.9411 3.60896 13.65 3.25 13.65C2.89103 13.65 2.6 13.9411 2.6 14.3C2.6 15.377 1.72697 16.25 0.649999 16.25C0.291037 16.25 0 16.5411 0 16.9C0 17.259 0.291037 17.55 0.649999 17.55C1.72697 17.55 2.6 18.423 2.6 19.5C2.6 19.859 2.89103 20.15 3.25 20.15C3.60896 20.15 3.9 19.859 3.9 19.5C3.9 18.423 4.77303 17.55 5.84999 17.55C6.20896 17.55 6.49999 17.259 6.49999 16.9C6.49999 16.5411 6.20896 16.25 5.84999 16.25ZM3.25 17.55C3.06491 17.3039 2.8461 17.0851 2.6 16.9C2.8461 16.7149 3.06491 16.4961 3.25 16.25C3.43508 16.4961 3.65389 16.7149 3.9 16.9C3.65389 17.0851 3.43508 17.3039 3.25 17.55Z" fill="black"/>
<path d="M38.35 15.6C37.273 15.6 36.4 14.727 36.4 13.65C36.4 13.291 36.109 13 35.75 13C35.391 13 35.1 13.291 35.1 13.65C35.1 14.727 34.227 15.6 33.15 15.6C32.791 15.6 32.5 15.891 32.5 16.25C32.5 16.609 32.791 16.9 33.15 16.9C34.227 16.9 35.1 17.773 35.1 18.85C35.1 19.209 35.391 19.5 35.75 19.5C36.109 19.5 36.4 19.209 36.4 18.85C36.4 17.773 37.273 16.9 38.35 16.9C38.709 16.9 39 16.609 39 16.25C39 15.891 38.709 15.6 38.35 15.6ZM35.75 16.9C35.5649 16.6539 35.3461 16.4351 35.1 16.25C35.3461 16.0649 35.5649 15.8461 35.75 15.6C35.9351 15.8461 36.1539 16.0649 36.4 16.25C36.1539 16.4351 35.9351 16.6539 35.75 16.9Z" fill="black"/>
<path d="M20.8 19.5H19.5V20.8H20.8V19.5Z" fill="black"/>
<path d="M20.8 22.1H19.5V23.4H20.8V22.1Z" fill="black"/>
<path d="M19.4999 20.8H18.2V22.1H19.4999V20.8Z" fill="black"/>
<path d="M22.1 20.8H20.8V22.1H22.1V20.8Z" fill="black"/>
</svg>
