<svg width="72" height="100" viewBox="0 0 72 100" fill="none" xmlns="http://www.w3.org/2000/svg">
<path d="M39.0469 51.797C39.0469 52.3996 38.8682 52.9887 38.5334 53.4897C38.1986 53.9908 37.7227 54.3813 37.166 54.6119C36.6092 54.8425 35.9966 54.9029 35.4056 54.7853C34.8145 54.6678 34.2716 54.3776 33.8455 53.9515C33.4194 53.5253 33.1292 52.9824 33.0117 52.3914C32.8941 51.8004 32.9544 51.1878 33.185 50.631C33.4156 50.0743 33.8062 49.5984 34.3072 49.2636C34.8083 48.9288 35.3974 48.7501 36 48.7501C36.8081 48.7501 37.583 49.0711 38.1544 49.6425C38.7258 50.2139 39.0469 50.9889 39.0469 51.797ZM63.6961 22.09C55.8872 15.6849 46.0997 12.1843 36 12.1843C25.9003 12.1843 16.1128 15.6849 8.30389 22.09C8.09766 22.2593 7.92682 22.4677 7.8011 22.7031C7.67539 22.9385 7.59728 23.1964 7.57123 23.462C7.54518 23.7276 7.57169 23.9957 7.64926 24.2511C7.72683 24.5064 7.85394 24.744 8.02333 24.9502C8.19271 25.1564 8.40106 25.3273 8.63647 25.453C8.87188 25.5787 9.12975 25.6568 9.39534 25.6829C9.93175 25.7355 10.4671 25.5729 10.8836 25.2308C17.9656 19.4232 26.8413 16.2493 36 16.2493C45.1587 16.2493 54.0344 19.4232 61.1164 25.2308C61.5329 25.5729 62.0682 25.7355 62.6046 25.6829C63.141 25.6303 63.6346 25.3667 63.9766 24.9502C64.3187 24.5337 64.4814 23.9984 64.4287 23.462C64.3761 22.9256 64.1126 22.432 63.6961 22.09ZM55.5508 31.1722C49.9885 26.7685 43.102 24.3724 36.0076 24.3724C28.9132 24.3724 22.0267 26.7685 16.4644 31.1722C16.0422 31.5069 15.7702 31.9956 15.7083 32.5308C15.6464 33.066 15.7997 33.6039 16.1344 34.0261C16.469 34.4483 16.9577 34.7203 17.493 34.7822C18.0282 34.8441 18.566 34.6909 18.9883 34.3562C23.8324 30.5218 29.8295 28.4355 36.0076 28.4355C42.1857 28.4355 48.1828 30.5218 53.0269 34.3562C53.236 34.5219 53.4756 34.6449 53.7322 34.718C53.9888 34.7911 54.2572 34.8129 54.5223 34.7823C54.7873 34.7516 55.0437 34.6691 55.2768 34.5393C55.5099 34.4096 55.7151 34.2352 55.8808 34.0261C56.0466 33.817 56.1695 33.5774 56.2426 33.3208C56.3158 33.0642 56.3376 32.7958 56.307 32.5308C56.2763 32.2658 56.1938 32.0094 56.064 31.7763C55.9343 31.5432 55.7599 31.3379 55.5508 31.1722ZM47.3598 40.2519C44.0603 37.854 40.0863 36.5624 36.0076 36.5624C31.9289 36.5624 27.9549 37.854 24.6555 40.2519C24.2198 40.569 23.9279 41.0463 23.8441 41.5787C23.7603 42.111 23.8914 42.6549 24.2086 43.0906C24.5257 43.5262 25.003 43.8181 25.5354 43.9019C26.0677 43.9857 26.6116 43.8546 27.0472 43.5374C29.6511 41.6437 32.788 40.6237 36.0076 40.6237C39.2272 40.6237 42.3641 41.6437 44.968 43.5374C45.1837 43.6945 45.4282 43.8075 45.6876 43.87C45.9471 43.9326 46.2162 43.9434 46.4798 43.9019C46.7434 43.8604 46.9963 43.7674 47.2239 43.6282C47.4516 43.489 47.6496 43.3063 47.8066 43.0906C47.9637 42.8748 48.0767 42.6303 48.1392 42.3709C48.2018 42.1114 48.2126 41.8423 48.1711 41.5787C48.1296 41.3151 48.0366 41.0622 47.8974 40.8346C47.7582 40.6069 47.5755 40.4089 47.3598 40.2519Z" fill="#FFB914"/>
<path d="M7.198 95.238C3.781 95.238 1.01 92.552 1.01 89.05C1.01 85.548 3.781 82.862 7.198 82.862C10.615 82.862 13.386 85.548 13.386 89.05C13.386 92.552 10.615 95.238 7.198 95.238ZM7.198 92.586C9.136 92.586 10.666 91.175 10.666 89.05C10.666 86.925 9.136 85.514 7.198 85.514C5.26 85.514 3.73 86.925 3.73 89.05C3.73 91.175 5.26 92.586 7.198 92.586ZM21.3775 83.1H24.0975V95H21.3775V90.274H17.6375V95H14.9175V83.1H17.6375V87.656H21.3775V83.1ZM25.2901 95V92.45C26.5141 92.637 27.2621 92.263 27.2621 90.274V83.1H35.4901V95H32.7701V85.718H29.9821V90.172C29.9821 94.422 27.4831 95.238 25.2901 95ZM45.0938 95L44.4988 93.13H40.0788L39.4838 95H36.5088L40.5548 83.1H44.0228L48.0688 95H45.0938ZM40.8948 90.58H43.6828L42.2888 86.211L40.8948 90.58ZM51.2085 82.097V79.887H56.3085V82.097H51.2085ZM55.7135 95V88.54L51.1235 95H49.0835V83.1H51.8035V89.56L56.3935 83.1H58.4335V95H55.7135ZM66.9321 83.1H69.6521V95H66.9321V90.274H63.1921V95H60.4721V83.1H63.1921V87.656H66.9321V83.1Z" fill="#FFB914"/>
</svg>
